<svg width="329" height="110" viewBox="0 0 329 110" fill="none" xmlns="http://www.w3.org/2000/svg">
<path d="M104.485 33.5036V109.677L10.6507 110C10.8863 106.669 -4.55921 62.7516 15.2386 37.6621C43.3328 2.04598 67.3413 30.849 99.0338 33.35C100.825 33.4883 102.632 33.5497 104.485 33.5036Z" fill="#F5F6FA"/>
<path d="M320.1 108.199C320.037 108.677 317.445 108.636 314.86 108.596C312.295 108.556 309.737 108.515 309.668 108.981L246.237 109.197H104.493V33.4988C106.285 33.4527 108.092 33.3146 109.946 33.069C116.167 32.2403 122.689 30.1537 129.602 26.2252C201.157 -14.3016 259.418 -3.29896 292.132 28.3428C296.155 32.2403 299.8 36.4603 303.036 40.9258C316.943 60.1533 323.227 84.1071 320.1 108.199Z" fill="#F5F6FA"/>
<path d="M246.237 109.719H104.493V109.658L246.237 109.183L309.668 108.967C309.718 108.633 311.051 108.56 312.747 108.558H312.752C313.312 108.558 313.912 108.567 314.519 108.577H314.545C314.611 108.578 314.676 108.579 314.741 108.58C314.781 108.581 314.821 108.581 314.86 108.582C315.582 108.593 316.305 108.604 316.973 108.604C318.671 108.604 320.015 108.531 320.098 108.2C320.099 108.195 320.1 108.19 320.1 108.185C320.186 107.52 320.266 106.856 320.338 106.193C320.663 103.191 320.846 100.191 320.88 97.2081C320.883 96.9667 320.886 96.7273 320.887 96.4858C320.89 100.55 320.638 104.629 320.1 108.722C320.056 109.066 318.696 109.141 316.974 109.141C316.307 109.141 315.583 109.13 314.861 109.119C314.139 109.107 313.418 109.096 312.752 109.096C311.053 109.096 309.718 109.17 309.668 109.505L246.237 109.719Z" fill="#F3F8FC"/>
<path d="M314.671 108.63C314.606 108.628 314.541 108.627 314.475 108.626C314.541 108.627 314.606 108.628 314.671 108.63ZM314.449 108.626C313.843 108.617 313.242 108.608 312.683 108.608C313.242 108.608 313.843 108.617 314.449 108.626ZM312.677 108.608H312.681H312.677ZM320.028 108.25C320.029 108.244 320.03 108.24 320.03 108.235C320.03 108.24 320.029 108.244 320.028 108.25ZM320.03 108.235C320.116 107.571 320.195 106.906 320.267 106.242C320.195 106.906 320.116 107.57 320.03 108.235ZM320.81 97.2579C320.814 96.9217 320.816 96.5856 320.816 96.2505V96.5356C320.815 96.7771 320.813 97.0164 320.81 97.2579Z" fill="#EEF5FB"/>
<path d="M292.995 51.3209V109.21H109.951V58.8358H123.982V45.0874H138.014V63.661H149.373V59.5112H169.16V66.5268H177.773V50.7703H200.824V23.7488H219.052V38.1605H223.209V26.088H241.437V44.6842H257.957V33.2722H275.625V44.6842H278.919V51.3209H292.995Z" fill="#E8F0FD"/>
<path d="M83.285 56.4029H67.008C66.2607 56.4029 65.6494 55.8058 65.6494 55.076V39.7331C65.6494 39.0033 66.2607 38.4062 67.008 38.4062H83.285C84.0323 38.4062 84.6436 39.0033 84.6436 39.7331V55.076C84.6436 55.8058 84.0323 56.4029 83.285 56.4029Z" fill="#C0D8FB"/>
<path d="M82.7195 55.6272H67.8527C67.1703 55.6272 66.6118 55.0819 66.6118 54.4154V40.4018C66.6118 39.7352 67.1703 39.1899 67.8527 39.1899H82.7195C83.4019 39.1899 83.9604 39.7352 83.9604 40.4018V54.4154C83.9604 55.0819 83.4019 55.6272 82.7195 55.6272Z" fill="#DFEBFD"/>
<path d="M74.7983 40.8283C74.7983 40.6161 74.9745 40.4441 75.1917 40.4441C75.409 40.4441 75.5851 40.6161 75.5851 40.8283C75.5851 41.0407 75.409 41.2127 75.1917 41.2127C74.9745 41.2127 74.7983 41.0407 74.7983 40.8283Z" fill="#B7D3F3"/>
<path d="M78.058 41.3474C78.1634 41.1618 78.403 41.095 78.5929 41.1981C78.7828 41.3012 78.8512 41.5351 78.7456 41.7207C78.6401 41.9062 78.4006 41.973 78.2107 41.8699C78.0207 41.7668 77.9523 41.5329 78.058 41.3474Z" fill="#B7D3F3"/>
<path d="M80.7573 43.4837C80.94 43.3688 81.1834 43.42 81.3011 43.5983C81.419 43.7767 81.3665 44.0144 81.1838 44.1295C81.0013 44.2446 80.7578 44.1934 80.64 44.015C80.5222 43.8367 80.5748 43.5988 80.7573 43.4837Z" fill="#B7D3F3"/>
<path d="M82.0936 46.7144C82.3109 46.7144 82.487 46.8864 82.487 47.0986C82.487 47.3108 82.3109 47.4828 82.0936 47.4828C81.8763 47.4828 81.7002 47.3108 81.7002 47.0986C81.7002 46.8864 81.8763 46.7144 82.0936 46.7144Z" fill="#B7D3F3"/>
<path d="M81.409 50.511C81.5626 50.6611 81.5626 50.9044 81.409 51.0544C81.2553 51.2045 81.0062 51.2045 80.8526 51.0544C80.6989 50.9044 80.6989 50.6611 80.8526 50.511C81.0062 50.3609 81.2553 50.3609 81.409 50.511Z" fill="#B7D3F3"/>
<path d="M78.8405 52.9406C78.9942 53.0907 78.9942 53.334 78.8405 53.4841C78.687 53.6341 78.4378 53.6341 78.2842 53.4841C78.1305 53.334 78.1305 53.0907 78.2842 52.9406C78.4378 52.7906 78.687 52.7906 78.8405 52.9406Z" fill="#B7D3F3"/>
<path d="M74.7983 54.1528C74.7983 53.9406 74.9745 53.7686 75.1917 53.7686C75.409 53.7686 75.5851 53.9406 75.5851 54.1528C75.5851 54.3649 75.409 54.537 75.1917 54.537C74.9745 54.537 74.7983 54.3649 74.7983 54.1528Z" fill="#B7D3F3"/>
<path d="M72.4859 41.3474C72.3803 41.1618 72.1408 41.095 71.9509 41.1981C71.761 41.3012 71.6926 41.5351 71.7982 41.7207C71.9036 41.9062 72.1432 41.973 72.3332 41.8699C72.523 41.7668 72.5914 41.5329 72.4859 41.3474Z" fill="#B7D3F3"/>
<path d="M69.6268 43.4837C69.4442 43.3688 69.2007 43.42 69.0829 43.5983C68.9651 43.7767 69.0176 44.0144 69.2002 44.1295C69.3828 44.2446 69.6263 44.1934 69.7441 44.015C69.8619 43.8367 69.8093 43.5988 69.6268 43.4837Z" fill="#B7D3F3"/>
<path d="M68.29 46.7144C68.0727 46.7144 67.8965 46.8864 67.8965 47.0986C67.8965 47.3108 68.0727 47.4828 68.29 47.4828C68.5073 47.4828 68.6834 47.3108 68.6834 47.0986C68.6834 46.8864 68.5073 46.7144 68.29 46.7144Z" fill="#B7D3F3"/>
<path d="M68.975 50.511C68.8215 50.6611 68.8215 50.9044 68.975 51.0544C69.1287 51.2045 69.3778 51.2045 69.5315 51.0544C69.685 50.9044 69.685 50.6611 69.5315 50.511C69.3778 50.3609 69.1287 50.3609 68.975 50.511Z" fill="#B7D3F3"/>
<path d="M71.5429 52.9406C71.3893 53.0907 71.3893 53.334 71.5429 53.4841C71.6966 53.6341 71.9458 53.6341 72.0993 53.4841C72.253 53.334 72.253 53.0907 72.0993 52.9406C71.9458 52.7906 71.6966 52.7906 71.5429 52.9406Z" fill="#B7D3F3"/>
<path d="M75.1196 47.0986C75.1196 46.8864 75.2957 46.7144 75.513 46.7144C75.7303 46.7144 75.9064 46.8864 75.9064 47.0986C75.9064 47.3108 75.7303 47.4828 75.513 47.4828C75.2957 47.4828 75.1196 47.3108 75.1196 47.0986Z" fill="#B7D3F3"/>
<path d="M75.5475 42.3252H75.4404V47.1257H75.5475V42.3252Z" fill="#B7D3F3"/>
<path d="M75.4793 47.2354L75.2803 46.9879L77.8859 44.99L78.0847 45.2376L75.4793 47.2354Z" fill="#B7D3F3"/>
<path d="M109.943 33.0764V108.807H99.0361V33.3487C102.57 33.6302 106.2 33.5797 109.943 33.0764Z" fill="#DEEDFF"/>
<path d="M303.038 40.9582V108.83H292.132V28.3735C296.163 32.2739 299.805 36.4884 303.038 40.9582Z" fill="#DEEDFF"/>
<path d="M328.222 109.857H0.474249C0.213488 109.857 0 109.649 0 109.395V108.94C0 108.686 0.213488 108.478 0.474249 108.478H328.222C328.482 108.478 328.696 108.686 328.696 108.94V109.395C328.696 109.649 328.482 109.857 328.222 109.857Z" fill="#2E5B9A"/>
<path d="M118.923 82.064H117.174L119.316 108.542H123.57L118.923 82.064Z" fill="#B7D3F3"/>
<path d="M153.603 74.3808L153.229 74.4553C151.556 74.785 149.912 73.7191 149.573 72.0862L149.177 70.1693C148.839 68.5365 149.931 66.9302 151.602 66.5993L151.978 66.5259C153.65 66.1962 155.295 67.2621 155.632 68.895L156.029 70.8119C156.367 72.4447 155.275 74.051 153.603 74.3808Z" fill="#122544"/>
<path d="M117.174 82.1001C117.174 82.1001 126.727 77.7205 139.816 80.6342L118.923 82.1001H117.174Z" fill="#B7D3F3"/>
<path d="M123.587 108.812L118.939 82.0807C118.939 82.0807 133.576 77.281 144.933 82.0807L151.688 108.643L123.587 108.812Z" fill="#D2E3FC"/>
<path d="M224.74 100.508C224.48 103.408 222.803 104.303 222.066 104.226C221.329 104.149 217.016 102.542 216.923 103.131C216.829 103.721 219.425 105.649 221.241 105.739C221.241 105.739 217.809 109.436 215.529 108.369C213.248 107.302 213.054 105.611 211.631 104.977C210.21 104.343 208.996 104.345 209.583 104.992C210.17 105.638 212.743 106.267 213.556 107.671C213.749 108.003 213.936 108.309 214.079 108.579L209.276 108.569C207.753 107.831 206.47 106.811 206.374 105.713C206.368 105.629 206.36 105.548 206.355 105.471L206.207 103.781C206.207 103.781 203.741 100.972 205.023 98.6409C205.235 98.2537 205.551 97.8792 206 97.5335C206 97.5335 208.298 96.174 210.173 96.2857C210.173 96.2857 208.72 98.6632 208.311 100.077C208.166 100.576 208.152 100.954 208.375 101.066C208.62 101.19 208.937 100.831 209.265 100.256C210.087 98.8153 210.976 96.0123 210.976 96.0123C210.976 96.0123 212.359 95.8815 213.932 95.8613C214.637 95.8528 215.381 95.8655 216.056 95.924C216.801 95.9879 217.461 96.1059 217.89 96.307C217.89 96.307 217.796 96.3825 217.638 96.5112C217.404 96.7027 217.028 97.0144 216.61 97.375C215.369 98.4462 213.758 99.9578 214.361 100.093C214.848 100.204 216.379 99.3153 217.742 98.4334C219.01 97.6133 220.131 96.7984 220.131 96.7984C220.131 96.7984 224.999 97.608 224.74 100.508Z" fill="#82B378"/>
<path d="M222.292 100.584C222.292 100.584 209.07 100.086 206.151 103.778C206.151 103.778 205.505 105.668 203.518 107.388L203.208 108.212C203.208 108.212 205.5 105.853 206.319 105.71C206.319 105.71 205.037 101.135 222.292 100.584Z" fill="#82B378"/>
<path d="M204.154 107.371C204.041 107.492 203.871 107.657 203.628 107.876L203.622 107.881C203.538 107.957 203.456 108.039 203.376 108.127C203.254 108.259 203.137 108.405 203.024 108.559L202.406 108.558C203.042 107.793 203.597 107.392 203.597 107.392L203.599 107.391C203.647 107.362 204.787 106.69 204.154 107.371Z" fill="#82B378"/>
<path d="M191.796 99.0026C191.796 99.0026 197.13 96.0858 194.641 92.1264C194.641 92.1264 192.649 89.6947 190.515 89.0702C190.515 89.0702 191.653 94.9741 190.515 95.1135C189.377 95.2518 189.733 88.4447 189.733 88.4447C189.733 88.4447 184.113 85.8055 181.909 86.014C181.909 86.014 185.394 91.7786 184.256 91.6403C183.118 91.5009 179.206 85.6662 179.206 85.6662C179.206 85.6662 173.446 84.6248 172.521 87.9586C171.596 91.2924 173.089 92.9594 173.943 93.1679C174.796 93.3764 180.273 93.3072 180.131 94.0019C179.989 94.6965 176.291 95.8081 174.228 95.1826C174.228 95.1826 176.504 100.67 179.491 100.392C182.479 100.114 183.403 98.308 185.252 98.1697C187.101 98.0303 188.453 98.5165 187.528 99.0026C186.603 99.4887 183.474 99.1622 181.981 100.403C180.486 101.643 179.277 102.407 182.052 102.962C184.825 103.518 189.804 103.17 190.799 101.087L191.796 99.0026Z" fill="#A8D29F"/>
<path d="M175.119 88.9614C175.119 88.9614 190.055 93.6856 191.762 98.964C191.762 98.964 191.69 101.326 193.185 104.035V105.077C193.185 105.077 191.619 101.534 190.765 101.048C190.765 101.048 194.108 96.4642 175.119 88.9614Z" fill="#82B378"/>
<path d="M194.552 108.53L193.698 108.529C193.672 107.323 193.529 105.97 193.108 104.939V104.938C193.054 104.808 192.998 104.685 192.936 104.567L192.934 104.563C192.757 104.224 192.637 103.974 192.562 103.793H192.561C192.124 102.748 193.169 104.032 193.169 104.032C193.169 104.032 194.42 105.889 194.552 108.53Z" fill="#82B378"/>
<path d="M200.287 94.9868C200.287 94.9868 193.255 91.1413 196.537 85.9225C196.537 85.9225 199.162 82.7173 201.975 81.8929C201.975 81.8929 200.475 89.6765 201.975 89.8595C203.474 90.0424 203.006 81.0696 203.006 81.0696C203.006 81.0696 210.413 77.59 213.319 77.8644C213.319 77.8644 208.726 85.464 210.226 85.281C211.725 85.098 216.882 77.407 216.882 77.407C216.882 77.407 224.476 76.0337 225.695 80.4281C226.914 84.8236 224.945 87.0213 223.82 87.2958C222.695 87.5702 215.476 87.4788 215.663 88.3947C215.85 89.3095 220.726 90.7754 223.444 89.9509C223.444 89.9509 220.445 97.1845 216.507 96.8175C212.57 96.4516 211.351 94.0709 208.913 93.8879C206.475 93.705 204.693 94.3453 205.912 94.9868C207.131 95.6282 211.257 95.1964 213.225 96.8314C215.195 98.4664 216.788 99.4738 213.132 100.206C209.475 100.939 202.912 100.48 201.6 97.7334L200.287 94.9868Z" fill="#A8D29F"/>
<path d="M222.206 81.7505C222.206 81.7505 202.519 87.9767 200.268 94.9358C200.268 94.9358 200.362 98.0495 198.393 101.619V102.994C198.393 102.994 200.456 98.3239 201.581 97.6825C201.581 97.6825 197.174 91.6392 222.206 81.7505Z" fill="#82B378"/>
<path d="M199.105 101.335L199.104 101.338C199.005 101.577 198.847 101.907 198.612 102.354L198.61 102.357C198.53 102.513 198.455 102.675 198.386 102.846L198.385 102.847C197.711 104.496 197.578 106.773 197.603 108.567L196.473 108.564C196.338 104.568 198.304 101.651 198.304 101.651H198.305C198.335 101.615 199.673 99.9756 199.105 101.335Z" fill="#82B378"/>
<path d="M165.189 108.636H138.444C138.048 107.701 137.702 106.7 137.398 105.66C136.636 103.055 136.141 100.185 135.827 97.373C135.823 97.3379 135.819 97.3006 135.814 97.2645C135.275 92.3882 135.272 87.698 135.345 84.8801C135.387 83.2494 135.453 82.2452 135.457 82.1963V82.1952C135.514 82.1718 135.571 82.1495 135.628 82.1271C137.047 81.5452 138.407 81.0442 139.711 80.6112L139.721 80.6081C140.817 80.2432 141.873 79.9283 142.888 79.6571C144.672 79.1784 146.332 78.8348 147.868 78.5954C149.677 78.3167 151.315 78.1837 152.783 78.1529C152.85 78.1508 152.914 78.1508 152.981 78.1486C153.368 78.1423 153.743 78.1433 154.106 78.1518C157.768 78.2284 160.203 78.9401 161.435 79.4145C161.607 79.4805 161.754 79.5422 161.876 79.5975C161.893 79.6039 161.909 79.6103 161.925 79.6177C162.065 79.6783 162.173 79.7294 162.248 79.7666L162.277 79.7826C162.314 79.8007 162.349 79.8198 162.383 79.84L164.312 99.6345L165.189 108.636Z" fill="#2B478B"/>
<path d="M191.952 104.328C189.272 105.543 173.333 106.562 171.803 106.132C171.018 105.911 167.732 103.085 164.426 99.6073L164.424 99.6052C161.294 96.3161 158.141 92.444 157.077 89.658C154.888 83.9339 156.77 78.8501 156.77 78.8501C156.77 78.8501 160.837 78.8331 162.495 79.8107C164.152 80.7915 173.632 97.8404 174.899 98.2904C176.167 98.7425 191.181 99.5808 192.9 100.378C192.9 100.378 194.629 103.114 191.952 104.328Z" fill="#2B478B"/>
<path d="M152.969 78.8409L152.966 79.8058C152.966 79.8058 153.239 82.8194 149.439 83.2651C145.641 83.7119 142.759 82.0993 142.858 79.7739C143.198 77.9719 143.571 76.7347 143.594 75.2444C143.603 74.6901 143.563 74.1029 143.456 73.4392L150.82 73.2849L152.99 73.6274L152.969 78.8409Z" fill="#EA9E6A"/>
<path d="M153.032 73.6299L153.011 78.8434C152.23 79.2009 151.348 79.4189 150.358 79.42C146.974 79.4253 143.604 74.1054 143.498 73.4417L153.032 73.6299Z" fill="#D88D59"/>
<path d="M153.48 76.1782C153.48 76.1782 144.05 78.0536 142.945 72.3008C141.84 66.548 139.879 62.9152 145.852 61.4749C151.826 60.0345 153.421 62.0142 154.268 63.8471C155.115 65.6799 155.904 75.5421 153.48 76.1782Z" fill="#EA9E6A"/>
<path d="M156.13 59.5453C156.13 59.5453 153.5 59.3517 150.396 58.0394C147.875 56.974 144.701 58.1562 143.671 58.689C143.698 58.5262 143.763 58.3044 143.921 58.0821C143.921 58.0821 143.458 58.4039 143.391 58.8517C143.343 58.8857 143.322 58.9102 143.334 58.9177C143.334 58.9177 142.809 58.8251 142.473 58.973C142.473 58.973 142.708 58.94 142.793 59.0879C142.802 59.1038 142.815 59.1176 142.831 59.1293C138.905 60.9888 138.552 67.0512 139.818 68.4522C141.342 70.1382 143.172 73.9359 143.172 73.9359C143.172 73.9359 143.835 73.037 143.556 71.552C143.278 70.068 144.591 70.0659 146.249 69.3883C147.907 68.7107 146.521 66.8225 147.971 65.6726C149.421 64.5226 154.745 65.1896 154.674 64.312C156.649 63.6057 156.13 59.7431 156.13 59.5453Z" fill="#8E342E"/>
<path d="M138.422 108.663C138.027 107.728 137.681 106.727 137.377 105.686C136.614 103.081 136.12 100.211 135.806 97.3997C135.802 97.3646 135.797 97.3274 135.793 97.2912C135.814 97.3008 135.847 97.355 135.869 97.3284C136.911 96.0934 139.753 94.7414 143.195 99.6634C143.883 100.643 146.894 107.515 147.375 108.663H138.422Z" fill="#233862"/>
<path d="M141.277 108.628C141.199 108.184 141.284 107.625 141.64 106.928C141.64 106.928 142.081 106.648 142.667 106.322C143.54 105.842 144.734 105.26 145.275 105.352C145.372 105.37 145.503 105.398 145.659 105.434C146.942 105.735 149.934 106.635 150.386 107.163C150.759 107.596 151.266 108.148 151.616 108.628H141.277Z" fill="#EA9E6A"/>
<path d="M143.225 108.631H118.026C117.958 108.315 117.955 108.023 118.044 107.803C118.796 105.949 120.263 102.897 121.952 99.6217C123.195 97.2122 124.558 94.6815 125.843 92.4189C127.628 89.2766 129.264 86.648 130.225 85.5704C130.982 84.7226 131.94 84.0109 132.936 83.4248C133.783 82.9269 134.658 82.5185 135.465 82.1908V82.1898C135.522 82.1664 135.58 82.144 135.636 82.1217C137.391 81.427 138.782 81.1228 138.782 81.1228C138.782 81.1228 138.802 81.9004 138.803 83.095C138.808 86.564 138.672 93.555 137.538 95.2602C137.222 95.7357 136.634 96.4538 135.899 97.2963C135.877 97.3207 135.856 97.3441 135.836 97.3675C135.437 97.8239 134.996 98.3143 134.533 98.8185C131.903 101.696 128.572 105.076 128.166 105.486C128.137 105.514 128.124 105.529 128.124 105.529H128.173L135.239 105.624L137.406 105.654L141.899 105.714C142.21 105.845 142.452 106.06 142.637 106.326C143.071 106.947 143.205 107.851 143.225 108.631Z" fill="#2B478B"/>
<path d="M191.89 104.364C189.211 105.579 173.272 106.598 171.742 106.168C170.956 105.947 167.67 103.12 164.364 99.6429C164.528 99.6642 166.039 97.2026 172.933 103.092C172.933 103.092 174.738 103.877 179.65 103.437C184.564 102.998 190.873 102.836 191.89 104.364Z" fill="#233862"/>
<path d="M176.164 108.563H157.943C157.943 107.781 158.594 107.146 159.396 107.146H176.164V108.563Z" fill="#B24940"/>
<path d="M176.119 89.1963H204.289L197.532 108.576H169.18L176.119 89.1963Z" fill="#B24940"/>
<path d="M204.77 89.1963L198.014 108.576H169.661L176.601 89.1963H204.77Z" fill="#C65447"/>
<path d="M189.618 98.6893C189.443 99.4297 188.687 100.03 187.929 100.03C187.17 100.03 186.697 99.4297 186.872 98.6893C187.048 97.9479 187.804 97.3479 188.562 97.3479C189.321 97.3479 189.793 97.9479 189.618 98.6893Z" fill="#F9DDBF"/>
<path d="M204.695 89.1963L197.939 108.576H184.75L200.548 89.1963H204.695Z" fill="#B24940"/>
<path d="M145.738 74.3808L145.363 74.4553C143.69 74.785 142.047 73.7191 141.708 72.0862L141.312 70.1693C140.974 68.5365 142.065 66.9302 143.737 66.5993L144.113 66.5259C145.785 66.1962 147.429 67.2621 147.767 68.895L148.163 70.8119C148.502 72.4447 147.41 74.051 145.738 74.3808Z" fill="#122544"/>
<path d="M142.813 67.4384C142.562 66.9948 142.193 63.4269 143.197 60.5867C143.682 59.2134 144.467 58.4304 145.452 57.902C145.808 57.7109 146.207 57.6089 146.613 57.6089L147.603 57.6249C144.344 58.9719 143.588 66.181 143.842 66.9501C143.835 66.9257 143.825 66.9086 143.817 66.8959L142.813 67.4384Z" fill="#122544"/>
<path d="M152.194 74.9475C146.716 74.9475 144.007 70.7201 143.979 70.6775L144.47 70.385L144.225 70.5318L144.469 70.385C144.495 70.4254 147.046 74.3869 152.194 74.3869C152.227 74.3869 152.262 74.3869 152.297 74.3858L152.303 74.9464C152.267 74.9464 152.23 74.9475 152.194 74.9475Z" fill="#122544"/>
<path d="M144.77 72.4475L144.584 72.4847C143.75 72.6485 142.931 72.1177 142.763 71.3039L142.565 70.3487C142.397 69.5349 142.941 68.7349 143.773 68.5701L143.961 68.5339C144.794 68.369 145.613 68.9009 145.782 69.7136L145.979 70.6689C146.147 71.4826 145.603 72.2826 144.77 72.4475Z" fill="#2B478B"/>
<path d="M152.999 75.1596H152.483C152.221 75.1596 152.005 74.949 152.005 74.6926C152.005 74.4352 152.221 74.2256 152.483 74.2256H152.999C153.263 74.2256 153.477 74.4352 153.477 74.6926C153.477 74.949 153.263 75.1596 152.999 75.1596Z" fill="#122544"/>
<path d="M43.4094 66.7927C43.4094 66.7927 38.8142 69.0873 42.1627 74.0157C42.1627 74.0157 38.2148 74.4614 37.2219 73.353C37.2219 73.353 37.3715 73.838 37.5461 74.0742C37.5461 74.0742 33.7215 73.5849 32.3512 72.169C30.9807 70.7542 35.2541 51.9228 45.4409 55.7764C45.4409 55.7764 54.4981 56.5831 51.9277 66.5534C49.3574 76.523 52.7342 77.0772 52.7342 77.0772C52.7342 77.0772 51.7173 77.375 51.2638 77.3006C51.2638 77.3006 50.6437 76.9453 50.5744 76.5666C50.5744 76.5666 50.6086 77.1495 50.7479 77.357C50.7479 77.357 47.0448 77.0963 45.4558 75.4539C43.8668 73.8114 42.5315 68.7926 43.4094 66.7927Z" fill="#8E342E"/>
<path d="M49.9607 71.6821L49.5929 71.7321C47.9549 71.9533 46.4288 70.8268 46.2015 69.2269L45.9348 67.3483C45.7076 65.7484 46.8618 64.2581 48.4999 64.0357L48.8677 63.9857C50.5056 63.7645 52.0318 64.8921 52.259 66.492L52.5258 68.3695C52.7531 69.9694 51.5987 71.4597 49.9607 71.6821Z" fill="#ED7D2B"/>
<path d="M50.9028 86.7286C49.5317 87.7626 48.6642 91.4943 46.4534 92.1102C38.1663 94.4207 33.7179 84.8096 32.2627 80.1184C33.3729 79.4227 34.4416 79.228 35.0594 79.1248C35.6617 79.0238 36.2969 78.9461 36.8234 78.894C37.7282 78.143 38.9808 75.1899 39.0572 70.6987L39.4572 70.7828L46.1584 72.2199C46.1584 72.2199 45.963 74.2868 45.9158 76.2335C45.8804 77.7568 45.8299 78.1206 45.9501 78.3025C46.4717 78.3855 47.0858 79.6875 47.0858 79.6875L47.0894 79.6929C47.1855 79.8311 49.2638 82.815 50.9028 86.7286Z" fill="#FFB27D"/>
<path d="M46.1871 72.2145C46.1871 72.2145 45.9903 74.2793 45.9445 76.2281C42.1814 76.0483 40.2621 72.6528 39.4858 70.7773L46.1871 72.2145Z" fill="#ED985F"/>
<path d="M80.3099 106.146C80.3099 106.146 76.3692 106.287 72.0898 106.302C71.5837 106.304 71.071 106.304 70.5611 106.302C67.076 106.287 63.6506 106.168 62.1936 105.801C60.7698 105.444 55.2925 101.817 50.9094 97.4262L50.9081 97.423C50.5682 98.2145 50.3118 98.8187 50.3051 98.8665C50.1763 99.8527 49.9612 100.841 49.7008 101.79C48.7073 105.409 47.0512 108.446 46.9941 108.551L44.6471 108.548L26.3237 108.521C26.3237 108.521 29.785 103.315 28.8552 89.9767C28.8313 89.6395 32.0456 78.8774 32.0456 78.8774C32.0456 78.8774 34.5425 78.4508 37.4286 78.2231C37.7008 78.4657 38.2613 85.5461 41.8713 85.9556C42.4583 86.0216 46.225 91.6404 46.225 91.6404L47.366 85.9014L46.0165 78.2859C47.7484 78.7806 48.6981 78.9593 50.1378 79.5209C51.118 79.9039 51.9295 80.6102 52.4356 81.5144C54.9578 86.0152 63.1432 100.533 63.9786 100.873C64.7609 101.189 67.7095 101.765 70.8293 102.322H70.8321C75.0064 103.065 79.4877 103.773 79.4877 103.773L80.3099 106.146Z" fill="#D2E3FC"/>
<path d="M47.4029 74.2137C47.4029 74.2137 38.492 74.0435 38.6862 68.6258C38.8804 63.208 37.8611 59.537 43.5587 59.4168C49.2563 59.2966 50.2869 61.4018 50.6725 63.2251C51.0581 65.0494 49.7258 74.1191 47.4029 74.2137Z" fill="#FFB27D"/>
<path d="M72.064 106.306C71.5579 106.308 71.0452 106.308 70.5352 106.306C67.0502 106.291 63.6248 106.172 62.1678 105.805C60.744 105.448 55.2667 101.822 50.8836 97.4303L50.8823 97.4271C50.8823 97.4271 51.8067 93.9709 52.2052 93.3922C52.6036 92.8125 54.1761 98.4366 57.8499 100.725C61.5236 103.013 67.2733 104.616 70.065 103.967C71.9457 103.53 72.1384 105.182 72.064 106.306Z" fill="#B7D3F3"/>
<path d="M45.585 71.2102C45.585 71.2102 45.6419 71.8581 47.103 71.9612C47.103 71.9612 48.3298 72.0474 48.3807 71.3496C48.3807 71.3496 47.2641 70.6943 45.585 71.2102Z" fill="white"/>
<path d="M46.1234 73.3574C41.0608 71.7958 39.8191 67.1152 39.8071 67.0674L40.3471 66.9365L40.0771 67.0025L40.3469 66.9365C40.3584 66.9812 41.5335 71.3714 46.2913 72.8394C46.3231 72.85 46.3549 72.8596 46.3871 72.8691L46.225 73.3883C46.1912 73.3787 46.1571 73.368 46.1234 73.3574Z" fill="#122544"/>
<path d="M46.7075 73.7683L46.23 73.6205C45.987 73.546 45.8509 73.2896 45.9277 73.0524C46.0045 72.8152 46.2662 72.6822 46.5094 72.7578L46.9867 72.9046C47.2299 72.979 47.366 73.2354 47.2892 73.4726C47.2124 73.7098 46.9506 73.8428 46.7075 73.7683Z" fill="#ED7D2B"/>
<path d="M47.8188 58.6572C47.8188 58.6572 45.5375 65.2568 42.1157 66.377C38.6941 67.4961 37.5591 66.1706 37.5591 66.1706C37.5591 66.1706 40.0808 63.909 40.37 60.2486C40.37 60.2486 45.8986 55.959 47.8188 58.6572Z" fill="#8E342E"/>
<path d="M43.6592 60.6252C43.6592 60.6252 48.3048 60.3709 49.693 61.6634C50.6943 62.5942 50.6707 63.0814 50.7486 64.3228C50.7486 64.3228 52.7801 61.2624 50.6898 59.1199C48.4732 56.8483 43.6592 60.6252 43.6592 60.6252Z" fill="#8E342E"/>
<path d="M47.6306 59.4061C47.6306 59.4061 46.4674 65.7206 42.2144 68.0141C42.2144 68.0141 46.3335 63.8963 46.4066 59.7763C46.4797 55.6568 47.6306 59.4061 47.6306 59.4061Z" fill="#8E342E"/>
<path d="M32.351 72.1694C33.7209 73.5853 37.5455 74.0757 37.5455 74.0757C37.3706 73.8395 37.2223 73.3534 37.2223 73.3534C39.1881 74.9096 44.0153 73.7789 44.0153 73.7789C40.1645 72.9491 41.4115 67.5218 42.7211 67.2899C43.4845 63.1965 44.9982 58.101 45.7071 55.8124C45.5366 55.7852 45.4401 55.7763 45.4401 55.7763C35.2542 51.9229 30.9811 70.7546 32.351 72.1694Z" fill="#8E342E"/>
<path d="M40.6507 71.1335L40.283 71.1835C38.6449 71.4047 37.1188 70.2772 36.8915 68.6773L36.6247 66.7997C36.3975 65.1998 37.5518 63.7095 39.1898 63.4871L39.5575 63.4372C41.1957 63.2148 42.7217 64.3424 42.949 65.9423L43.2157 67.8209C43.4429 69.4208 42.2887 70.9112 40.6507 71.1335Z" fill="#ED7D2B"/>
<path d="M38.2389 64.2433C38.0203 63.8423 38.7872 60.7318 39.9149 58.3192C40.4597 57.1529 41.8353 55.5919 42.8169 55.1896C43.172 55.0441 43.6431 55.1037 44.0273 55.1884C44.3065 55.2501 45.0893 55.6068 45.0893 55.6068C41.8625 56.5891 39.0585 63.1934 39.2618 63.8774C39.2556 63.8561 39.2467 63.8412 39.2404 63.8295L38.2389 64.2433Z" fill="#ED7D2B"/>
<path d="M39.9009 69.2958L39.7177 69.3202C38.9015 69.4309 38.1411 68.8692 38.028 68.0724L37.8951 67.1363C37.7818 66.3396 38.3569 65.5971 39.1731 65.4864L39.3564 65.4609C40.1724 65.3503 40.9329 65.913 41.046 66.7098L41.179 67.6459C41.2922 68.4426 40.7171 69.1851 39.9009 69.2958Z" fill="#F99746"/>
<path d="M61.6362 103.015C61.6362 103.015 65.457 102.8 65.8285 102.995C66.4314 103.313 68.4837 104.604 68.8055 104.979C69.1272 105.354 69.9694 106.859 69.9694 106.859C69.9694 106.859 69.6048 106.958 69.4401 106.813C69.2753 106.67 68.0289 105.375 68.0289 105.375L69.3095 107.275C69.3095 107.275 68.8668 107.256 68.6911 107.067C68.5155 106.879 67.3189 105.69 67.3189 105.69L66.9112 105.612C66.9112 105.612 67.3262 105.937 67.5516 106.231C67.7769 106.526 67.9261 106.842 67.9261 106.842C67.9261 106.842 67.5611 106.782 67.4474 106.729C67.3337 106.676 66.2607 105.758 66.2607 105.758L66.8295 106.516C66.8295 106.516 66.446 106.498 66.3201 106.414C66.1942 106.331 65.3583 105.579 65.21 105.581C65.0616 105.582 63.9947 105.54 63.5366 105.303C63.0784 105.065 61.64 104.522 61.64 104.522L61.6362 103.015Z" fill="#FFB27D"/>
<path d="M37.969 77.2043C37.969 77.2043 35.4136 77.932 34.8311 78.5053C34.8311 78.5053 37.5025 85.1741 41.3542 88.2877L42.3836 87.5739V89.1962L46.2396 91.6598C46.2396 91.6598 37.7714 79.2212 37.969 77.2043Z" fill="#B7D3F3"/>
<path d="M49.634 101.811C48.6405 105.43 46.9844 108.467 46.9273 108.572L48.2355 108.573L46.9233 108.577H34.7501L36.1597 108.569C36.1265 108.448 38.2184 102.91 34.7501 100.639C31.2755 98.3652 30.0156 92.7751 30.0156 92.7751L41.0713 90.137C41.0713 90.137 45.6268 96.6291 46.9233 97.8663C47.9186 98.8162 50.2383 98.8875 50.2383 98.8875L49.634 101.811Z" fill="#B7D3F3"/>
<path d="M45.9679 78.3053C45.9679 78.3053 47.1439 87.3793 46.1767 91.6598C46.1767 91.6598 47.7549 88.8281 47.9762 88.309L47.7106 86.7527L48.7287 87.0984C48.7287 87.0984 47.8307 79.8638 47.0181 78.5958C46.2055 77.3267 45.9062 77.2043 45.9062 77.2043L45.9679 78.3053Z" fill="#B7D3F3"/>
<path d="M80.3609 106.188C80.3609 106.188 75.4313 106.367 70.6131 106.345C69.4179 104.534 70.8814 102.364 70.8814 102.364H70.8841C75.058 103.108 79.5389 103.815 79.5389 103.815L80.3609 106.188Z" fill="#FFB27D"/>
<path d="M80.82 108.563H62.5996C62.5996 107.781 63.25 107.146 64.0521 107.146H80.82V108.563Z" fill="#ED7D2B"/>
<path d="M108.945 89.1963L102.188 108.576H73.8354L80.7754 89.1963H108.945Z" fill="#ED7D2B"/>
<path d="M108.851 89.1963L102.157 108.397L102.095 108.576H74.1567L81.0965 89.1963H108.851Z" fill="#F99746"/>
<path d="M94.1128 98.6893C93.9378 99.4297 93.1814 100.03 92.4233 100.03C91.6651 100.03 91.1925 99.4297 91.3675 98.6893C91.5425 97.9479 92.299 97.3479 93.057 97.3479C93.8152 97.3479 94.2878 97.9479 94.1128 98.6893Z" fill="#FFC397"/>
<path d="M108.936 89.1963L102.242 108.397H89.4053L105.057 89.1963H108.936Z" fill="#ED7D2B"/>
<path d="M61.5932 104.569C61.5932 104.569 52.2136 105.369 47.0298 105.144V100.169C50.4259 101.085 61.5892 103.062 61.5892 103.062L61.5932 104.569Z" fill="#FFB27D"/>
<path d="M34.777 78.5366C34.777 78.5366 29.4131 78.6558 27.7528 80.4067C26.0926 82.1577 29.4002 92.0549 29.4002 92.0549C29.4002 92.0549 39.3985 104.014 44.4002 104.857C44.4002 104.857 46.5862 105.149 47.6065 105.165C47.6065 105.165 46.606 102.32 48.4668 100.535C48.4668 100.535 46.3251 99.9502 46.2366 99.6906C46.148 99.4311 34.777 78.5366 34.777 78.5366Z" fill="#D2E3FC"/>
<path d="M259.024 55.9956C259.024 55.9956 253.591 54.0215 250.197 57.8972C248.25 60.1191 235.806 83.289 235.954 85.3176C236.103 87.3462 237.289 88.3599 237.289 88.3599C237.289 88.3599 236.771 86.5856 237.16 85.6612C237.16 85.6612 236.909 88.7854 238.885 90.1162C239.913 90.8098 265.532 89.4524 267.758 86.4217C272.599 79.8339 262.028 76.4245 262.287 69.3068C262.439 65.1794 266.59 56.4122 259.024 55.9956Z" fill="#2C3A64"/>
<path d="M264.219 70.7699L263.856 70.8412C262.235 71.1614 260.641 70.1274 260.313 68.5445L259.928 66.6861C259.6 65.1022 260.659 63.5459 262.28 63.2257L262.643 63.1533C264.265 62.8342 265.86 63.8671 266.186 65.4511L266.571 67.3095C266.899 68.8924 265.84 70.4497 264.219 70.7699Z" fill="#ED7D2B"/>
<path d="M287.481 108.514H270.483C267.6 104.044 265.065 98.0094 264.475 93.3097C264.193 91.0801 264.35 89.1504 265.113 87.8324C267.488 83.7369 263.721 78.9287 263.721 78.9287C263.721 78.9287 268.907 80.3616 270.112 84.5369C271.34 88.7898 274.636 102.937 274.636 102.937L287.257 105.473C287.851 106.922 287.481 108.514 287.481 108.514Z" fill="#F99746"/>
<path d="M287.368 108.525H270.371C267.488 104.056 264.953 98.0208 264.363 93.3211L266.884 92.5669C266.884 92.5669 270.074 106.787 271.929 107.005C273.782 107.222 287.368 108.525 287.368 108.525Z" fill="#ED7D2B"/>
<path d="M266.21 85.6734C264.906 86.7872 263.224 87.7733 261.057 88.5201C252.931 91.3241 248.937 84.7894 247.188 80.194C248.253 79.4334 249.307 79.1749 249.917 79.0345C250.512 78.8983 251.141 78.7824 251.663 78.6983C252.519 77.8941 253.583 74.872 253.377 70.385L253.782 70.4446L260.561 71.4764C260.561 71.4764 260.496 73.5508 260.571 75.4964C260.632 77.0197 260.781 78.4643 261.114 78.7856C261.64 78.8377 261.956 78.8739 261.956 78.8739L261.961 78.8802C262.065 79.0111 264.327 81.8652 266.21 85.6734Z" fill="#FFB27D"/>
<path d="M260.548 71.4957C260.548 71.4957 260.481 73.569 260.559 75.5157C256.791 75.5625 254.662 72.2893 253.769 70.4639L260.548 71.4957Z" fill="#ED985F"/>
<path d="M269.41 92.5627C269.391 92.7052 267.58 98.4581 267.56 98.6017C266.932 103.418 265.793 108.557 265.793 108.557L263.305 108.552L246.879 108.521C246.879 108.521 248.86 102.681 243.633 93.7286C243.461 93.435 243.282 93.1382 243.095 92.8382C242.351 91.6447 247.048 78.8774 247.048 78.8774C247.048 78.8774 249.105 78.5221 251.99 78.2944C252.263 78.538 254.266 85.6982 257.893 85.9163C262.628 86.2014 260.833 78.2231 260.833 78.2231C262.762 78.6008 263.457 78.7391 265.933 79.8975C265.933 79.8975 269.51 91.7766 269.41 92.5627Z" fill="#F99746"/>
<path d="M261.754 73.3899C261.754 73.3899 252.849 73.7548 252.702 68.3349C252.555 62.9161 251.307 59.3131 256.986 58.8515C262.665 58.3887 263.826 60.428 264.325 62.2257C264.825 64.0224 264.067 73.1548 261.754 73.3899Z" fill="#FFB27D"/>
<path d="M259.869 70.5089C259.869 70.5089 259.967 71.1535 261.432 71.1674C261.432 71.1674 262.661 71.1801 262.669 70.4812C262.669 70.4812 261.512 69.894 259.869 70.5089Z" fill="white"/>
<path d="M260.469 72.6852C255.318 71.4299 253.784 66.8324 253.769 66.7866L254.299 66.6239L254.035 66.7047L254.299 66.6228C254.314 66.6664 255.763 70.9779 260.604 72.1576C260.637 72.1661 260.669 72.1735 260.701 72.181L260.573 72.7097C260.538 72.7012 260.503 72.6937 260.469 72.6852Z" fill="#122544"/>
<path d="M261.027 72.9629L260.541 72.8448C260.294 72.7842 260.142 72.5374 260.204 72.2959C260.265 72.0545 260.519 71.9055 260.766 71.9662L261.252 72.0842C261.499 72.1449 261.65 72.3917 261.589 72.6331C261.527 72.8746 261.274 73.0236 261.027 72.9629Z" fill="#2C3A64"/>
<path d="M256.628 55.4798C256.628 55.4798 262.361 54.6056 264.734 59.2676C266.54 62.8163 265.033 65.0321 264.325 65.7108C264.325 65.7108 263.39 60.6143 261.637 60.1792C261.637 60.1792 260.508 59.8431 259.736 60.7175C258.966 61.5919 257.852 65.4927 256.572 66.0895C256.572 66.0895 252.6 67.0479 252.405 65.6938C252.21 64.3396 252.319 60.125 253.32 59.4463C254.321 58.7665 256.628 55.4798 256.628 55.4798Z" fill="#2C3A64"/>
<path d="M254.91 70.7699L254.547 70.8412C252.926 71.1614 251.331 70.1274 251.004 68.5445L250.619 66.6861C250.291 65.1022 251.35 63.5459 252.971 63.2257L253.334 63.1533C254.956 62.8342 256.55 63.8671 256.877 65.4511L257.262 67.3095C257.589 68.8924 256.531 70.4497 254.91 70.7699Z" fill="#ED7D2B"/>
<path d="M252.114 64.0593C251.87 63.6732 251.513 60.5638 252.487 58.088C252.957 56.8912 253.717 56.2089 254.672 55.7483C255.017 55.5819 255.404 55.4929 255.798 55.4929L256.757 55.507C253.599 56.6813 252.866 62.9636 253.112 63.6338C253.104 63.6125 253.094 63.5976 253.088 63.587L252.114 64.0593Z" fill="#ED7D2B"/>
<path d="M254.011 68.8786L253.831 68.9148C253.022 69.0733 252.229 68.5584 252.065 67.7702L251.873 66.8437C251.71 66.0554 252.237 65.2789 253.045 65.1193L253.226 65.0842C254.034 64.9246 254.828 65.4395 254.992 66.2288L255.183 67.1543C255.347 67.9436 254.82 68.7191 254.011 68.8786Z" fill="#F99746"/>
<path d="M246.903 108.559C246.903 108.559 248.884 102.719 243.657 93.7662L245.604 91.3909C245.604 91.3909 249.051 100.926 253.359 103.707C257.659 106.481 262.718 105.902 263.329 108.59L246.903 108.559Z" fill="#ED7D2B"/>
<path d="M246.985 78.9282C246.985 78.9282 243.441 79.2293 241.068 83.3248C238.693 87.4202 234.187 102.724 234.187 108.572H253.158C253.158 108.572 253.53 106.98 252.936 105.531L241.196 103.318C241.196 103.318 248.262 93.071 248.337 88.651C248.411 84.2322 246.985 78.9282 246.985 78.9282Z" fill="#F99746"/>
<path d="M253.28 106.673C253.28 106.673 256.976 106.32 257.588 106.483C258.2 106.646 259.952 107.352 260.342 107.597C260.731 107.841 261.482 108.555 261.482 108.555C261.482 108.555 261.009 108.642 260.731 108.582C260.453 108.52 259.619 108.466 259.396 108.448C259.173 108.429 258.376 108.59 258.376 108.59H252.646L253.28 106.673Z" fill="#FFB27D"/>
<path d="M286.757 108.563H268.536C268.536 107.781 269.186 107.146 269.989 107.146H286.757V108.563Z" fill="#233862"/>
<path d="M314.881 89.1963L308.125 108.576H279.772L286.712 89.1963H314.881Z" fill="#233862"/>
<path d="M314.95 89.1963L308.255 108.397L308.193 108.576H280.254L287.195 89.1963H314.95Z" fill="#2B478B"/>
<path d="M300.21 98.6893C300.035 99.4297 299.278 100.03 298.52 100.03C297.762 100.03 297.289 99.4297 297.465 98.6893C297.64 97.9479 298.396 97.3479 299.154 97.3479C299.912 97.3479 300.385 97.9479 300.21 98.6893Z" fill="#F99746"/>
<path d="M314.873 89.1963L308.178 108.397H295.342L310.994 89.1963H314.873Z" fill="#233862"/>
</svg>
