<svg width="315" height="150" viewBox="0 0 315 150" fill="none" xmlns="http://www.w3.org/2000/svg">
<path d="M311.31 132.278C306.546 143.024 297.275 147.768 288.41 149.714H28.012C3.43091 140.598 -9.64935 74.3006 26.8019 58.1728C46.7763 49.3347 60.5356 47.8005 64.4191 33.8729C75.6924 -6.55806 107.083 -1.67698 132.576 3.20389C144.016 5.39415 154.268 7.58442 160.982 5.68012C201.425 -5.79576 217.463 18.2538 230.51 42.3035C242.328 64.0873 251.694 85.8713 274.521 81.2538C296.561 76.7967 325.299 100.722 311.31 132.278Z" fill="#F5F6FA"/>
<path d="M180.927 100.082C180.927 100.082 172.364 106.403 170.695 106.019C169.025 105.635 176.952 99.196 176.952 99.196C173.969 97.7724 164.697 98.6652 164.697 98.6652C164.697 98.6652 161.608 108.553 160.085 107.773C158.562 106.994 163.27 99.1567 163.27 99.1567C159.948 98.958 155.873 101.407 155.873 101.407C150.294 105.78 156.24 112.666 156.24 112.666C156.24 112.666 155.094 116.069 151.572 119.169C151.572 119.169 146.54 122.863 146.191 129.462L147.104 129.544C147.104 129.544 148.551 123.396 151.183 120.489C151.285 120.384 151.433 120.234 151.615 120.051C152.046 119.655 152.346 119.358 152.548 119.138C153.857 117.89 155.666 116.3 156.538 116.146C156.538 116.146 156.494 115.987 156.5 115.71C156.513 115.85 156.525 115.993 156.538 116.146C156.837 119.625 163.637 122.665 167.82 123.29C172.005 123.915 170.711 122.208 169.27 119.676C167.828 117.144 163.266 116.011 162.225 114.845C161.185 113.68 163.337 113.677 165.857 114.821C168.378 115.963 168.723 119.011 172.767 120.933C176.81 122.855 182.896 116.195 182.896 116.195C179.672 116.032 175.07 112.558 175.237 111.494C175.403 110.431 183.049 113.329 184.356 113.467C185.663 113.607 188.637 111.993 189.097 106.766C189.557 101.539 180.927 100.082 180.927 100.082Z" fill="#82B378"/>
<path d="M135.447 103.969C135.447 103.969 144.903 98.7115 140.491 91.5768C140.491 91.5768 136.96 87.1952 133.177 86.0686C133.177 86.0686 135.194 96.7085 133.177 96.9588C131.16 97.2092 131.79 84.9419 131.79 84.9419C131.79 84.9419 121.828 80.1858 117.92 80.5603C117.92 80.5603 124.098 90.9509 122.081 90.7005C120.063 90.4501 113.128 79.9344 113.128 79.9344C113.128 79.9344 102.915 78.0576 101.276 84.0656C99.6362 90.0746 102.284 93.078 103.798 93.4536C105.311 93.8292 115.02 93.704 114.768 94.9558C114.515 96.2077 107.958 98.2107 104.302 97.084C104.302 97.084 108.336 106.973 113.633 106.472C118.929 105.971 120.567 102.717 123.846 102.467C127.125 102.217 129.521 103.093 127.881 103.969C126.242 104.845 120.694 104.256 118.046 106.491C115.398 108.725 113.254 110.103 118.172 111.104C123.09 112.106 131.916 111.48 133.681 107.724L135.447 103.969Z" fill="#A8D29F"/>
<path d="M137.915 113.185C135.267 108.303 135.393 104.048 135.393 104.048C132.367 94.5336 105.888 86.0219 105.888 86.0219C139.554 99.5411 133.628 107.802 133.628 107.802C134.535 108.328 135.895 110.834 136.84 112.755C136.974 113.083 137.187 113.535 137.503 114.15C137.632 114.428 137.734 114.655 137.805 114.814C139.539 119.12 138.62 126.555 138.62 126.555L139.67 126.835C141.998 119.341 137.915 113.185 137.915 113.185Z" fill="#82B378"/>
<path d="M150.54 96.7906C150.54 96.7906 138.073 89.8608 143.89 80.4552C143.89 80.4552 148.545 74.6801 153.531 73.1951C153.531 73.1951 150.872 87.2205 153.531 87.5505C156.19 87.8806 155.36 71.7101 155.36 71.7101C155.36 71.7101 168.49 65.4398 173.643 65.9348C173.643 65.9348 165.498 79.6306 168.158 79.3006C170.817 78.9705 179.959 65.1098 179.959 65.1098C179.959 65.1098 193.422 62.6347 195.583 70.555C197.744 78.475 194.254 82.4354 192.259 82.931C190.265 83.4256 177.466 83.26 177.798 84.9102C178.13 86.5604 186.774 89.2007 191.594 87.7161C191.594 87.7161 186.275 100.751 179.295 100.091C172.313 99.431 170.153 95.1404 165.831 94.8114C161.51 94.4814 158.351 95.636 160.512 96.7906C162.673 97.9463 169.987 97.1693 173.477 100.116C176.967 103.061 179.793 104.876 173.31 106.196C166.828 107.516 155.193 106.692 152.866 101.741L150.54 96.7906Z" fill="#A8D29F"/>
<path d="M189.472 72.9279C189.472 72.9279 154.566 84.1479 150.577 96.6884C150.577 96.6884 150.743 102.299 147.253 108.734C147.253 108.734 141.87 116.849 144.938 126.727L146.323 126.358C146.323 126.358 145.113 116.557 147.398 110.881C147.491 110.672 147.626 110.372 147.796 110.006C148.212 109.196 148.493 108.599 148.67 108.168C149.914 105.634 151.708 102.331 152.903 101.639C152.903 101.639 145.091 90.7487 189.472 72.9279Z" fill="#82B378"/>
<path d="M129.745 95.6194C129.745 95.6194 150.377 89.7687 155.56 95.3349C160.1 100.211 172.411 119.513 173.059 130.936C173.689 142.036 161.853 149.335 149.678 149.335H128.055L129.745 95.6194Z" fill="#F1A34F"/>
<path d="M115.414 101.317C115.414 101.317 144.584 88.1618 150.109 96.7552C153.043 101.318 161.116 119.522 161.712 130.945C162.292 142.045 151.407 149.344 140.211 149.344H120.326L115.414 101.317Z" fill="#D16E24"/>
<path d="M57.8901 60.7787C57.8901 60.7787 94.1743 59.8036 108.024 59.834C115.149 59.8497 114.973 65.204 118.397 71.4079C125.253 83.8331 136.638 105.205 135.733 108.545C134.442 113.299 85.8723 116.59 82.4331 115.493C78.9949 114.396 57.8901 60.7787 57.8901 60.7787Z" fill="#E78B37"/>
<path d="M76.9008 99.6204C75.9284 96.7453 74.9593 93.8815 74.0112 91.0828C74.5878 72.6111 83.5499 64.6008 85.0934 64.0538C85.1643 64.0285 85.231 64.0165 85.2946 64.0165C86.7724 64.0165 86.3211 70.5142 86.3211 70.5142L117.631 95.7468L108.155 97.3101C108.013 97.068 107.88 96.8497 107.756 96.6563C106.395 94.5343 103.601 93.7335 100.162 93.7335C94.3908 93.7335 86.8047 95.9858 81.1258 98.0219C79.5417 98.5889 78.1066 99.1404 76.9008 99.6204Z" fill="#D97321"/>
<path d="M135.219 99.0542L122.274 105.403C122.274 105.403 111.182 64.915 110.445 61.8273C110.117 60.4511 109.105 59.9537 108.086 59.8257C109.881 59.6636 111.185 59.6515 111.185 59.6515C114.717 59.6515 117.855 61.8846 118.988 65.2038C121.46 72.4432 126.013 85.7937 130.623 99.3905C131.829 98.9115 133.264 98.3621 134.848 97.7962L135.219 99.0542Z" fill="#F1A34F"/>
<path d="M109.224 101.35C109.224 101.35 151.057 97.672 156.214 102.575C158.608 104.852 159.953 115.161 160.706 125.553C161.646 138.516 151.064 149.608 138.047 149.422L92.6973 149.443L109.224 101.35Z" fill="#DF812F"/>
<path d="M93.6791 51.2588C92.4806 50.9922 91.2383 51.3002 90.3983 51.6099C90.5484 51.3173 90.9569 51.1038 90.9569 51.1038C90.4025 51.1862 89.3791 52.0677 89.3791 52.0677C81.1291 51.4819 83.2885 62.6219 84.214 65.0814C85.1394 67.5409 86.0451 70.4202 83.0519 73.7851C77.1636 80.406 85.6553 86.2723 85.6553 86.2723C85.7231 86.2888 90.7558 90.867 90.7558 90.867C89.947 88.8981 96.073 75.3551 99.9989 70.6654C100.658 68.5555 100.132 65.3399 100.09 65.0873C100.637 67.5974 100.637 69.0981 100.498 69.9855C103.487 64.9248 96.8536 51.9649 93.6791 51.2588Z" fill="#B5453C"/>
<path d="M125.307 70.7158C125.43 70.5329 126.473 67.3637 127.579 67.4246C128.683 67.4856 130.403 67.6684 130.832 67.5465C131.262 67.4246 132.703 66.3445 132.95 66.6018C133.564 67.2418 132.183 69.2226 131.2 69.5273C130.218 69.8321 128.622 69.375 128.254 69.7406C127.885 70.1063 127.947 71.4167 127.947 71.4167L125.307 70.7158Z" fill="#FFB27D"/>
<path d="M154.422 140.832C154.301 142.126 156.116 142.44 158.216 142.544C160.316 142.648 159.681 143.076 162.56 143.593C165.438 144.11 166.592 143.328 166.8 142.942C166.986 142.6 165.648 142.064 164.221 141.458C164.042 141.383 163.862 141.304 163.682 141.227C162.077 140.526 161.177 139.097 159.925 137.772C158.74 136.517 157.615 132.499 157.615 132.499L153.702 131.67C153.702 131.67 154.801 135.286 155.182 136.83C155.406 137.738 155.076 138.754 154.782 139.527C154.623 139.947 154.464 140.377 154.422 140.832Z" fill="#FFB27D"/>
<path d="M158.234 142.507C160.334 142.612 159.699 143.039 162.578 143.556C165.456 144.073 166.61 143.291 166.818 142.905C167.004 142.563 165.666 142.027 164.239 141.422L164.217 141.446C164.217 141.446 162.193 142.128 159.857 141.497C157.952 140.984 156.112 139.854 154.8 139.49C154.641 139.91 154.482 140.341 154.44 140.796C154.319 142.089 156.134 142.404 158.234 142.507Z" fill="#C65447"/>
<path d="M115.568 94.7509C115.568 94.7509 141.56 92.8089 146.454 95.8745C151.347 98.94 159.195 134.651 159.195 134.651C159.195 134.651 158.71 135.036 157.629 135.152C156.623 135.26 154.407 134.673 154.407 134.673C154.407 134.673 143.129 118.695 142.333 114.67C141.539 110.645 141.733 107.052 139.924 106.956C138.116 106.86 115.565 109.678 112.154 103.713C108.743 97.7471 111.563 91.8416 111.563 91.8416L115.568 94.7509Z" fill="#AA413E"/>
<path d="M127.844 74.5149C126.076 78.9565 121.808 86.1967 120.706 86.4708C119.776 86.7005 115.232 85.6711 111.54 84.4202C109.378 83.6877 107.511 82.8797 106.83 82.2041C104.989 80.3759 98.9263 69.6336 98.9263 69.6336C98.9263 69.6336 104.621 68.9174 107.322 70.502C110.023 72.0867 116.531 79.4003 117.514 79.1572C118.495 78.913 123.161 70.7459 125.004 70.0145C125.004 70.0145 127.827 69.405 128.564 71.3554C128.749 71.8454 128.438 73.0216 127.844 74.5149Z" fill="#699DEE"/>
<path d="M144.53 144.834C144.409 146.128 146.222 146.442 148.323 146.546C150.423 146.65 149.789 147.076 152.667 147.595C155.546 148.112 156.699 147.33 156.907 146.944C157.092 146.602 155.754 146.066 154.328 145.46C154.149 145.385 153.969 145.306 153.79 145.229C152.185 144.528 151.284 143.098 150.032 141.774C148.846 140.519 147.721 136.501 147.721 136.501L143.81 135.671C143.81 135.671 144.908 139.288 145.289 140.832C145.514 141.74 145.183 142.755 144.889 143.528C144.731 143.949 144.571 144.379 144.53 144.834Z" fill="#FFB27D"/>
<path d="M148.341 146.691C150.441 146.795 149.807 147.222 152.685 147.74C155.564 148.257 156.717 147.475 156.925 147.089C157.11 146.747 155.772 146.211 154.346 145.606L154.324 145.629C154.324 145.629 152.301 146.312 149.964 145.681C148.06 145.168 146.218 144.038 144.907 143.673C144.749 144.094 144.589 144.524 144.548 144.98C144.427 146.273 146.24 146.587 148.341 146.691Z" fill="#C65447"/>
<path d="M127.926 74.3825C126.158 78.8241 121.891 86.0643 120.788 86.3385C119.858 86.5681 115.314 85.5387 111.622 84.2879C110.093 82.9936 109.155 81.8741 109.002 81.6465C109.123 81.691 117.73 84.9314 119.437 84.2051C120.984 83.5471 125.363 76.1289 127.926 74.3825Z" fill="#4A75CB"/>
<path d="M99.6785 70.929C99.7067 70.9325 97.6911 72.8939 95.738 72.9508C93.9017 73.006 92.1227 71.1596 92.1446 71.1477C92.8189 70.7885 92.7251 69.7465 91.415 65.5424L91.759 65.5076L97.5462 64.9259C97.5462 64.9259 97.9464 66.6685 98.4362 68.2757C98.8479 69.6253 99.3231 70.8792 99.6785 70.929Z" fill="#FFB27D"/>
<path d="M97.569 64.9259C97.569 64.9259 97.9692 66.6685 98.459 68.2757C95.3794 69.116 92.9146 66.8399 91.7817 65.5076L97.569 64.9259Z" fill="#E2915A"/>
<path d="M110.49 96.3883C110.49 96.3883 133.58 97.4736 138.349 100.726C143.118 103.978 149.561 139.965 149.561 139.965C149.561 139.965 149.062 140.331 147.976 140.406C146.966 140.475 144.775 139.803 144.775 139.803C144.775 139.803 134.132 123.401 133.496 119.348C132.86 115.295 133.195 111.714 131.391 111.547C129.587 111.382 106.942 113.326 103.767 107.233C100.593 101.14 110.49 96.3883 110.49 96.3883Z" fill="#C65447"/>
<path d="M90.9896 65.0077C90.9896 65.0077 88.6176 62.9826 87.5733 60.9527C86.8271 59.5036 85.8662 53.5851 91.8682 52.6601C91.8682 52.6601 93.5878 52.3173 95.4814 52.8939C96.9874 53.3524 99.3448 54.6132 98.855 60.1804L98.8466 62.0134L90.9896 65.0077Z" fill="#B5453C"/>
<path d="M110.498 98.3549C110.295 98.3559 110.01 98.3425 109.676 98.3166C108.327 98.2142 106.176 97.9276 105.423 97.7051C99.07 95.8201 92.9659 93.4964 90.3667 85.3302C90.052 84.3432 89.7894 83.2703 89.583 82.1022L90.5741 78.3528L92.5063 70.4382C92.5063 70.4382 94.8846 71.6997 97.093 71.2135C98.2238 70.9635 98.8689 69.6544 98.8689 69.6544C98.8689 69.6544 110.826 74.3011 114.878 83.9304C118.93 93.5605 120.321 92.0976 121.549 94.1699C122.777 96.2422 117.333 98.3145 110.498 98.3549Z" fill="#699DEE"/>
<path d="M98.9919 66.123C98.9919 66.123 91.804 68.4316 90.4241 63.9654C89.0453 59.4992 87.1881 56.7893 91.7196 55.1264C96.251 53.4636 97.6736 54.8952 98.499 56.2748C99.3244 57.6543 100.826 65.4074 98.9919 66.123Z" fill="#FFB27D"/>
<path d="M95.0935 53.9606C95.0935 53.9606 94.7277 59.8018 91.9305 61.4971C89.1332 63.1925 87.5679 62.7842 87.5679 62.7842C87.5679 62.7842 89.3313 60.2419 88.8289 56.8897C88.8289 56.8897 92.834 51.9183 95.0935 53.9606Z" fill="#B5453C"/>
<path d="M94.7129 54.5836C94.7129 54.5836 96.5503 55.306 97.261 56.3345C97.9708 57.363 98.8535 59.6559 99.5163 59.3678C99.5163 59.3678 99.9103 55.3534 97.6164 53.8458C95.1829 52.2472 94.7129 54.5836 94.7129 54.5836Z" fill="#B5453C"/>
<path d="M109.841 98.3054C108.491 98.203 106.34 97.9164 105.588 97.6939C99.2346 95.8089 93.1305 93.4851 90.5313 85.319C90.5219 85.259 90.5105 85.199 90.499 85.1389L91.3807 84.4499C93.1837 83.0418 95.6151 82.72 97.7276 83.6046C102.746 85.709 109.64 89.5226 109.841 98.3054Z" fill="#4A75CB"/>
<path d="M92.5805 70.3815C92.5805 70.3815 85.155 71.4891 83.9273 76.1158C82.6996 80.7416 81.6074 95.8562 82.7131 97.0501C83.8179 98.2441 87.1195 96.8587 87.8563 96.2617C88.5932 95.6648 92.3992 80.2936 92.3992 80.2936C92.3992 80.2936 94.2616 73.3464 92.5805 70.3815Z" fill="#699DEE"/>
<path d="M103.873 91.5806C103.873 91.5806 108.144 90.7602 108.626 90.965C109.108 91.1709 111.795 93.564 111.52 94.043C111.244 94.522 110.142 94.8634 108.902 94.4537C107.662 94.043 104.975 93.8381 104.493 93.2225C104.01 92.6069 103.873 91.5806 103.873 91.5806Z" fill="#FFB27D"/>
<path d="M105.071 90.9404C105.071 90.9404 88.3981 90.6673 84.4013 93.2662C84.4013 93.2662 82.0595 95.6603 82.7484 96.9598C83.4373 98.2593 85.5727 98.0534 86.5378 97.9851C87.5018 97.9168 104.382 94.0867 104.382 94.0867C104.382 94.0867 106.311 92.6506 105.071 90.9404Z" fill="#699DEE"/>
<path d="M90.7728 95.6194C90.7728 95.6194 109.746 89.7687 114.512 95.3349C118.687 100.211 130.008 119.513 130.604 130.936C131.184 142.036 120.299 149.335 109.103 149.335H89.2168L90.7728 95.6194Z" fill="#F1A34F"/>
<path d="M119.465 130.869C118.869 119.446 110.796 101.242 107.862 96.6797C103.582 90.023 85.1136 96.4169 77.0075 99.6366C72.3967 86.0388 67.8446 72.6892 65.3732 65.45C64.2398 62.1299 61.1015 59.897 57.5703 59.897C57.5703 59.897 44.3869 57.9637 42.3467 75.3999C35.8162 131.213 41.0636 149.211 64.4895 149.35C67.4274 149.367 73.1696 149.315 78.0768 149.261L78.0778 149.269H97.9638C109.16 149.269 120.043 141.97 119.465 130.869Z" fill="#F1A34F"/>
<path d="M119.465 130.831C118.869 119.374 110.796 101.118 107.862 96.5422C104.219 90.8581 90.2943 94.6592 81.2325 97.9079C79.6484 98.4749 78.2133 99.0263 77.0075 99.5064C72.3969 85.8692 67.8452 72.4804 65.3734 65.2201C64.2401 61.8911 61.1016 59.6515 57.5703 59.6515C57.5703 59.6515 56.2651 59.6637 54.4711 59.8262H54.4687C51.5782 60.0879 47.4231 60.7407 45.4314 62.3629C44.0808 63.4632 43.1526 68.2909 42.347 75.1993C40.4426 91.5192 39.5401 104.615 39.7968 114.984C39.9281 120.302 40.3652 124.901 41.129 128.851C41.6631 131.618 42.3569 134.064 43.2201 136.215C46.959 145.544 53.8485 149.302 64.4894 149.365C65.7259 149.373 67.4597 149.368 69.4194 149.356C72.1145 149.338 75.2358 149.307 78.0767 149.275L78.0788 149.283H97.9637C109.16 149.283 120.045 141.964 119.465 130.831Z" fill="#D16E24"/>
<path d="M76.7265 98.7442C73.7344 99.9112 70.4182 101.203 67.7346 102.249C65.1114 92.6679 57.3784 64.3879 56.7676 61.8273C56.4404 60.4512 55.4284 59.9536 54.4092 59.8263C56.2028 59.6639 57.5086 59.6515 57.5086 59.6515C61.0396 59.6515 64.1776 61.8852 65.3115 65.2042C67.7439 72.3285 72.1909 85.3719 76.7265 98.7442Z" fill="#F1A34F"/>
<path d="M69.4378 149.455H37.3079C37.3079 148.585 38.1833 147.879 39.2639 147.879H47.4416C41.7713 146.033 37.729 141.621 37.535 136.426H37.0059V136.035H43.103C44.2453 138.948 45.6909 141.328 47.4558 143.227C51.4327 147.517 57.0351 149.364 64.4689 149.408C64.865 149.411 65.3121 149.413 65.8013 149.413C66.8394 149.413 68.0669 149.407 69.399 149.399H69.4366C69.4374 149.418 69.4378 149.436 69.4378 149.455Z" fill="#DBB195"/>
<path d="M47.4041 143.227C45.6392 141.328 44.1936 138.948 43.0513 136.035H43.0595C43.0888 136.11 43.1183 136.184 43.148 136.259C44.2748 139.07 45.6884 141.376 47.4041 143.227Z" fill="#DF812F"/>
<path d="M65.7794 149.349C65.2901 149.349 64.8431 149.348 64.4469 149.345C57.0131 149.3 51.4107 147.454 47.4338 143.163C45.7181 141.312 44.3045 139.006 43.1777 136.195C43.148 136.121 43.1185 136.046 43.0892 135.972H46.0825C46.1597 134.627 46.1328 132.551 45.4255 131.127C45.38 131.043 45.3125 130.922 45.229 130.775C45.0253 130.452 44.8865 130.215 44.7992 130.041C44.1866 129.03 43.3037 127.71 42.7156 127.433C42.7156 127.433 42.7893 127.349 42.8581 127.186C42.8126 127.265 42.7647 127.346 42.7156 127.433C42.427 127.932 41.845 128.327 41.0861 128.629C40.3223 124.69 39.8853 120.105 39.7539 114.802C40.7865 115.16 41.4877 115.433 41.4877 115.433C41.4877 115.433 41.087 121.764 42.3486 121.764C42.3616 121.764 42.3746 121.764 42.3877 121.762C43.6967 121.63 42.3877 116.026 42.3877 116.026C44.8423 116.618 47.1334 118.927 47.1334 118.927C49.9969 122.685 43.8613 125.455 43.8613 125.455C43.8613 125.455 43.7788 127.697 45.4968 130.269C45.4968 130.269 47.5068 132.728 47.0267 135.972H49.5327C48.6193 131.466 51.4666 127.98 51.4666 127.98C53.7321 124.591 53.624 121.636 53.624 121.636C53.624 121.636 45.5348 117.985 49.3093 113.031C49.3093 113.031 52.33 109.988 55.5653 109.206C55.5653 109.206 53.8402 116.594 55.5653 116.768C55.5827 116.77 55.5998 116.771 55.6167 116.771C57.2809 116.771 56.7514 108.423 56.7514 108.423C56.7514 108.423 64.638 105.368 68.2138 105.368C68.3549 105.368 68.4896 105.372 68.6165 105.382C68.6165 105.382 63.4566 112.425 64.9981 112.425C65.0167 112.425 65.0364 112.424 65.0569 112.422C66.7833 112.249 72.7152 104.947 72.7152 104.947C72.7152 104.947 74.0067 104.754 75.6768 104.754C78.349 104.754 81.9904 105.248 82.8534 107.815C84.2561 111.987 81.9915 114.073 80.696 114.334C79.4027 114.596 71.0969 114.509 71.3129 115.378C71.4844 116.068 75.0518 117.086 78.0802 117.086C78.868 117.086 79.6195 117.017 80.2656 116.855C80.2656 116.855 76.9817 123.387 72.6173 123.387C72.5071 123.387 72.3959 123.382 72.2841 123.374C71.6285 123.322 71.0403 123.232 70.5013 123.115C70.2324 123.296 69.799 123.591 69.3177 123.935C69.864 124.306 70.3318 124.64 70.6192 124.941C72.0779 124.162 73.3697 123.388 73.3697 123.388C73.3697 123.388 78.9702 124.155 78.67 126.907C78.3834 129.555 76.5909 130.442 75.6977 130.442C75.6622 130.442 75.6276 130.441 75.5947 130.437C74.8773 130.376 71.221 129.276 70.0423 129.276C69.8268 129.276 69.6941 129.313 69.6774 129.4C69.5693 129.958 72.5555 131.789 74.6467 131.875C74.6467 131.875 71.6314 134.554 69.1196 134.554C68.7572 134.554 68.4047 134.498 68.0738 134.37C65.4498 133.358 65.2264 131.753 63.5908 131.151C62.7772 130.851 62.0233 130.701 61.5535 130.701C61.0781 130.701 60.8936 130.855 61.2332 131.165C61.9086 131.778 64.869 132.375 65.8046 133.708C66.609 134.855 67.342 135.681 65.8064 135.681C65.556 135.681 65.2448 135.658 64.8641 135.613C62.1493 135.284 57.7363 133.681 57.5422 131.85C56.9762 131.929 55.7998 132.769 54.9502 133.427C54.8188 133.543 54.6261 133.699 54.3497 133.904C54.2454 133.99 54.1594 134.061 54.0944 134.114C53.5357 134.607 53.0593 135.281 52.6688 135.972H69.5583V136.363H69.1899C68.9947 141.557 64.9537 145.97 59.2834 147.816H67.461C68.4065 147.816 69.1948 148.357 69.3766 149.074C69.3978 149.159 69.4107 149.247 69.4146 149.336H69.377C68.045 149.344 66.8174 149.349 65.7794 149.349ZM55.1344 124.243C54.3584 124.607 53.1942 126.347 52.3863 127.681C52.3287 127.795 52.2549 127.931 52.1616 128.09C52.0671 128.251 51.9542 128.437 51.8192 128.65C51.7086 128.843 51.6215 129 51.5612 129.112C50.5422 131.166 50.5937 134.246 50.7262 135.972H51.7982C52.8346 134.329 54.3203 133.441 54.3203 133.441C56.6067 131.809 57.3495 130.016 57.3495 130.016C57.3495 130.016 54.5131 127.349 55.9866 125.136C55.6182 124.872 55.326 124.574 55.1344 124.243ZM57.5189 131.619C57.514 131.765 57.5422 131.85 57.5422 131.85C57.5349 131.769 57.5263 131.693 57.5189 131.619ZM54.9452 123.916C55.03 124.119 55.1221 124.229 55.1331 124.242C55.0681 124.127 55.0055 124.021 54.9452 123.916ZM66.6801 122.495C67.3557 122.495 68.0464 122.512 68.6829 122.557C66.6863 121.77 65.4338 120.709 63.5466 120.592C63.2145 120.571 62.8935 120.562 62.587 120.562C60.3057 120.562 58.8588 121.098 60.095 121.636C61.1178 122.078 63.915 121.982 66.2344 122.498C66.3817 122.496 66.5305 122.495 66.6801 122.495Z" fill="#CC6216"/>
<path d="M52.1662 125.658C52.1662 125.658 48.3084 121.19 51.9284 118.352C51.9284 118.352 54.5726 116.763 56.7286 116.892C56.7286 116.892 53.6735 121.977 54.6618 122.483C55.6502 122.989 57.6546 116.573 57.6546 116.573C57.6546 116.573 63.6718 115.993 65.6075 116.917C65.6075 116.917 60.4635 121.097 61.5468 121.345C62.6303 121.593 68.1865 117.492 68.1865 117.492C68.1865 117.492 73.7869 118.438 73.4883 121.83C73.1896 125.222 71.2599 126.269 70.4118 126.179C69.5636 126.089 64.6023 124.208 64.4942 124.898C64.3861 125.588 67.3725 127.843 69.4639 127.948C69.4639 127.948 65.5156 132.271 62.8913 131.023C60.2673 129.776 60.0433 127.798 58.4075 127.056C56.7717 126.314 55.3754 126.316 56.0508 127.073C56.7261 127.829 59.6865 128.565 60.6219 130.208C61.5574 131.85 62.3967 132.958 59.6817 132.552C56.9668 132.147 52.5537 130.175 52.36 127.916L52.1662 125.658Z" fill="#82B378"/>
<path d="M70.8902 121.876C70.8902 121.876 55.6792 121.294 52.32 125.613C52.32 125.613 51.5771 127.821 49.291 129.833C49.291 129.833 46.0261 132.229 45.7993 136.512L46.3919 136.565C46.3919 136.565 47.3314 132.575 49.0384 130.689C49.1049 130.621 49.2013 130.523 49.3203 130.404C49.5972 130.149 49.7904 129.959 49.9213 129.816C50.7711 129.005 51.9474 127.97 52.5137 127.87C52.5137 127.87 51.0387 122.52 70.8902 121.876Z" fill="#82B378"/>
<path d="M38.8149 119.986C38.8149 119.986 44.9518 116.573 42.0879 111.944C42.0879 111.944 39.7968 109.1 37.3421 108.369C37.3421 108.369 38.6513 115.274 37.3421 115.436C36.0328 115.599 36.442 107.639 36.442 107.639C36.442 107.639 29.9778 104.551 27.4413 104.795C27.4413 104.795 31.4506 111.537 30.1415 111.374C28.8323 111.212 24.3319 104.389 24.3319 104.389C24.3319 104.389 17.704 103.17 16.6403 107.069C15.5766 110.969 17.295 112.918 18.2768 113.162C19.2586 113.405 25.5592 113.325 25.3957 114.137C25.2318 114.949 20.977 116.249 18.6041 115.517C18.6041 115.517 21.2225 121.935 24.6591 121.61C28.0958 121.285 29.1595 119.172 31.287 119.01C33.4144 118.847 34.9692 119.417 33.9054 119.986C32.8416 120.554 29.2414 120.172 27.5231 121.621C25.8047 123.072 24.4137 123.966 27.6049 124.615C30.7961 125.265 36.5238 124.859 37.6694 122.422L38.8149 119.986Z" fill="#A8D29F"/>
<path d="M40.3857 125.836C38.6674 122.668 38.7492 119.907 38.7492 119.907C36.7854 113.733 19.6021 108.209 19.6021 108.209C41.4494 116.982 37.6036 122.343 37.6036 122.343C38.1923 122.684 39.0752 124.31 39.6878 125.558C39.775 125.77 39.9132 126.064 40.1185 126.462C40.2017 126.642 40.2682 126.79 40.3141 126.892C41.4391 129.687 40.8431 134.512 40.8431 134.512L41.5248 134.693C43.0356 129.831 40.3857 125.836 40.3857 125.836Z" fill="#82B378"/>
<path d="M48.5526 115.184C48.5526 115.184 40.463 110.687 44.2382 104.584C44.2382 104.584 47.2582 100.836 50.4941 99.8721C50.4941 99.8721 48.7682 108.974 50.4941 109.188C52.2198 109.402 51.6805 98.9089 51.6805 98.9089C51.6805 98.9089 60.2015 94.8398 63.5452 95.1605C63.5452 95.1605 58.26 104.048 59.9858 103.834C61.7115 103.619 67.644 94.6256 67.644 94.6256C67.644 94.6256 76.381 93.0188 77.7828 98.1588C79.1845 103.299 76.9198 105.869 75.6257 106.189C74.3313 106.511 66.026 106.404 66.2417 107.474C66.4574 108.545 72.0662 110.259 75.1942 109.295C75.1942 109.295 71.7426 117.754 67.2124 117.326C62.6823 116.898 61.2802 114.113 58.4758 113.899C55.6714 113.685 53.622 114.434 55.0243 115.184C56.4264 115.933 61.1722 115.429 63.4373 117.341C65.7024 119.253 67.536 120.431 63.3295 121.287C59.1229 122.144 51.5726 121.609 50.0626 118.397L48.5526 115.184Z" fill="#A8D29F"/>
<path d="M73.8453 99.8435C73.8453 99.8435 51.1946 107.124 48.606 115.262C48.606 115.262 48.7139 118.903 46.4488 123.079C46.4488 123.079 42.9557 128.345 44.9471 134.754L45.8458 134.515C45.8458 134.515 45.0603 128.155 46.543 124.471C46.6036 124.336 46.6913 124.141 46.801 123.903C47.0715 123.378 47.2537 122.991 47.3686 122.711C48.1763 121.066 49.34 118.924 50.116 118.475C50.116 118.475 45.0465 111.407 73.8453 99.8435Z" fill="#82B378"/>
<path d="M32.4258 132.943C32.4258 141.632 39.5204 148.674 48.2719 148.674C57.0234 148.674 64.1181 141.632 64.1181 132.943H32.4258Z" fill="#699DEE"/>
<path d="M52.072 148.554C51.4274 148.634 50.7703 148.674 50.1032 148.674C41.3518 148.674 34.2578 141.63 34.2578 132.943H38.1945C38.1945 140.969 44.2493 147.591 52.072 148.554Z" fill="#A1C7FF"/>
<path d="M62.4177 147.492H34.1977C33.118 147.492 32.2427 148.361 32.2427 149.433H64.3726C64.3726 148.361 63.4974 147.492 62.4177 147.492Z" fill="#4A75CB"/>
<path d="M64.4497 132.943H31.876V133.426H64.4497V132.943Z" fill="#4A75CB"/>
<path d="M239.274 102.509V117.615C239.274 120.27 238.519 122.417 237.585 122.417H207.786C206.852 122.417 206.096 120.27 206.096 117.615V102.509C206.096 99.855 208.73 97.3968 216.454 97.4816L237.585 97.7072C238.519 97.7072 239.274 99.855 239.274 102.509Z" fill="#F1A34F"/>
<path d="M243.303 102.594V117.7C243.303 120.355 242.549 122.502 241.614 122.502H211.815C210.881 122.502 210.126 120.355 210.126 117.7V102.594C210.126 99.9398 212.931 97.3957 217.223 97.4816L241.614 97.792C242.549 97.792 243.303 99.9398 243.303 102.594Z" fill="#E78B37"/>
<path d="M235.957 84.3742C236.362 83.4834 235.754 46.2979 244.886 46.7432C254.02 47.1885 271.068 47.6338 271.068 47.6338C271.068 47.6338 278.78 48.302 274.112 66.5606C269.445 84.8191 270.46 113.766 270.46 113.766H236.769L235.957 84.3742Z" fill="#F1A34F"/>
<path d="M267.51 66.5652C266.948 68.7463 266.481 71.0774 266.069 73.4904C264.421 83.2647 263.913 94.4022 263.79 102.487C263.693 109.167 263.858 113.761 263.858 113.761H230.172L229.362 84.3696C229.76 83.483 229.156 46.2933 238.289 46.7433C242.958 46.975 249.7 47.1934 255.166 47.3704C255.853 47.384 256.525 47.4113 257.17 47.4249C261.4 47.5477 264.476 47.6296 264.476 47.6296C264.476 47.6296 272.179 48.2975 267.51 66.5652Z" fill="#E78B37"/>
<path d="M246.438 141.172V121.558C246.438 120.726 245.737 120.031 244.899 120.031H244.886C244.612 120.031 244.35 120.112 244.131 120.249C243.664 120.508 243.349 120.998 243.349 121.558V141.199C243.288 141.208 243.229 141.218 243.169 141.229C238.747 141.911 235.15 145.128 233.942 149.341H256.009C254.767 145.022 251.026 141.753 246.438 141.172Z" fill="#D16E24"/>
<path d="M254.222 47.1273C250.872 47.0095 247.581 46.8811 244.947 46.7527C244.893 46.7501 244.84 46.7488 244.785 46.7488C244.374 46.7488 243.982 46.8262 243.61 46.9744C243.001 46.9507 242.402 46.9268 241.819 46.9027C242.456 46.2772 242.86 46.0117 242.86 46.0117L254.222 47.1273Z" fill="#E7B999"/>
<path d="M257.193 47.4232C256.548 47.4096 255.876 47.3824 255.189 47.3687C251.519 47.2498 247.274 47.1123 243.468 46.9648C243.84 46.8166 244.232 46.7393 244.644 46.7393C244.698 46.7393 244.751 46.7405 244.805 46.7432C247.439 46.8716 250.73 47 254.081 47.1177L257.193 47.4232Z" fill="#DF812F"/>
<path d="M263.881 102.513C259.693 102.241 246.222 101.327 246.222 101.327L247.353 73.9395C243.809 82.0556 240.05 88.8861 237.438 88.8861C235.983 88.8861 234.884 86.7641 234.377 81.56C232.153 58.7298 239.042 49.5789 241.746 46.921C242.329 46.9451 242.928 46.969 243.537 46.9927C247.343 47.1403 251.588 47.2778 255.257 47.3966C255.944 47.4103 256.616 47.4375 257.261 47.4512C258.704 49.6597 265.309 60.3885 266.134 72.9303C266.147 73.1214 266.161 73.3258 266.161 73.5167C264.513 83.2909 264.004 94.4285 263.881 102.513Z" fill="#D97321"/>
<path d="M244.068 120.212C243.601 120.471 243.285 120.961 243.285 121.521V145.555C243.285 146.127 243.601 146.619 244.068 146.864C244.52 146.605 244.836 146.114 244.836 145.555V121.521C244.836 120.961 244.52 120.471 244.068 120.212Z" fill="#F1A34F"/>
<path d="M243.169 141.309C238.747 141.991 235.15 145.208 233.942 149.421H252.398C251.189 145.208 247.605 141.991 243.169 141.309Z" fill="#F1A34F"/>
<path d="M270.909 115.525L270.147 119.866C270.147 120.793 270.153 122.477 269.22 122.477H216.762C215.828 122.477 215.073 121.727 215.073 120.8V115.525C215.073 114.597 215.828 113.847 216.762 113.847H269.22C270.153 113.847 270.909 114.597 270.909 115.525Z" fill="#F1A34F"/>
<path d="M207.826 146.19C207.921 146.654 208.017 147.131 207.99 147.622C207.921 147.894 207.743 148.099 207.482 148.262L207.235 148.726C206.974 148.849 206.343 148.944 205.532 149.026L205.518 148.644C205.409 148.644 205.298 148.644 205.189 148.658V148.644C204.228 148.658 203.033 148.739 201.577 149.313C201.563 149.313 201.55 149.326 201.536 149.326C201.275 149.34 201.014 149.353 200.78 149.366H197.238C195.535 149.121 194.862 148.44 194.738 148.099C194.738 148.004 196.016 147.377 197.073 147.077C197.087 147.077 197.114 147.063 197.156 147.063C197.306 147.009 197.594 146.899 197.663 146.885C197.856 146.817 198.075 146.763 198.268 146.708C200.039 146.19 201.234 145.018 202.634 143.723C204.241 142.237 206.425 135.611 206.136 135.489L209.748 135.953C209.748 135.953 206.85 141.705 207.084 143.491C207.179 144.282 207.468 144.95 207.661 145.631C207.674 145.658 207.674 145.7 207.688 145.727C207.73 145.823 207.757 145.918 207.784 146.013C207.797 146.082 207.812 146.136 207.826 146.19Z" fill="#EF9A60"/>
<path d="M253.235 96.4726L237.701 95.8425C237.701 95.8425 214.078 97.3562 212.074 100.765L203.165 142.131C203.165 142.131 203.658 142.792 205.332 143.077C206.217 143.227 208.143 142.792 208.143 142.792C208.143 142.792 219.68 128.147 221.163 118.952C222.402 111.268 222.893 110.465 227.135 110.624C231.379 110.783 244.4 111.801 250.588 110.612C256.775 109.423 253.235 96.4726 253.235 96.4726Z" fill="#233862"/>
<path d="M208.09 147.31C208.09 147.446 208.077 147.582 208.021 147.691C207.953 147.963 207.774 148.168 207.513 148.332C207.486 148.359 207.459 148.373 207.43 148.387H207.417C207.403 148.4 207.39 148.4 207.376 148.414C206.923 148.687 206.318 148.687 205.549 148.714H205.22C204.259 148.727 203.064 148.809 201.608 149.382C201.594 149.382 201.581 149.395 201.567 149.395C201.525 149.409 201.498 149.422 201.457 149.436H195.456C194.632 149.109 194.468 148.591 194.385 148.4C194.317 148.25 194.508 148.087 194.879 147.91C194.906 147.895 194.948 147.882 194.975 147.855C195.497 147.623 196.28 147.378 197.118 147.105C197.132 147.118 197.159 147.118 197.187 147.133C197.75 147.323 199.713 147.937 202.02 147.501C203.943 147.133 205.852 146.233 207.321 145.796C207.444 145.769 207.568 145.728 207.692 145.701C207.719 145.687 207.746 145.687 207.774 145.674C207.801 145.728 207.815 145.796 207.829 145.851C207.966 146.314 208.09 146.805 208.09 147.31Z" fill="#365DA4"/>
<path d="M207.555 148.038L207.473 148.188L207.226 148.651L206.883 149.292H205.194V148.951L205.18 148.583V148.42L207.459 148.051L207.555 148.038Z" fill="#365DA4"/>
<path d="M213.138 146.19C213.233 146.654 213.329 147.131 213.302 147.622C213.233 147.894 213.055 148.099 212.794 148.262L212.547 148.726C212.286 148.849 211.654 148.944 210.844 149.026L210.83 148.644C210.721 148.644 210.61 148.644 210.501 148.658V148.644C209.54 148.658 208.344 148.739 206.889 149.313C206.875 149.313 206.861 149.326 206.848 149.326C206.587 149.34 206.326 149.353 206.092 149.366H202.55C200.847 149.121 200.174 148.44 200.051 148.099C200.051 148.004 201.327 147.377 202.384 147.077C202.399 147.077 202.426 147.063 202.468 147.063C202.619 147.009 202.906 146.899 202.975 146.885C203.168 146.817 203.388 146.763 203.58 146.708C205.351 146.19 206.546 145.018 207.946 143.723C209.553 142.237 211.737 135.611 211.448 135.489L215.06 135.953C215.06 135.953 212.162 141.705 212.395 143.491C212.491 144.282 212.78 144.95 212.973 145.631C212.986 145.658 212.986 145.7 213 145.727C213.041 145.823 213.069 145.918 213.096 146.013C213.109 146.082 213.124 146.136 213.138 146.19Z" fill="#FFB27D"/>
<path d="M243.871 58.1968L242.663 62.9602L236.315 87.8604C236.072 88.236 234.051 89.0295 231.814 89.7744C229.152 90.658 226.178 91.4909 225.615 91.4422C224.586 91.3595 224.017 89.224 224.31 88.6219C224.499 88.2246 227.894 86.4368 230.548 84.8342C232.03 83.9403 233.279 83.1053 233.625 82.6077C234.248 81.6859 235.8 73.2079 237.064 67.0031C237.708 63.82 238.284 61.2333 238.617 60.5551C239.463 58.7853 242.754 58.3069 243.645 58.2156C243.788 58.1971 243.871 58.1968 243.871 58.1968Z" fill="#466AA5"/>
<path d="M257.322 96.4736L241.789 95.8425C241.789 95.8425 218.165 97.3572 216.16 100.766L207.928 142.948C207.928 142.948 209.365 143.436 210.267 143.503C211.704 143.609 212.692 143.141 212.692 143.141C212.692 143.141 223.766 128.147 225.25 118.953C226.49 111.269 226.979 110.466 231.223 110.625C235.467 110.784 248.488 111.802 254.675 110.613C260.863 109.423 257.322 96.4736 257.322 96.4736Z" fill="#2B478B"/>
<path d="M213.221 147.31C213.221 147.446 213.207 147.582 213.152 147.691C213.083 147.963 212.905 148.168 212.643 148.332C212.616 148.359 212.589 148.373 212.561 148.387H212.547C212.534 148.4 212.52 148.4 212.507 148.414C212.053 148.687 211.449 148.687 210.68 148.714H210.35C209.389 148.727 208.194 148.809 206.738 149.382C206.725 149.382 206.711 149.395 206.697 149.395C206.656 149.409 206.629 149.422 206.587 149.436H200.586C199.763 149.109 199.598 148.591 199.516 148.4C199.447 148.25 199.639 148.087 200.01 147.91C200.037 147.895 200.079 147.882 200.106 147.855C200.628 147.623 201.41 147.378 202.248 147.105C202.262 147.118 202.289 147.118 202.317 147.133C202.88 147.323 204.843 147.937 207.151 147.501C209.074 147.133 210.982 146.233 212.451 145.796C212.574 145.769 212.698 145.728 212.822 145.701C212.849 145.687 212.877 145.687 212.905 145.674C212.932 145.728 212.945 145.796 212.959 145.851C213.096 146.314 213.221 146.805 213.221 147.31Z" fill="#466AA5"/>
<path d="M212.868 148.038L212.786 148.188L212.539 148.651L212.196 149.292H210.507V148.951L210.493 148.583V148.42L212.772 148.051L212.868 148.038Z" fill="#466AA5"/>
<path d="M251.554 51.4419C259.003 50.88 260.46 35.7024 251.597 37.5507C251.597 37.5507 250.355 36.7449 249.741 36.7368C249.741 36.7368 250.217 36.9087 250.423 37.2039C249.466 36.9915 247.981 36.6469 246.812 37.3054C234.827 44.0544 248.667 51.6597 251.554 51.4419Z" fill="#163560"/>
<path d="M243.285 59.6181C243.255 59.6261 245.736 61.4576 247.863 61.2324C249.863 61.0222 251.518 58.7575 251.493 58.7477C250.707 58.4572 250.654 57.3127 251.448 52.559L251.069 52.5716L244.704 52.7914C244.704 52.7914 244.53 54.7409 244.237 56.5566C243.992 58.0814 243.664 59.512 243.285 59.6181Z" fill="#FFB27D"/>
<path d="M242.576 63.0194L236.228 87.9196C235.985 88.2951 233.964 89.0887 231.728 89.8336C231.538 89.3753 231.36 88.8487 231.19 88.2693C230.851 87.1095 230.604 85.9787 230.461 84.8934C231.943 83.9995 233.192 83.1645 233.538 82.6669C234.161 81.745 235.713 73.267 236.977 67.0623C239.822 64.2887 242.507 62.9254 242.507 62.9254L242.576 63.0194Z" fill="#2B478B"/>
<path d="M244.668 52.7788C244.668 52.7788 244.494 54.7282 244.201 56.544C247.669 57.0029 250.003 54.1711 251.034 52.559L244.668 52.7788Z" fill="#EF9A60"/>
<path d="M251.662 52.0102C251.662 52.0102 253.934 49.4642 254.765 47.1083C255.358 45.4264 255.518 38.8637 248.868 38.7425C248.868 38.7425 246.951 38.6233 244.982 39.5273C243.417 40.2463 241.048 41.9607 242.409 47.929L242.691 49.9166L251.662 52.0102Z" fill="#163560"/>
<path d="M243.156 54.2822C243.156 54.2822 251.3 55.73 252.129 50.6815C252.96 45.633 254.57 42.4199 249.406 41.2819C244.241 40.144 242.911 41.9063 242.221 43.5245C241.531 45.1426 241.059 53.7754 243.156 54.2822Z" fill="#FFB27D"/>
<path d="M245.667 40.5735C245.667 40.5735 246.934 46.8573 250.222 48.2854C253.51 49.7135 255.147 49.0404 255.147 49.0404C255.147 49.0404 252.854 46.5413 252.9 42.8304C252.9 42.8304 247.813 38.0255 245.667 40.5735Z" fill="#163560"/>
<path d="M246.183 41.0442C246.183 41.0442 244.298 42.098 243.68 43.3183C243.063 44.5386 242.448 47.1561 241.685 46.941C241.685 46.941 240.659 42.6435 242.923 40.6704C245.326 38.5782 246.183 41.0442 246.183 41.0442Z" fill="#163560"/>
<path d="M258.045 104.133C257.398 105.285 255.992 105.377 254.225 104.871C253.372 104.638 252.447 104.254 251.477 103.808C251.388 103.752 251.284 103.708 251.194 103.665C248.331 102.28 245.139 100.192 242.644 98.6017C237.414 95.2744 237.068 97.1388 235.518 95.3003C235.518 95.3003 237.111 93.6377 235.067 74.2083C234.487 68.6461 243.873 58.1968 243.873 58.1968C243.873 58.1968 243.935 61.6457 251.44 58.7104C251.706 58.6149 253.758 63.0055 255.549 68.307C255.842 69.1551 256.118 70.0144 256.38 70.8853C257.629 74.9946 258.555 79.2866 258.305 82.2714C258.245 82.9791 258.126 83.6237 257.927 84.1575C257.905 84.2093 257.883 84.261 257.86 84.3127C255.285 90.4583 259.895 100.813 258.045 104.133Z" fill="#466AA5"/>
<path d="M232.202 79.9111L218.371 78.9293L224.293 94.9388L237.246 96.2724L232.202 79.9111Z" fill="#B64C41"/>
<path d="M232.019 80.0919L218.187 79.1111L224.11 95.1196L237.062 96.4542L232.019 80.0919Z" fill="#D6716B"/>
<path d="M230.791 79.7738C230.791 79.7738 231.124 77.6994 229.946 77.657C228.768 77.6146 228.08 79.6424 228.08 79.6424L230.791 79.7738Z" fill="#B2CBFD"/>
<path d="M228.684 81.6181C229.013 83.0934 230.915 85.5082 230.802 86.7301L221.961 86.6163C221.961 86.6163 222.018 86.0482 220.13 82.0153C219.353 80.3569 220.273 77.3606 221.069 77.2924L230.05 77.6193C230.05 77.6193 228.043 78.7418 228.684 81.6181Z" fill="#D2E9FF"/>
<path d="M218.31 78.9293L218.187 79.1031L218.492 79.1217L218.465 79.0151L218.31 78.9293Z" fill="#B64C41"/>
<path d="M237.167 96.3776L237.29 96.2038L237.057 96.0248L237.167 96.3776Z" fill="#B64C41"/>
<path d="M257.975 104.047C257.328 105.199 255.922 105.291 254.154 104.785C253.302 104.551 252.377 104.168 251.406 103.722C247.969 101.511 244.289 97.9775 242.224 92.3141C237.582 79.5926 255.432 70.3815 255.432 70.3815L256.31 70.7991C257.558 74.9085 258.485 79.2004 258.235 82.1853C258.174 82.893 258.055 83.5375 257.856 84.0714C257.834 84.1231 257.813 84.1748 257.79 84.2266C255.214 90.3721 259.825 100.727 257.975 104.047Z" fill="#2B478B"/>
<path d="M237.433 91.0103L236.873 90.615L242.238 83.1121L242.798 83.5062L237.433 91.0103Z" fill="#D16E24"/>
<path d="M236.917 90.5687L236.873 91.237L237.476 90.9639L236.917 90.5687Z" fill="#F1A34F"/>
<path d="M244.142 87.3344C244.142 87.3344 241.721 86.337 240.493 86.6174C239.264 86.8978 236.766 87.713 236.877 88.3824C236.986 89.0529 239.661 89.8309 240.917 89.3808C242.173 88.9308 242.895 89.8733 244.379 89.6343C245.864 89.3943 244.142 87.3344 244.142 87.3344Z" fill="#FFB27D"/>
<path d="M251.442 58.7422C251.442 58.7422 259.065 60.0273 260.014 62.0215C260.964 64.0157 260.333 84.9176 259.741 87.1244C259.148 89.3302 246.835 90.3699 243.147 90.2365C243.147 90.2365 242.567 87.7555 243.257 86.3702C243.947 84.9848 253.06 83.4877 253.808 82.4573C254.556 81.4268 252.312 68.7228 252.602 66.2376C252.892 63.7523 251.442 58.7422 251.442 58.7422Z" fill="#466AA5"/>
<path d="M221.619 88.2295C221.619 88.2295 224.136 87.9874 223.795 89.0117C223.454 90.036 222.504 90.5305 222.504 90.5305C222.504 90.5305 220.557 89.1379 221.619 88.2295Z" fill="#FFB27D"/>
<path d="M266.937 102.52V117.627C266.937 120.281 266.181 122.428 265.247 122.428H235.448C234.514 122.428 233.759 120.281 233.759 117.627V102.52C233.759 99.8664 236.135 97.2375 244.289 97.7186H265.247C266.181 97.7186 266.937 99.8664 266.937 102.52Z" fill="#F1A34F"/>
<path d="M270.967 102.604V117.71C270.967 120.365 270.211 122.512 269.278 122.512H239.478C238.545 122.512 237.789 120.365 237.789 117.71V102.604C237.789 99.9498 240.337 97.5764 246.345 97.802L267.631 97.6613C270.977 97.6613 270.967 99.9498 270.967 102.604Z" fill="#DF812F"/>
<path d="M302.207 109.119H263.464C262.543 109.119 261.788 109.868 261.788 110.782V111.378C261.788 112.293 262.543 113.042 263.464 113.042H281.332L282.335 143.491C277.394 143.645 273.31 146.076 272.236 149.301H293.435C292.369 146.102 288.342 143.685 283.453 143.496L284.342 113.042H302.207C303.13 113.042 303.883 112.293 303.883 111.378V110.782C303.883 109.868 303.13 109.119 302.207 109.119Z" fill="#4A75CB"/>
<path d="M280.122 106.904C279.99 107.242 279.398 107.424 279.106 107.494C279.223 107.227 279.296 106.939 279.317 106.635C279.497 106.39 279.782 106.247 279.99 106.285C280.177 106.318 280.289 106.476 280.122 106.904ZM280.397 105.964C280.15 105.813 279.671 105.872 279.323 105.945V105.444C279.323 105.334 279.315 105.224 279.301 105.118H274.084C274.07 105.224 274.062 105.334 274.062 105.444V106.461C274.062 107.897 275.246 109.072 276.692 109.072C277.476 109.072 278.182 108.728 278.664 108.183C278.664 108.183 279.906 107.88 280.295 107.421C280.685 106.962 280.811 106.218 280.397 105.964Z" fill="#699DEE"/>
<path d="M274.612 105.444V106.461C274.612 107.897 275.796 109.073 277.241 109.073C277.361 109.073 277.48 109.064 277.596 109.047C276.315 108.876 275.318 107.778 275.318 106.461V105.444C275.318 105.334 275.327 105.224 275.34 105.118H274.633C274.619 105.224 274.612 105.334 274.612 105.444Z" fill="#AFCDFB"/>
<path d="M277.858 108.937H275.711V109.256H277.858V108.937Z" fill="#699DEE"/>
<path d="M294.046 106.904C293.913 107.242 293.321 107.424 293.029 107.494C293.146 107.227 293.219 106.939 293.24 106.635C293.419 106.39 293.705 106.247 293.913 106.285C294.1 106.318 294.212 106.476 294.046 106.904ZM294.321 105.964C294.074 105.813 293.594 105.872 293.246 105.945V105.444C293.246 105.334 293.238 105.224 293.224 105.118H288.007C287.994 105.224 287.985 105.334 287.985 105.444V106.461C287.985 107.897 289.169 109.072 290.616 109.072C291.4 109.072 292.105 108.728 292.588 108.183C292.588 108.183 293.829 107.88 294.219 107.421C294.608 106.962 294.735 106.218 294.321 105.964Z" fill="#699DEE"/>
<path d="M288.352 105.444V106.461C288.352 107.897 289.535 109.073 290.981 109.073C291.101 109.073 291.22 109.064 291.334 109.047C290.054 108.876 289.058 107.778 289.058 106.461V105.444C289.058 105.334 289.066 105.224 289.08 105.118H288.372C288.359 105.224 288.352 105.334 288.352 105.444Z" fill="#AFCDFB"/>
<path d="M291.598 108.937H289.451V109.256H291.598V108.937Z" fill="#699DEE"/>
<path d="M309.285 150H0.309319C0.139235 150 0 149.861 0 149.693V149.618C0 149.449 0.139235 149.311 0.309319 149.311H309.285C309.455 149.311 309.594 149.449 309.594 149.618V149.693C309.594 149.861 309.455 150 309.285 150Z" fill="#2E5B9A"/>
</svg>
