<svg width="158" height="120" viewBox="0 0 158 120" fill="none" xmlns="http://www.w3.org/2000/svg">
<path d="M50.8747 24.8216C57.9115 20.9517 63.2314 16.8094 67.8397 13.2211C68.2188 12.9259 68.5931 12.6345 68.9631 12.3473C73.8857 8.52615 77.9289 5.56023 82.6916 3.94192C92.2728 0.74914 105.504 2.81155 117.323 10.645C129.055 18.4214 139.445 31.8907 147.318 53.4458C151.243 64.2559 154.502 76.9585 155.282 88.1786C155.672 93.7886 155.434 98.9257 154.41 103.228C153.387 107.528 151.619 110.837 149.068 113.032C146.494 115.236 142.846 116.561 138.145 117.145C133.45 117.729 127.92 117.548 121.798 116.926C115.685 116.306 109.107 115.261 102.317 114.165C101.969 114.109 101.621 114.052 101.272 113.996C94.8392 112.956 88.2398 111.889 81.8105 111.142C75.024 110.341 68.4487 109.901 62.2133 109.525C61.2698 109.469 60.335 109.413 59.4088 109.359C54.1895 109.05 49.2445 108.758 44.5683 108.3C33.5108 107.219 24.4572 105.245 17.6348 100.363L17.6275 100.358C10.7885 95.501 5.89598 87.5228 3.732 78.856C1.5662 70.1819 2.20852 61.1296 6.02468 54.1639C9.85042 47.2041 17.0711 41.9456 25.542 37.3376C29.7491 35.0492 34.1653 32.9714 38.511 30.9313L38.7129 30.8365C42.9596 28.843 47.1535 26.8743 50.8747 24.8216ZM50.8747 24.8216C50.8742 24.8218 50.8737 24.8221 50.8732 24.8224L49.6685 22.6318L50.8761 24.8208C50.8756 24.821 50.8752 24.8213 50.8747 24.8216Z" fill="white" stroke="#EAEEF9" stroke-width="5"/>
<g clip-path="url(#clip0)">
<path d="M82.8977 42.374H55.5235C51.913 42.374 48.959 45.3281 48.959 48.9386V71.0611C48.959 74.6716 51.913 77.6257 55.5235 77.6257H82.8977C86.5082 77.6257 89.4623 74.6716 89.4623 71.0611V48.9386C89.4623 45.2624 86.5082 42.374 82.8977 42.374Z" fill="#75A1DE"/>
<path d="M104.101 45.9846C103.707 46.0503 103.314 46.2472 102.985 46.4442L92.7446 52.3523V67.582L103.051 73.4901C104.955 74.6061 107.318 73.9496 108.434 72.0459C108.762 71.4551 108.959 70.7986 108.959 70.0765V49.7921C108.959 47.3632 106.661 45.3938 104.101 45.9846Z" fill="#75A1DE"/>
</g>
<defs>
<clipPath id="clip0">
<rect width="60" height="60" fill="white" transform="translate(48.959 30)"/>
</clipPath>
</defs>
</svg>
