<svg width="168" height="131" viewBox="0 0 168 131" fill="none" xmlns="http://www.w3.org/2000/svg">
<path d="M6.64117 57.7587L6.63961 57.7616C2.08361 66.0778 1.48647 76.4774 3.88092 86.0672C6.27695 95.6633 11.7436 104.76 19.7301 110.433C27.6868 116.124 37.8779 118.18 49.0814 119.277C53.862 119.744 58.9181 120.043 64.1331 120.351C65.0549 120.406 65.9817 120.46 66.9129 120.516C73.1354 120.891 79.591 121.324 86.2272 122.107L86.2314 122.108C92.5469 122.842 99.0454 123.893 105.508 124.937C105.845 124.992 106.183 125.046 106.52 125.101C113.288 126.194 120.01 127.263 126.293 127.901C132.565 128.538 138.523 128.758 143.762 128.107C148.992 127.457 153.722 125.911 157.322 122.828L157.322 122.828L157.326 122.825C160.924 119.731 163.095 115.342 164.275 110.385C165.454 105.428 165.681 99.7475 165.27 93.832C164.448 82.0019 161.042 68.824 157.017 57.7368L157.015 57.7323C148.892 35.4927 137.954 21.0077 125.085 12.4774C112.304 4.0055 97.4754 1.40795 86.1033 5.20084L86.0907 5.20516C80.426 7.12827 75.7711 10.6143 70.8972 14.3975C70.532 14.681 70.1648 14.9668 69.795 15.2546C65.1723 18.8528 60.1401 22.7698 53.4639 26.4411L53.461 26.4427C49.8836 28.4162 45.8149 30.3262 41.5023 32.3507L41.3863 32.4052C37.0603 34.436 32.5109 36.5748 28.1528 38.9454C19.4948 43.6551 11.188 49.4846 6.64117 57.7587Z" fill="white" stroke="#EAEEF9" stroke-width="5"/>
<path d="M103.159 66.9883C103.159 65.7883 102.241 64.8706 101.041 64.8706C99.8411 64.8706 98.9235 65.7883 98.9235 66.9883C98.9235 75.2471 92.2176 81.953 83.9588 81.953C75.7 81.953 68.9941 75.2471 68.9941 66.9883C68.9941 65.7883 68.0764 64.8706 66.8764 64.8706C65.6764 64.8706 64.7588 65.7883 64.7588 66.9883C64.7588 76.8 72.1 85.0588 81.8411 86.1177V91.7647H74.147C72.947 91.7647 72.0294 92.6824 72.0294 93.8824C72.0294 95.0824 72.947 96 74.147 96H93.7705C94.9705 96 95.8882 95.0824 95.8882 93.8824C95.8882 92.6824 94.9705 91.7647 93.7705 91.7647H86.0764V86.1177C95.8176 85.0588 103.159 76.8 103.159 66.9883Z" fill="#E38540"/>
<path d="M83.9591 36C77.465 36 72.1709 41.2941 72.1709 47.7882V66.9176C72.1709 73.4823 77.465 78.7059 83.9591 78.7765C90.4533 78.7765 95.7474 73.4823 95.7474 66.9882V47.7882C95.7474 41.2941 90.4533 36 83.9591 36Z" fill="#E38540"/>
</svg>
