<svg width="158" height="120" viewBox="0 0 158 120" fill="none" xmlns="http://www.w3.org/2000/svg">
<path d="M107.084 95.1784C100.047 99.0483 94.7276 103.191 90.1193 106.779C89.7402 107.074 89.3659 107.366 88.9959 107.653C84.0733 111.474 80.03 114.44 75.2674 116.058C65.6862 119.251 52.4545 117.188 40.6364 109.355C28.9043 101.579 18.5143 88.1093 10.6412 66.5542C6.71624 55.7441 3.45691 43.0415 2.67717 31.8214C2.2873 26.2114 2.52508 21.0743 3.54855 16.7723C4.57165 12.4718 6.33985 9.16253 8.89131 6.96796C11.4654 4.76397 15.1129 3.439 19.8142 2.85464C24.5093 2.27105 30.0394 2.45218 36.1614 3.07352C42.2736 3.69388 48.8524 4.73866 55.6418 5.83524C55.9895 5.8914 56.3378 5.94769 56.6865 6.00406C63.1198 7.04398 69.7192 8.11075 76.1485 8.85837C82.935 9.65915 89.5102 10.0992 95.7457 10.4745C96.6892 10.5313 97.624 10.5866 98.5502 10.6413C103.769 10.9498 108.714 11.2421 113.391 11.6996C124.448 12.7815 133.502 14.7549 140.324 19.6369L140.332 19.6421C147.171 24.499 152.063 32.4772 154.227 41.144C156.393 49.8181 155.75 58.8703 151.934 65.8361C148.109 72.7959 140.888 78.0544 132.417 82.6623C128.21 84.9508 123.794 87.0286 119.448 89.0687L119.246 89.1634C114.999 91.157 110.806 93.1257 107.084 95.1784ZM107.084 95.1784C107.085 95.1782 107.085 95.1779 107.086 95.1776L108.29 97.3682L107.083 95.1792C107.083 95.179 107.084 95.1787 107.084 95.1784Z" fill="white" stroke="#EAEEF9" stroke-width="5"/>
<path d="M82.5156 30H54.3906C51.4827 30 49 32.3655 49 35.2734V45.9375C49 48.8454 51.4827 51.2109 54.3906 51.2109H56.1484V56.4844C56.1484 57.195 56.5758 57.8371 57.2334 58.1082C57.4513 58.1993 57.6796 58.2422 57.9062 58.2422C58.3628 58.2422 58.8126 58.0637 59.149 57.7271L65.6654 51.2109H66.6953V49.4531C66.6953 44.6071 70.6383 40.6641 75.4844 40.6641H87.7891V35.2734C87.7891 32.3655 85.4235 30 82.5156 30ZM61.4219 38.7891C60.4511 38.7891 59.6641 38.002 59.6641 37.0312C59.6641 36.0602 60.4511 35.2734 61.4219 35.2734C62.3927 35.2734 63.1797 36.0602 63.1797 37.0312C63.1797 38.002 62.3927 38.7891 61.4219 38.7891ZM68.4531 38.7891C67.4823 38.7891 66.6953 38.002 66.6953 37.0312C66.6953 36.0602 67.4823 35.2734 68.4531 35.2734C69.4239 35.2734 70.2109 36.0602 70.2109 37.0312C70.2109 38.002 69.4239 38.7891 68.4531 38.7891ZM75.4844 38.7891C74.5136 38.7891 73.7266 38.002 73.7266 37.0312C73.7266 36.0602 74.5136 35.2734 75.4844 35.2734C76.4552 35.2734 77.2422 36.0602 77.2422 37.0312C77.2422 38.002 76.4552 38.7891 75.4844 38.7891Z" fill="#9CD499"/>
<path d="M103.609 44.1797H75.4844C72.5765 44.1797 70.2109 46.5452 70.2109 49.4531V58.2422H82.5156C86.7597 58.2422 90.3101 61.2667 91.1268 65.2734H93.411L98.7428 71.6729C99.0844 72.0816 99.5822 72.3047 100.094 72.3047C100.295 72.3047 100.497 72.2703 100.693 72.1999C101.388 71.9476 101.852 71.2867 101.852 70.5469V65.2734H103.609C106.517 65.2734 109 62.9079 109 60V49.4531C109 46.5452 106.517 44.1797 103.609 44.1797ZM82.5156 56.4844C81.5448 56.4844 80.7578 55.6973 80.7578 54.7266C80.7578 53.7555 81.5448 52.9688 82.5156 52.9688C83.4864 52.9688 84.2734 53.7555 84.2734 54.7266C84.2734 55.6973 83.4864 56.4844 82.5156 56.4844ZM89.5469 56.4844C88.5761 56.4844 87.7891 55.6973 87.7891 54.7266C87.7891 53.7555 88.5761 52.9688 89.5469 52.9688C90.5177 52.9688 91.3047 53.7555 91.3047 54.7266C91.3047 55.6973 90.5177 56.4844 89.5469 56.4844ZM96.5781 56.4844C95.6073 56.4844 94.8203 55.6973 94.8203 54.7266C94.8203 53.7555 95.6073 52.9688 96.5781 52.9688C97.5489 52.9688 98.3359 53.7555 98.3359 54.7266C98.3359 55.6973 97.5489 56.4844 96.5781 56.4844Z" fill="#9CD499"/>
<path d="M82.5156 61.7578H54.3906C51.4827 61.7578 49 64.1234 49 67.0312V77.5781C49 80.486 51.4827 82.8516 54.3906 82.8516H56.1484V88.2422C56.1484 88.9528 56.5758 89.5949 57.2334 89.8661C57.4513 89.9571 57.6796 90 57.9062 90C58.3628 90 58.8126 89.8215 59.149 89.485L65.6654 82.8516H82.5156C85.4235 82.8516 87.7891 80.486 87.7891 77.5781V67.0312C87.7891 64.1234 85.4235 61.7578 82.5156 61.7578ZM61.4219 74.0625C60.4511 74.0625 59.6641 73.2755 59.6641 72.3047C59.6641 71.3337 60.4511 70.5469 61.4219 70.5469C62.3927 70.5469 63.1797 71.3337 63.1797 72.3047C63.1797 73.2755 62.3927 74.0625 61.4219 74.0625ZM68.4531 74.0625C67.4823 74.0625 66.6953 73.2755 66.6953 72.3047C66.6953 71.3337 67.4823 70.5469 68.4531 70.5469C69.4239 70.5469 70.2109 71.3337 70.2109 72.3047C70.2109 73.2755 69.4239 74.0625 68.4531 74.0625ZM75.4844 74.0625C74.5136 74.0625 73.7266 73.2755 73.7266 72.3047C73.7266 71.3337 74.5136 70.5469 75.4844 70.5469C76.4552 70.5469 77.2422 71.3337 77.2422 72.3047C77.2422 73.2755 76.4552 74.0625 75.4844 74.0625Z" fill="#9CD499"/>
</svg>
