<svg width="484" height="292" viewBox="0 0 484 292" fill="none" xmlns="http://www.w3.org/2000/svg">
<path d="M360.674 233.83H63.9743C51.4744 233.83 41.3394 223.695 41.3394 211.196V199.278H383.309V211.196C383.309 223.695 373.173 233.83 360.674 233.83Z" fill="#678EC4"/>
<path d="M248.095 233.836H177.913V264.068H248.095V233.836Z" fill="#75A1DE"/>
<path d="M383.309 199.838H41.3394V20.9209C41.3394 9.367 50.704 0 62.2603 0H362.387C373.941 0 383.309 9.367 383.309 20.9209V199.838Z" fill="#75A1DE"/>
<path d="M371.518 14.377H55.1978V187.498H371.518V14.377Z" fill="white"/>
<path d="M220.011 215.012C220.011 219.279 216.554 222.734 212.288 222.734C208.021 222.734 204.564 219.279 204.564 215.012C204.564 210.746 208.021 207.289 212.288 207.289C216.554 207.289 220.011 210.746 220.011 215.012Z" fill="white"/>
<path d="M278.143 274.174H146.642C146.642 268.586 151.171 264.056 156.76 264.056H268.025C273.613 264.056 278.143 268.586 278.143 274.174Z" fill="#678EC3"/>
<path d="M328.496 74.3902H217.618C216.033 74.3902 214.751 73.1053 214.751 71.5206V71.2451C214.751 69.6603 216.033 68.3755 217.618 68.3755H328.496C330.081 68.3755 331.368 69.6603 331.368 71.2451V71.5206C331.368 73.1053 330.081 74.3902 328.496 74.3902Z" fill="#E7F3FE"/>
<path d="M296.852 105.75H217.618C216.033 105.75 214.751 104.465 214.751 102.88V102.607C214.751 101.023 216.033 99.7354 217.618 99.7354H296.852C298.44 99.7354 299.722 101.023 299.722 102.607V102.88C299.722 104.465 298.44 105.75 296.852 105.75Z" fill="#E7F3FE"/>
<path d="M328.36 121.43H217.618C216.033 121.43 214.751 120.145 214.751 118.56V118.287C214.751 116.7 216.033 115.415 217.618 115.415H328.36C330.02 115.415 331.368 116.763 331.368 118.424C331.368 120.084 330.02 121.43 328.36 121.43Z" fill="#E7F3FE"/>
<path d="M246.636 137.107H217.618C216.033 137.107 214.751 135.823 214.751 134.24V133.965C214.751 132.38 216.033 131.095 217.618 131.095H246.636C248.221 131.095 249.505 132.38 249.505 133.965V134.24C249.505 135.823 248.221 137.107 246.636 137.107Z" fill="#E7F3FE"/>
<path d="M275.422 90.0704H217.618C216.033 90.0704 214.751 88.7855 214.751 87.2008V86.9253C214.751 85.3405 216.033 84.0557 217.618 84.0557H275.422C277.009 84.0557 278.294 85.3405 278.294 86.9253V87.2008C278.294 88.7855 277.009 90.0704 275.422 90.0704Z" fill="#E7F3FE"/>
<path d="M73.2368 136.174H10.6665C4.77615 136.174 0 140.948 0 146.838V281.324C0 287.214 4.77615 291.99 10.6665 291.99H73.2368C79.1271 291.99 83.9008 287.214 83.9008 281.324V146.838C83.9008 140.948 79.1271 136.174 73.2368 136.174Z" fill="#75A1DE"/>
<path d="M39.9896 286.016C36.4228 286.016 33.5215 283.113 33.5215 279.543C33.5215 275.976 36.4228 273.073 39.9896 273.073C43.559 273.073 46.4627 275.976 46.4627 279.543C46.4627 283.113 43.559 286.016 39.9896 286.016Z" fill="white"/>
<path d="M76.7731 149.854H6.15967V267.181H76.7731V149.854Z" fill="white"/>
<path d="M40.4613 224.464H20.874C19.2893 224.464 18.0044 223.179 18.0044 221.597V221.322C18.0044 219.737 19.2893 218.452 20.874 218.452H40.4613C42.0461 218.452 43.3334 219.737 43.3334 221.322V221.597C43.3334 223.179 42.0461 224.464 40.4613 224.464Z" fill="#E7F3FE"/>
<path d="M40.4613 252.036H20.874C19.2893 252.036 18.0044 250.751 18.0044 249.167V248.891C18.0044 247.309 19.2893 246.021 20.874 246.021H40.4613C42.0461 246.021 43.3334 247.309 43.3334 248.891V249.167C43.3334 250.751 42.0461 252.036 40.4613 252.036Z" fill="#E7F3FE"/>
<path d="M63.8399 238.264H20.874C19.2893 238.264 18.0044 236.982 18.0044 235.397V235.122C18.0044 233.537 19.2893 232.252 20.874 232.252H63.8399C65.4246 232.252 66.7095 233.537 66.7095 235.122V235.397C66.7095 236.982 65.4246 238.264 63.8399 238.264Z" fill="#E7F3FE"/>
<path d="M469.599 94.627H357.49C350.029 94.627 343.98 100.676 343.98 108.139V278.488C343.98 285.949 350.029 292 357.49 292H469.599C477.059 292 483.108 285.949 483.108 278.488V108.139C483.108 100.676 477.059 94.627 469.599 94.627Z" fill="#75A1DE"/>
<path d="M411.518 284.413C407 284.413 403.324 280.736 403.324 276.218C403.324 271.698 407 268.024 411.518 268.024C416.038 268.024 419.715 271.698 419.715 276.218C419.715 280.736 416.038 284.413 411.518 284.413Z" fill="white"/>
<path d="M474.093 111.936H351.798V260.557H474.093V111.936Z" fill="white"/>
<path d="M392.494 229.916H372.907C371.322 229.916 370.04 228.628 370.04 227.046V226.77C370.04 225.186 371.322 223.901 372.907 223.901H392.494C394.081 223.901 395.364 225.186 395.364 226.77V227.046C395.364 228.628 394.081 229.916 392.494 229.916Z" fill="#E7F3FE"/>
<path d="M453.25 243.73H372.907C371.322 243.73 370.04 242.443 370.04 240.86V240.585C370.04 239 371.322 237.715 372.907 237.715H453.25C454.835 237.715 456.12 239 456.12 240.585V240.86C456.12 242.443 454.835 243.73 453.25 243.73Z" fill="#E7F3FE"/>
<g clip-path="url(#clip0)">
<path d="M154.668 73.5103H120.554C117.027 73.5103 114.016 76.3795 114.016 79.9066V92.8414C114.016 96.3684 117.027 99.2377 120.554 99.2377H122.686V105.634C122.686 106.496 123.205 107.275 124.002 107.604C124.267 107.714 124.543 107.766 124.818 107.766C125.372 107.766 125.918 107.55 126.326 107.141L134.23 99.2377H135.479V97.1056C135.479 91.2276 140.261 86.445 146.139 86.445H161.064V79.9066C161.064 76.3795 158.195 73.5103 154.668 73.5103ZM129.083 84.1708C127.905 84.1708 126.95 83.2162 126.95 82.0387C126.95 80.8609 127.905 79.9066 129.083 79.9066C130.26 79.9066 131.215 80.8609 131.215 82.0387C131.215 83.2162 130.26 84.1708 129.083 84.1708ZM137.611 84.1708C136.433 84.1708 135.479 83.2162 135.479 82.0387C135.479 80.8609 136.433 79.9066 137.611 79.9066C138.788 79.9066 139.743 80.8609 139.743 82.0387C139.743 83.2162 138.788 84.1708 137.611 84.1708ZM146.139 84.1708C144.962 84.1708 144.007 83.2162 144.007 82.0387C144.007 80.8609 144.962 79.9066 146.139 79.9066C147.317 79.9066 148.272 80.8609 148.272 82.0387C148.272 83.2162 147.317 84.1708 146.139 84.1708Z" fill="#9CD499"/>
<path d="M180.253 90.7095H146.139C142.612 90.7095 139.743 93.5787 139.743 97.1058V107.766H154.668C159.816 107.766 164.122 111.435 165.113 116.295H167.883L174.35 124.057C174.765 124.553 175.369 124.823 175.989 124.823C176.233 124.823 176.478 124.782 176.716 124.696C177.559 124.39 178.121 123.588 178.121 122.691V116.295H180.253C183.78 116.295 186.792 113.426 186.792 109.898V97.1058C186.792 93.5787 183.78 90.7095 180.253 90.7095ZM154.668 105.634C153.49 105.634 152.536 104.68 152.536 103.502C152.536 102.324 153.49 101.37 154.668 101.37C155.845 101.37 156.8 102.324 156.8 103.502C156.8 104.68 155.845 105.634 154.668 105.634ZM163.196 105.634C162.019 105.634 161.064 104.68 161.064 103.502C161.064 102.324 162.019 101.37 163.196 101.37C164.374 101.37 165.328 102.324 165.328 103.502C165.328 104.68 164.374 105.634 163.196 105.634ZM171.725 105.634C170.547 105.634 169.593 104.68 169.593 103.502C169.593 102.324 170.547 101.37 171.725 101.37C172.902 101.37 173.857 102.324 173.857 103.502C173.857 104.68 172.902 105.634 171.725 105.634Z" fill="#9CD499"/>
<path d="M154.668 112.03H120.554C117.027 112.03 114.016 114.9 114.016 118.427V131.219C114.016 134.746 117.027 137.616 120.554 137.616H122.686V144.154C122.686 145.016 123.205 145.795 124.002 146.124C124.267 146.234 124.543 146.286 124.818 146.286C125.372 146.286 125.918 146.07 126.326 145.661L134.23 137.616H154.668C158.195 137.616 161.064 134.746 161.064 131.219V118.427C161.064 114.9 158.195 112.03 154.668 112.03ZM129.083 126.955C127.905 126.955 126.95 126 126.95 124.823C126.95 123.645 127.905 122.691 129.083 122.691C130.26 122.691 131.215 123.645 131.215 124.823C131.215 126 130.26 126.955 129.083 126.955ZM137.611 126.955C136.433 126.955 135.479 126 135.479 124.823C135.479 123.645 136.433 122.691 137.611 122.691C138.788 122.691 139.743 123.645 139.743 124.823C139.743 126 138.788 126.955 137.611 126.955ZM146.139 126.955C144.962 126.955 144.007 126 144.007 124.823C144.007 123.645 144.962 122.691 146.139 122.691C147.317 122.691 148.272 123.645 148.272 124.823C148.272 126 147.317 126.955 146.139 126.955Z" fill="#9CD499"/>
</g>
<g clip-path="url(#clip1)">
<path d="M47.6882 180.249H30.0628C28.2405 180.249 26.6846 181.731 26.6846 183.553V190.236C26.6846 192.059 28.2405 193.541 30.0628 193.541H31.1644V196.846C31.1644 197.291 31.4322 197.694 31.8443 197.863C31.9809 197.921 32.1239 197.947 32.266 197.947C32.5521 197.947 32.8339 197.836 33.0448 197.625L37.1284 193.541H37.7739V192.439C37.7739 189.403 40.2449 186.932 43.2819 186.932H50.993V183.553C50.993 181.731 49.5105 180.249 47.6882 180.249ZM34.4691 185.756C33.8608 185.756 33.3675 185.263 33.3675 184.655C33.3675 184.046 33.8608 183.553 34.4691 183.553C35.0775 183.553 35.5707 184.046 35.5707 184.655C35.5707 185.263 35.0775 185.756 34.4691 185.756ZM38.8755 185.756C38.2671 185.756 37.7739 185.263 37.7739 184.655C37.7739 184.046 38.2671 183.553 38.8755 183.553C39.4839 183.553 39.9771 184.046 39.9771 184.655C39.9771 185.263 39.4839 185.756 38.8755 185.756ZM43.2819 185.756C42.6735 185.756 42.1803 185.263 42.1803 184.655C42.1803 184.046 42.6735 183.553 43.2819 183.553C43.8902 183.553 44.3834 184.046 44.3834 184.655C44.3834 185.263 43.8902 185.756 43.2819 185.756Z" fill="#E38540"/>
<path d="M60.9073 189.135H43.2818C41.4595 189.135 39.9771 190.617 39.9771 192.44V197.947H47.6882C50.3479 197.947 52.5728 199.843 53.0846 202.354H54.5161L57.8575 206.364C58.0715 206.62 58.3835 206.76 58.7041 206.76C58.8299 206.76 58.9569 206.739 59.0795 206.695C59.5152 206.536 59.8057 206.122 59.8057 205.659V202.354H60.9073C62.7296 202.354 64.2855 200.871 64.2855 199.049V192.44C64.2855 190.617 62.7296 189.135 60.9073 189.135ZM47.6882 196.846C47.0798 196.846 46.5866 196.353 46.5866 195.744C46.5866 195.136 47.0798 194.643 47.6882 194.643C48.2965 194.643 48.7898 195.136 48.7898 195.744C48.7898 196.353 48.2965 196.846 47.6882 196.846ZM52.0945 196.846C51.4862 196.846 50.9929 196.353 50.9929 195.744C50.9929 195.136 51.4862 194.643 52.0945 194.643C52.7029 194.643 53.1961 195.136 53.1961 195.744C53.1961 196.353 52.7029 196.846 52.0945 196.846ZM56.5009 196.846C55.8925 196.846 55.3993 196.353 55.3993 195.744C55.3993 195.136 55.8925 194.643 56.5009 194.643C57.1093 194.643 57.6025 195.136 57.6025 195.744C57.6025 196.353 57.1093 196.846 56.5009 196.846Z" fill="#E38540"/>
<path d="M47.6882 200.15H30.0628C28.2405 200.15 26.6846 201.633 26.6846 203.455V210.065C26.6846 211.887 28.2405 213.369 30.0628 213.369H31.1644V216.748C31.1644 217.193 31.4322 217.595 31.8443 217.765C31.9809 217.822 32.1239 217.849 32.266 217.849C32.5521 217.849 32.8339 217.737 33.0448 217.526L37.1284 213.369H47.6882C49.5105 213.369 50.993 211.887 50.993 210.065V203.455C50.993 201.633 49.5105 200.15 47.6882 200.15ZM34.4691 207.862C33.8608 207.862 33.3675 207.368 33.3675 206.76C33.3675 206.151 33.8608 205.658 34.4691 205.658C35.0775 205.658 35.5707 206.151 35.5707 206.76C35.5707 207.368 35.0775 207.862 34.4691 207.862ZM38.8755 207.862C38.2671 207.862 37.7739 207.368 37.7739 206.76C37.7739 206.151 38.2671 205.658 38.8755 205.658C39.4839 205.658 39.9771 206.151 39.9771 206.76C39.9771 207.368 39.4839 207.862 38.8755 207.862ZM43.2819 207.862C42.6735 207.862 42.1803 207.368 42.1803 206.76C42.1803 206.151 42.6735 205.658 43.2819 205.658C43.8902 205.658 44.3834 206.151 44.3834 206.76C44.3834 207.368 43.8902 207.862 43.2819 207.862Z" fill="#E38540"/>
</g>
<g clip-path="url(#clip2)">
<path d="M421.797 141.435H385.409C381.647 141.435 378.435 144.495 378.435 148.257V162.054C378.435 165.817 381.647 168.877 385.409 168.877H387.684V175.7C387.684 176.619 388.237 177.45 389.087 177.801C389.369 177.919 389.665 177.974 389.958 177.974C390.549 177.974 391.131 177.743 391.566 177.308L399.997 168.877H401.329V166.603C401.329 160.333 406.431 155.232 412.7 155.232H428.62V148.257C428.62 144.495 425.56 141.435 421.797 141.435ZM394.506 152.806C393.25 152.806 392.232 151.788 392.232 150.532C392.232 149.275 393.25 148.257 394.506 148.257C395.762 148.257 396.781 149.275 396.781 150.532C396.781 151.788 395.762 152.806 394.506 152.806ZM403.603 152.806C402.347 152.806 401.329 151.788 401.329 150.532C401.329 149.275 402.347 148.257 403.603 148.257C404.859 148.257 405.878 149.275 405.878 150.532C405.878 151.788 404.859 152.806 403.603 152.806ZM412.7 152.806C411.444 152.806 410.426 151.788 410.426 150.532C410.426 149.275 411.444 148.257 412.7 148.257C413.956 148.257 414.975 149.275 414.975 150.532C414.975 151.788 413.956 152.806 412.7 152.806Z" fill="#F39892"/>
<path d="M449.088 159.78H412.7C408.938 159.78 405.877 162.841 405.877 166.603V177.974H421.797C427.288 177.974 431.882 181.887 432.938 187.071H435.894L442.792 195.351C443.234 195.88 443.878 196.168 444.54 196.168C444.8 196.168 445.062 196.124 445.315 196.033C446.214 195.706 446.814 194.851 446.814 193.894V187.071H449.088C452.85 187.071 456.063 184.011 456.063 180.249V166.603C456.063 162.841 452.85 159.78 449.088 159.78ZM421.797 175.7C420.541 175.7 419.523 174.682 419.523 173.426C419.523 172.169 420.541 171.152 421.797 171.152C423.053 171.152 424.071 172.169 424.071 173.426C424.071 174.682 423.053 175.7 421.797 175.7ZM430.894 175.7C429.638 175.7 428.62 174.682 428.62 173.426C428.62 172.169 429.638 171.152 430.894 171.152C432.15 171.152 433.168 172.169 433.168 173.426C433.168 174.682 432.15 175.7 430.894 175.7ZM439.991 175.7C438.735 175.7 437.717 174.682 437.717 173.426C437.717 172.169 438.735 171.152 439.991 171.152C441.247 171.152 442.265 172.169 442.265 173.426C442.265 174.682 441.247 175.7 439.991 175.7Z" fill="#F39892"/>
<path d="M421.797 182.522H385.409C381.647 182.522 378.435 185.583 378.435 189.345V202.991C378.435 206.753 381.647 209.813 385.409 209.813H387.684V216.788C387.684 217.707 388.237 218.538 389.087 218.889C389.369 219.007 389.665 219.062 389.958 219.062C390.549 219.062 391.131 218.831 391.566 218.396L399.997 209.813H421.797C425.56 209.813 428.62 206.753 428.62 202.991V189.345C428.62 185.583 425.56 182.522 421.797 182.522ZM394.506 198.442C393.25 198.442 392.232 197.424 392.232 196.168C392.232 194.912 393.25 193.894 394.506 193.894C395.762 193.894 396.781 194.912 396.781 196.168C396.781 197.424 395.762 198.442 394.506 198.442ZM403.603 198.442C402.347 198.442 401.329 197.424 401.329 196.168C401.329 194.912 402.347 193.894 403.603 193.894C404.859 193.894 405.878 194.912 405.878 196.168C405.878 197.424 404.859 198.442 403.603 198.442ZM412.7 198.442C411.444 198.442 410.426 197.424 410.426 196.168C410.426 194.912 411.444 193.894 412.7 193.894C413.956 193.894 414.975 194.912 414.975 196.168C414.975 197.424 413.956 198.442 412.7 198.442Z" fill="#F39892"/>
</g>
<defs>
<clipPath id="clip0">
<rect width="72.776" height="72.776" fill="white" transform="translate(114.016 73.5103)"/>
</clipPath>
<clipPath id="clip1">
<rect width="37.6009" height="37.6009" fill="white" transform="translate(26.6846 180.249)"/>
</clipPath>
<clipPath id="clip2">
<rect width="77.6277" height="77.6277" fill="white" transform="translate(378.435 141.435)"/>
</clipPath>
</defs>
</svg>
