<svg width="168" height="131" viewBox="0 0 168 131" fill="none" xmlns="http://www.w3.org/2000/svg">
<path d="M161.318 73.2412L161.319 73.2384C165.875 64.9222 166.473 54.5226 164.078 44.9328C161.682 35.3367 156.215 26.24 148.229 20.5671C140.272 14.8756 130.081 12.8195 118.878 11.7234C114.097 11.2557 109.041 10.957 103.826 10.6488C102.904 10.5944 101.977 10.5396 101.046 10.4836C94.8236 10.1091 88.3679 9.67563 81.7318 8.8925L81.7276 8.89201C75.4121 8.15768 68.9136 7.1073 62.4509 6.06271C62.1135 6.00818 61.7762 5.95366 61.4391 5.89921C54.6705 4.80599 47.9485 3.73669 41.6663 3.09908C35.3938 2.46246 29.4355 2.24174 24.1974 2.89282C18.9666 3.54301 14.2367 5.08876 10.637 8.17201L10.637 8.17201L10.6334 8.17506C7.03535 11.2686 4.86362 15.658 3.68431 20.6151C2.50511 25.5717 2.2781 31.2525 2.6892 37.168C3.51133 48.9981 6.91656 62.176 10.9424 73.2632L10.944 73.2677C19.0668 95.5073 30.0045 109.992 42.874 118.523C55.6553 126.994 70.4836 129.592 81.8557 125.799L81.8683 125.795C87.533 123.872 92.1879 120.386 97.0618 116.602C97.427 116.319 97.7942 116.033 98.164 115.745C102.787 112.147 107.819 108.23 114.495 104.559L114.498 104.557C118.075 102.584 122.144 100.674 126.457 98.6493L126.573 98.5948C130.899 96.564 135.448 94.4252 139.806 92.0546C148.464 87.3449 156.771 81.5154 161.318 73.2412Z" fill="white" stroke="#EAEEF9" stroke-width="5"/>
<path d="M89.5785 79.1582C88.0482 77.6533 86.1416 77.6533 84.6239 79.1582C83.4699 80.312 82.3034 81.4533 81.162 82.6322C80.8484 82.9457 80.585 83.021 80.2087 82.8078C79.4561 82.4065 78.6659 82.0678 77.9384 81.6164C74.5768 79.5094 71.7671 76.7879 69.271 73.7278C68.0293 72.2103 66.9255 70.5799 66.1729 68.7614C66.0224 68.3852 66.0474 68.1469 66.3485 67.8459C67.5025 66.7297 68.6439 65.5759 69.7728 64.4347C71.3532 62.8419 71.3532 60.9733 69.7602 59.3554C68.8571 58.4399 67.9415 57.5369 67.0384 56.6339C66.0976 55.6933 65.182 54.7527 64.2287 53.8372C62.6984 52.3323 60.7919 52.3323 59.2741 53.8372C58.1076 54.9785 56.9787 56.1699 55.7997 57.2861C54.6959 58.3396 54.144 59.6062 54.0311 61.0987C53.8555 63.5192 54.445 65.8017 55.2729 68.0466C56.9913 72.6618 59.6002 76.7503 62.7611 80.5127C67.0258 85.592 72.1309 89.6177 78.1015 92.5148C80.7857 93.8191 83.5828 94.8224 86.6057 94.9854C88.6879 95.0983 90.5067 94.5716 91.9491 92.9538C92.94 91.8376 94.0564 90.8343 95.11 89.7682C96.6654 88.2006 96.6779 86.2817 95.1351 84.7266C93.2913 82.8579 91.4349 81.0018 89.5785 79.1582Z" fill="#F39892"/>
<path d="M94.9849 35C84.4862 35 75.9819 43.503 75.9819 54.0002C75.9819 58.954 77.876 63.4689 80.9867 66.8425C80.2592 68.3224 79.0676 70.0782 77.2363 70.9686C76.5965 71.2822 76.7471 72.2353 77.4495 72.3482C79.5191 72.6743 82.4668 72.3231 85.2514 70.304C88.0987 72.0096 91.4351 72.9878 94.9974 72.9878C105.496 72.9878 114 64.4848 114 53.9876C113.988 43.5156 105.484 35 94.9849 35ZM94.9849 45.2714C90.1683 45.2714 86.2548 49.1843 86.2548 54.0002C86.2548 55.2543 85.2388 56.2702 83.9845 56.2702C82.7302 56.2702 81.7142 55.2543 81.7142 54.0002C81.7142 46.676 87.6722 40.7189 94.9974 40.7189C96.2517 40.7189 97.2677 41.7347 97.2677 42.9889C97.2552 44.2555 96.2392 45.2714 94.9849 45.2714Z" fill="#F39892"/>
</svg>
