<svg width="458" height="225" viewBox="0 0 458 225" fill="none" xmlns="http://www.w3.org/2000/svg">
<g clip-path="url(#clip0)">
<path d="M22.7029 223.83C22.7029 223.83 -15.6655 175.971 7.3562 130.429C30.3779 84.8867 74.1149 95.6913 135.492 49.3759C210.024 -6.85181 262.356 -9.94215 328.882 14.6385C366.481 28.5202 372.619 85.6568 432.471 121.164C486.429 153.175 442.449 207.621 414.072 216.112C385.695 224.603 366.498 224.603 366.498 224.603L22.7029 223.83Z" fill="#F5F6FA"/>
<path d="M251.127 120.936C241.549 140.49 229.544 193.928 226.268 196.856C222.993 199.785 204.075 211.131 200.802 216.621C197.53 222.111 198.982 220.28 200.437 220.647C201.893 221.014 284.12 221.377 284.12 221.377C284.12 221.377 274.671 164.647 273.567 164.267C272.463 163.887 251.127 120.936 251.127 120.936Z" fill="#A2DFF2"/>
<path d="M237.511 221.116C252.625 221.222 268.55 221.305 277.322 221.351L265.31 149.087C258.903 136.593 251.127 120.936 251.127 120.936C249.921 123.402 248.672 126.407 247.411 129.778C246.165 184.052 253.936 199.263 248.101 208.934C243.543 216.489 239.387 219.857 237.511 221.116Z" fill="#96CFE0"/>
<path d="M408.237 225H13.3982C12.5905 225 11.8158 224.677 11.2446 224.102C10.6734 223.528 10.3525 222.749 10.3525 221.936C10.3525 221.123 10.6734 220.344 11.2446 219.769C11.8158 219.195 12.5905 218.872 13.3982 218.872H408.237C409.045 218.872 409.82 219.195 410.391 219.769C410.962 220.344 411.283 221.123 411.283 221.936C411.283 222.749 410.962 223.528 410.391 224.102C409.82 224.677 409.045 225 408.237 225Z" fill="#2E5B9A"/>
<path d="M301.553 97.3344C315.211 110.016 345.608 122.041 345.608 122.041C345.608 122.041 350.228 164.972 347.077 189.278C343.926 213.584 345.674 218.515 345.674 218.515H282.993C282.993 218.515 274.582 206.772 259.179 170.26C249.372 147.005 251.126 120.937 251.126 120.937L289.298 103.674L301.553 97.3344Z" fill="#A2DFF2"/>
<path d="M282.993 218.515H345.674C345.674 218.515 343.926 213.584 347.077 189.278C349.673 169.262 346.998 136.623 345.973 125.719L340.273 123.26C325.961 127.411 317.714 148.882 315.303 169.863C313.68 183.904 290.553 197.726 275.426 205.338C280.384 214.873 282.993 218.515 282.993 218.515Z" fill="#96CFE0"/>
<path d="M267.626 53.2694C260.07 70.1985 269.138 85.8816 268.865 85.2206C268.592 84.5595 280.302 56.6374 280.302 56.6374L267.626 53.2694Z" fill="#2E5B9A"/>
<path d="M296.26 65.7897L305.84 101.026C305.973 101.516 305.988 102.03 305.883 102.526C305.777 103.023 305.556 103.486 305.236 103.879C302.988 106.665 299.788 112.393 293.332 114.23C292.006 114.557 290.643 114.712 289.278 114.69C288.64 114.693 288.021 114.472 287.528 114.066C287.035 113.659 286.699 113.092 286.577 112.462L280.157 79.0435L296.26 65.7897Z" fill="#F09959"/>
<path d="M294.43 68.7476L290.927 70.1919L280.157 79.0432L285.936 108.671C295.741 102.523 297.17 98.3752 294.43 68.7476Z" fill="#E38540"/>
<path d="M295.908 81.3766C293.785 92.9678 285.164 100.808 276.648 98.894C268.132 96.9803 264.071 89.4709 265.073 74.4357C265.855 62.6362 271.644 49.8088 280.157 51.7291C288.67 53.6494 298.027 69.7853 295.908 81.3766Z" fill="#F09959"/>
<path d="M345.609 122.041C358.291 124.923 360.647 150.836 364.773 178.166C365.246 181.313 367.681 207.936 367.681 207.936C367.676 209.468 367.241 210.967 366.428 212.262C365.614 213.557 364.454 214.595 363.081 215.257C358.935 217.342 357.259 218.916 333.245 219.16C310.181 219.395 280.447 218.43 280.447 218.43C280.447 218.43 280.184 209.797 282.549 205.576C286.108 199.233 322.571 190.121 325.968 189.635C326.454 182.803 322.62 158.081 327.91 141.32C331.547 129.788 335.466 123.75 340.358 122.173C342.064 121.65 343.879 121.604 345.609 122.041Z" fill="#A2DFF2"/>
<path d="M293.48 218.955C304.851 219.127 320.454 219.285 333.235 219.16C357.249 218.915 358.925 217.342 363.071 215.256C367.92 212.814 368.163 208.666 368.163 208.666C368.163 208.666 365.712 180.337 365.252 177.191C362.585 158.887 359.703 137.945 352.991 127.838C359.299 146.436 360.314 162.126 360.429 168.822C360.485 172.216 360.173 176.863 359.187 180.112C358.097 183.709 355.307 185.966 350.941 184.74C342.211 182.3 331.293 187.424 331.293 187.424C331.293 187.424 339.54 184.495 347.304 187.182C355.067 189.869 371.074 207.674 353.609 214.265C348.266 216.294 316.259 217.94 293.48 218.955Z" fill="#96CFE0"/>
<path d="M284.481 206.388C284.481 206.388 287.717 200.859 294.338 200.859C300.958 200.859 300.482 211.766 299.513 215.336C298.543 218.905 294.66 219.077 294.66 219.077L280.43 218.416L284.481 206.388Z" fill="#96CFE0"/>
<path d="M270.054 215.901H180.346C178.987 215.901 177.885 217.009 177.885 218.377V219.087C177.885 220.454 178.987 221.563 180.346 221.563H270.054C271.413 221.563 272.515 220.454 272.515 219.087V218.377C272.515 217.009 271.413 215.901 270.054 215.901Z" fill="#75A1DE"/>
<path d="M282.704 207.04C268.796 201.996 265.149 203.896 262.005 202.974C254.241 200.697 252.303 202.644 247.289 216.476C246.303 219.229 249.231 219.404 252.142 219.404C255.053 219.404 258.608 213.709 259.741 213.058C260.875 212.407 263.947 212.067 263.947 212.067C263.947 212.067 262.961 212.067 261.519 214.995C260.076 217.924 258.286 219.061 260.533 219.061C262.78 219.061 263.119 215.319 267.324 216.132C271.53 216.945 269.913 219.06 280.424 218.899C290.934 218.737 298.869 218.899 298.698 212.556C298.534 206.537 299.197 203.526 293.523 202.469C289.173 201.672 282.704 207.04 282.704 207.04Z" fill="#F09959"/>
<path d="M282.884 207.04C292.182 205.982 289.455 217.636 288.469 218.608C287.484 219.579 293.644 218.938 293.644 218.938C293.644 218.938 296.532 214.261 294.107 208.894C291.683 203.526 286.83 203.275 286.83 203.275L282.723 205.582L282.884 207.04Z" fill="#A86B48"/>
<path d="M292.593 206.025C292.475 207.469 290.034 208.444 287.146 208.2C284.258 207.955 282.011 206.59 282.132 205.146C282.254 203.701 284.692 202.73 287.58 202.971C290.467 203.212 292.715 204.59 292.593 206.025Z" fill="#2E5B9A"/>
<path d="M291.854 205.308C291.749 206.597 289.554 207.47 286.988 207.252C284.422 207.033 282.388 205.814 282.506 204.522C282.625 203.229 284.806 202.363 287.376 202.581C289.945 202.8 291.962 204.019 291.854 205.308Z" fill="#3E6BAB"/>
<path d="M290.24 204.71C290.165 205.638 288.598 206.266 286.738 206.108C284.878 205.949 283.436 205.073 283.512 204.144C283.587 203.216 285.154 202.591 287.017 202.746C288.88 202.902 290.319 203.781 290.24 204.71Z" fill="#F0CEB4"/>
<path d="M177.064 203.685H86.7116C84.3937 203.674 82.1536 202.843 80.3826 201.339C78.6116 199.834 77.4223 197.752 77.0225 195.455L65.2373 130.013C64.1235 123.842 68.7725 118.15 74.923 118.15H165.279C167.597 118.163 169.837 118.994 171.608 120.499C173.379 122.004 174.568 124.086 174.968 126.384L186.753 191.826C187.867 197.997 183.218 203.685 177.064 203.685Z" fill="#75A1DE"/>
<path d="M181.289 192.071L169.258 127.977C168.384 123.307 164.224 119.915 159.371 119.915H67.5308C66.5345 121.075 65.8104 122.444 65.4123 123.924C65.0141 125.403 64.9522 126.953 65.231 128.459L77.4334 195.283C77.8627 197.643 79.1015 199.777 80.9339 201.312C82.7663 202.847 85.0761 203.687 87.4609 203.685H171.406C177.678 203.685 182.423 198.116 181.289 192.071Z" fill="#A8CEFF"/>
<path d="M159.496 212.451H142.342C139.28 212.451 136.8 209.711 136.8 206.329V174.775C136.8 169.394 132.857 165.031 127.984 165.031H119.022C114.152 165.031 110.203 169.394 110.203 174.775V210.111C110.203 216.156 114.655 221.041 120.122 221.018L166.944 220.687C166.944 216.136 163.619 212.451 159.496 212.451Z" fill="#75A1DE"/>
<path d="M110.887 175.482V210.279C110.887 212.988 111.907 215.597 113.741 217.581C115.574 219.565 118.087 220.777 120.773 220.974L166.468 220.687C166.468 219.933 162.854 218.562 158.412 218.562H139.852C139.064 218.562 138.284 218.405 137.556 218.102C136.829 217.798 136.168 217.353 135.611 216.792C135.054 216.231 134.613 215.566 134.313 214.833C134.012 214.101 133.858 213.316 133.859 212.523V175.482C133.859 172.94 132.855 170.502 131.068 168.704C129.282 166.907 126.858 165.897 124.331 165.897H120.425C119.173 165.896 117.933 166.143 116.775 166.624C115.618 167.105 114.567 167.811 113.681 168.701C112.795 169.591 112.092 170.648 111.613 171.812C111.133 172.975 110.887 174.222 110.887 175.482Z" fill="#A8CEFF"/>
<path d="M206.532 208.442C213.431 204.581 221.875 205.87 224.931 209.727C227.986 213.584 228.525 216.159 221.619 216.159C214.713 216.159 200.92 216.675 198.62 216.417C196.32 216.159 206.532 208.442 206.532 208.442Z" fill="#F09959"/>
<path d="M216.76 206.124C224.178 204.326 229.245 208.666 235.431 212.814C240.803 216.417 241.881 219.92 235.944 216.932C227.247 212.556 222.145 212.044 222.145 212.044L216.76 206.124Z" fill="#F09959"/>
<path d="M210.004 208.418C206.259 208.418 202.99 207.215 200.345 207.426C197.7 207.638 189.329 216.294 190.653 216.958C190.752 217.008 190.854 217.052 190.958 217.091C191.93 217.44 192.992 217.443 193.966 217.1C194.94 216.756 195.768 216.087 196.31 215.203C197.496 213.29 199.425 211.065 201.669 211.862C204.145 212.682 206.738 213.087 209.344 213.062L210.004 208.418Z" fill="#F09959"/>
<path d="M207.81 217.702C203.972 216.158 210.11 203.295 212.156 203.295C214.203 203.295 221.875 209.469 221.875 209.469C221.875 209.469 220.071 210.493 213.947 208.441C212.413 207.925 211.135 216.674 209.347 217.695C207.56 218.717 207.81 217.702 207.81 217.702Z" fill="#F7A96F"/>
<path d="M265.067 81.1951C264.708 95.3611 269.505 97.7574 272.863 99.681C276.221 101.605 290.674 98.425 292.796 94.9215C298.227 85.9579 293.657 77.5991 294.87 77.7346C296.082 77.8701 297.196 81.3505 300.363 85.8785C300.659 86.2983 302.715 89.0978 302.821 88.1657C304.293 75.4805 310.857 71.544 309.293 58.7133C308.143 49.2539 302.173 50.0041 302.173 50.0041C302.173 50.0041 298.323 42.0916 286.337 42.9906C278.307 43.5921 271.148 46.7386 262.872 48.8837C254.596 51.0288 272.666 69.9013 283.403 63.0034C294.14 56.1055 288.837 71.2961 290.533 72.4761C292.228 73.656 291.348 72.6314 292.123 80.4085C292.898 88.1856 283.088 93.2557 280.275 93.9201C271.283 96.0486 269.781 94.5546 267.81 91.1503C266.101 88.1856 265.067 81.1951 265.067 81.1951Z" fill="#2E5B9A"/>
<path d="M302.285 76.809C301.254 80.3786 298.734 82.6856 296.654 81.9585C294.574 81.2313 294.515 78.3228 294.758 74.1814C294.982 70.4399 298.313 68.3048 300.39 69.0319C302.466 69.7591 303.317 73.2394 302.285 76.809Z" fill="#F09959"/>
<path d="M105.797 30.95H29.0275C28.1928 30.95 27.5161 31.6307 27.5161 32.4704V65.7039C27.5161 66.5436 28.1928 67.2243 29.0275 67.2243H105.797C106.632 67.2243 107.309 66.5436 107.309 65.7039V32.4704C107.309 31.6307 106.632 30.95 105.797 30.95Z" fill="#B7E1FF"/>
<path d="M103.905 40.4787H30.92C30.245 40.4787 29.6978 41.0292 29.6978 41.7082V64.2925C29.6978 64.9716 30.245 65.522 30.92 65.522H103.905C104.58 65.522 105.127 64.9716 105.127 64.2925V41.7082C105.127 41.0292 104.58 40.4787 103.905 40.4787Z" fill="white"/>
<path d="M33.2529 33.6169H31.482C31.1082 33.6169 30.8052 33.9217 30.8052 34.2977V35.7652C30.8052 36.1413 31.1082 36.4461 31.482 36.4461H33.2529C33.6267 36.4461 33.9297 36.1413 33.9297 35.7652V34.2977C33.9297 33.9217 33.6267 33.6169 33.2529 33.6169Z" fill="white"/>
<path d="M38.937 33.6169H37.1661C36.7923 33.6169 36.4893 33.9217 36.4893 34.2977V35.7652C36.4893 36.1413 36.7923 36.4461 37.1661 36.4461H38.937C39.3108 36.4461 39.6138 36.1413 39.6138 35.7652V34.2977C39.6138 33.9217 39.3108 33.6169 38.937 33.6169Z" fill="white"/>
<path d="M44.6206 33.6169H42.8497C42.4759 33.6169 42.1729 33.9217 42.1729 34.2977V35.7652C42.1729 36.1413 42.4759 36.4461 42.8497 36.4461H44.6206C44.9944 36.4461 45.2974 36.1413 45.2974 35.7652V34.2977C45.2974 33.9217 44.9944 33.6169 44.6206 33.6169Z" fill="white"/>
<path d="M102.055 45.9686H62.159C61.9969 45.9772 61.8347 45.9525 61.6824 45.896C61.5301 45.8394 61.3909 45.7523 61.2731 45.6399C61.1554 45.5275 61.0616 45.3922 60.9975 45.2421C60.9334 45.0921 60.9004 44.9305 60.9004 44.7672C60.9004 44.6039 60.9334 44.4423 60.9975 44.2923C61.0616 44.1422 61.1554 44.0069 61.2731 43.8945C61.3909 43.7821 61.5301 43.695 61.6824 43.6385C61.8347 43.5819 61.9969 43.5572 62.159 43.5658H102.055C102.361 43.5819 102.649 43.7155 102.86 43.9391C103.071 44.1626 103.188 44.459 103.188 44.7672C103.188 45.0754 103.071 45.3718 102.86 45.5953C102.649 45.8189 102.361 45.9525 102.055 45.9686Z" fill="#B7E1FF"/>
<path d="M72.0482 64.4906H32.1487C31.8324 64.4906 31.529 64.3641 31.3054 64.1391C31.0817 63.9141 30.9561 63.609 30.9561 63.2908C30.9561 62.9726 31.0817 62.6674 31.3054 62.4424C31.529 62.2174 31.8324 62.091 32.1487 62.091H72.0482C72.3645 62.091 72.6679 62.2174 72.8915 62.4424C73.1152 62.6674 73.2409 62.9726 73.2409 63.2908C73.2409 63.609 73.1152 63.9141 72.8915 64.1391C72.6679 64.3641 72.3645 64.4906 72.0482 64.4906Z" fill="#B7E1FF"/>
<path d="M79.3982 62.091H75.2682C75.0432 62.091 74.8608 62.2745 74.8608 62.5009V64.084C74.8608 64.3104 75.0432 64.4939 75.2682 64.4939H79.3982C79.6232 64.4939 79.8056 64.3104 79.8056 64.084V62.5009C79.8056 62.2745 79.6232 62.091 79.3982 62.091Z" fill="#B7E1FF"/>
<path d="M85.6209 62.091H81.4909C81.2659 62.091 81.0835 62.2745 81.0835 62.5009V64.084C81.0835 64.3104 81.2659 64.4939 81.4909 64.4939H85.6209C85.8459 64.4939 86.0283 64.3104 86.0283 64.084V62.5009C86.0283 62.2745 85.8459 62.091 85.6209 62.091Z" fill="#B7E1FF"/>
<path d="M102.44 51.1973H36.3709C36.2603 51.2044 36.1493 51.1886 36.0449 51.1509C35.9405 51.1132 35.8449 51.0543 35.7641 50.978C35.6832 50.9016 35.6187 50.8094 35.5746 50.707C35.5306 50.6046 35.5078 50.4942 35.5078 50.3826C35.5078 50.271 35.5306 50.1606 35.5746 50.0582C35.6187 49.9558 35.6832 49.8636 35.7641 49.7873C35.8449 49.7109 35.9405 49.6521 36.0449 49.6143C36.1493 49.5766 36.2603 49.5608 36.3709 49.5679H102.44C102.646 49.5811 102.839 49.6727 102.98 49.824C103.121 49.9753 103.2 50.1751 103.2 50.3826C103.2 50.5901 103.121 50.7899 102.98 50.9412C102.839 51.0926 102.646 51.1841 102.44 51.1973Z" fill="#B7E1FF"/>
<path d="M102.44 54.7139H36.3709C36.2603 54.7209 36.1493 54.7051 36.0449 54.6674C35.9405 54.6297 35.8449 54.5708 35.7641 54.4945C35.6832 54.4181 35.6187 54.3259 35.5746 54.2235C35.5306 54.1211 35.5078 54.0107 35.5078 53.8991C35.5078 53.7875 35.5306 53.6771 35.5746 53.5747C35.6187 53.4723 35.6832 53.3801 35.7641 53.3038C35.8449 53.2274 35.9405 53.1686 36.0449 53.1308C36.1493 53.0931 36.2603 53.0773 36.3709 53.0844H102.44C102.646 53.0976 102.839 53.1892 102.98 53.3405C103.121 53.4918 103.2 53.6916 103.2 53.8991C103.2 54.1066 103.121 54.3064 102.98 54.4577C102.839 54.6091 102.646 54.7007 102.44 54.7139Z" fill="#B7E1FF"/>
<path d="M47.0586 56.4196H123.825C124.226 56.4196 124.61 56.5798 124.894 56.8649C125.177 57.1501 125.336 57.5368 125.336 57.94V91.1702C125.336 91.5743 125.177 91.9619 124.893 92.2476C124.609 92.5334 124.223 92.6939 123.822 92.6939H47.0586C46.8597 92.6939 46.6627 92.6545 46.479 92.5779C46.2952 92.5014 46.1282 92.3891 45.9876 92.2476C45.8469 92.1062 45.7354 91.9382 45.6592 91.7533C45.5831 91.5685 45.5439 91.3703 45.5439 91.1702V57.94C45.5448 57.5365 45.7048 57.1498 45.9887 56.8647C46.2727 56.5797 46.6574 56.4196 47.0586 56.4196Z" fill="#9EC8FF"/>
<path d="M121.933 65.9483H48.9478C48.2728 65.9483 47.7256 66.4988 47.7256 67.1779V89.7621C47.7256 90.4412 48.2728 90.9917 48.9478 90.9917H121.933C122.608 90.9917 123.155 90.4412 123.155 89.7621V67.1779C123.155 66.4988 122.608 65.9483 121.933 65.9483Z" fill="white"/>
<path d="M51.2807 59.0865H49.5098C49.136 59.0865 48.833 59.3913 48.833 59.7674V61.2349C48.833 61.6109 49.136 61.9157 49.5098 61.9157H51.2807C51.6545 61.9157 51.9575 61.6109 51.9575 61.2349V59.7674C51.9575 59.3913 51.6545 59.0865 51.2807 59.0865Z" fill="white"/>
<path d="M56.9643 59.0865H55.1934C54.8196 59.0865 54.5166 59.3913 54.5166 59.7674V61.2349C54.5166 61.6109 54.8196 61.9157 55.1934 61.9157H56.9643C57.3381 61.9157 57.6412 61.6109 57.6412 61.2349V59.7674C57.6412 59.3913 57.3381 59.0865 56.9643 59.0865Z" fill="white"/>
<path d="M62.6517 59.0865H60.8775C60.5037 59.0865 60.2007 59.3913 60.2007 59.7674V61.2349C60.2007 61.6109 60.5037 61.9157 60.8775 61.9157H62.6517C63.0255 61.9157 63.3285 61.6109 63.3285 61.2349V59.7674C63.3285 59.3913 63.0255 59.0865 62.6517 59.0865Z" fill="white"/>
<path d="M120.086 71.4384H80.1865C79.8806 71.4223 79.5925 71.2886 79.3816 71.0651C79.1708 70.8415 79.0532 70.5451 79.0532 70.237C79.0532 69.9288 79.1708 69.6324 79.3816 69.4088C79.5925 69.1853 79.8806 69.0517 80.1865 69.0355H120.086C120.392 69.0517 120.68 69.1853 120.891 69.4088C121.102 69.6324 121.219 69.9288 121.219 70.237C121.219 70.5451 121.102 70.8415 120.891 71.0651C120.68 71.2886 120.392 71.4223 120.086 71.4384Z" fill="#9EC8FF"/>
<path d="M90.0762 89.9602H50.1799C49.8636 89.9602 49.5603 89.8338 49.3366 89.6088C49.113 89.3838 48.9873 89.0786 48.9873 88.7604C48.9873 88.4422 49.113 88.1371 49.3366 87.9121C49.5603 87.6871 49.8636 87.5607 50.1799 87.5607H90.0762C90.3925 87.5607 90.6958 87.6871 90.9195 87.9121C91.1432 88.1371 91.2688 88.4422 91.2688 88.7604C91.2688 89.0786 91.1432 89.3838 90.9195 89.6088C90.6958 89.8338 90.3925 89.9602 90.0762 89.9602Z" fill="#9EC8FF"/>
<path d="M97.4289 87.5607H93.299C93.074 87.5607 92.8916 87.7442 92.8916 87.9705V89.5537C92.8916 89.78 93.074 89.9635 93.299 89.9635H97.4289C97.6539 89.9635 97.8363 89.78 97.8363 89.5537V87.9705C97.8363 87.7442 97.6539 87.5607 97.4289 87.5607Z" fill="#9EC8FF"/>
<path d="M103.652 87.5607H99.5221C99.2971 87.5607 99.1147 87.7442 99.1147 87.9705V89.5537C99.1147 89.78 99.2971 89.9635 99.5221 89.9635H103.652C103.877 89.9635 104.059 89.78 104.059 89.5537V87.9705C104.059 87.7442 103.877 87.5607 103.652 87.5607Z" fill="#9EC8FF"/>
<path d="M120.471 76.6806H54.3986C54.1842 76.6806 53.9786 76.5949 53.8271 76.4425C53.6755 76.29 53.5903 76.0832 53.5903 75.8675C53.5903 75.6519 53.6755 75.4451 53.8271 75.2926C53.9786 75.1401 54.1842 75.0545 54.3986 75.0545H120.471C120.685 75.0545 120.891 75.1401 121.042 75.2926C121.194 75.4451 121.279 75.6519 121.279 75.8675C121.279 76.0832 121.194 76.29 121.042 76.4425C120.891 76.5949 120.685 76.6806 120.471 76.6806Z" fill="#9EC8FF"/>
<path d="M120.471 80.1835H54.3986C54.1927 80.1703 53.9996 80.0788 53.8584 79.9274C53.7172 79.7761 53.6387 79.5763 53.6387 79.3688C53.6387 79.1613 53.7172 78.9615 53.8584 78.8102C53.9996 78.6589 54.1927 78.5673 54.3986 78.5541H120.471C120.677 78.5673 120.87 78.6589 121.011 78.8102C121.152 78.9615 121.231 79.1613 121.231 79.3688C121.231 79.5763 121.152 79.7761 121.011 79.9274C120.87 80.0788 120.677 80.1703 120.471 80.1835Z" fill="#9EC8FF"/>
<path d="M153.723 83.8161C153.724 85.8775 153.117 87.8928 151.979 89.6071C150.841 91.3213 149.223 92.6576 147.33 93.4467C145.437 94.2359 143.354 94.4426 141.344 94.0406C139.334 93.6386 137.488 92.646 136.039 91.1883C134.59 89.7307 133.603 87.8735 133.204 85.8517C132.804 83.8298 133.01 81.7342 133.794 79.8298C134.579 77.9255 135.907 76.2979 137.611 75.1531C139.315 74.0082 141.318 73.3975 143.367 73.3982C146.114 73.399 148.747 74.4969 150.689 76.4505C152.631 78.404 153.723 81.0534 153.723 83.8161Z" fill="#9CD499"/>
<path d="M142.339 87.6665H142.31C142.203 87.6628 142.098 87.6372 142.001 87.5912C141.904 87.5451 141.818 87.4796 141.748 87.3987L138.932 84.1828C138.794 84.0246 138.724 83.8176 138.737 83.6075C138.751 83.3974 138.847 83.2013 139.004 83.0623C139.162 82.9234 139.367 82.853 139.576 82.8667C139.785 82.8803 139.98 82.9768 140.118 83.1351L142.382 85.723L147.796 80.3885C147.87 80.3155 147.958 80.258 148.054 80.2191C148.15 80.1802 148.253 80.1608 148.357 80.1619C148.46 80.1629 148.562 80.1845 148.658 80.2254C148.753 80.2662 148.839 80.3256 148.912 80.4C148.984 80.4745 149.042 80.5625 149.08 80.6592C149.119 80.7559 149.138 80.8593 149.137 80.9635C149.136 81.0677 149.115 81.1706 149.074 81.2665C149.033 81.3624 148.974 81.4492 148.9 81.5221L142.891 87.4417C142.743 87.586 142.545 87.6666 142.339 87.6665Z" fill="white"/>
<path d="M220.088 5.57251H154.229C152.535 5.57251 151.161 6.95462 151.161 8.65955V32.3312C151.161 34.0362 152.535 35.4183 154.229 35.4183H220.088C221.783 35.4183 223.157 34.0362 223.157 32.3312V8.65955C223.157 6.95462 221.783 5.57251 220.088 5.57251Z" fill="#9EC8FF"/>
<path d="M159.857 30.9132V47.3796L178.733 28.4046C178.733 28.4046 160.239 30.9132 159.857 30.9132Z" fill="#9EC8FF"/>
<path d="M216.829 8.53058H157.485C156.048 8.53058 154.883 9.70256 154.883 11.1483V29.8391C154.883 31.2848 156.048 32.4568 157.485 32.4568H216.829C218.266 32.4568 219.431 31.2848 219.431 29.8391V11.1483C219.431 9.70256 218.266 8.53058 216.829 8.53058Z" fill="white"/>
<path d="M190.035 14.4471H160.879C160.54 14.4471 160.215 14.3117 159.975 14.0705C159.736 13.8294 159.601 13.5024 159.601 13.1614C159.601 12.8204 159.736 12.4934 159.975 12.2523C160.215 12.0111 160.54 11.8757 160.879 11.8757H190.035C190.374 11.8757 190.699 12.0111 190.939 12.2523C191.178 12.4934 191.313 12.8204 191.313 13.1614C191.313 13.5024 191.178 13.8294 190.939 14.0705C190.699 14.3117 190.374 14.4471 190.035 14.4471Z" fill="#9EC8FF"/>
<path d="M214.391 17.9209H160.311C159.919 17.9209 159.601 18.2406 159.601 18.6349V18.6514C159.601 19.0457 159.919 19.3653 160.311 19.3653H214.391C214.783 19.3653 215.1 19.0457 215.1 18.6514V18.6349C215.1 18.2406 214.783 17.9209 214.391 17.9209Z" fill="#9EC8FF"/>
<path d="M214.391 20.7202H160.311C159.919 20.7202 159.601 21.0398 159.601 21.4341V21.4506C159.601 21.8449 159.919 22.1646 160.311 22.1646H214.391C214.783 22.1646 215.1 21.8449 215.1 21.4506V21.4341C215.1 21.0398 214.783 20.7202 214.391 20.7202Z" fill="#9EC8FF"/>
<path d="M203.21 28.6H201.439C201.065 28.6 200.762 28.9048 200.762 29.2809V30.7483C200.762 31.1244 201.065 31.4292 201.439 31.4292H203.21C203.584 31.4292 203.887 31.1244 203.887 30.7483V29.2809C203.887 28.9048 203.584 28.6 203.21 28.6Z" fill="#9EC8FF"/>
<path d="M208.894 28.6H207.123C206.749 28.6 206.446 28.9048 206.446 29.2809V30.7483C206.446 31.1244 206.749 31.4292 207.123 31.4292H208.894C209.268 31.4292 209.571 31.1244 209.571 30.7483V29.2809C209.571 28.9048 209.268 28.6 208.894 28.6Z" fill="#9EC8FF"/>
<path d="M214.578 28.6H212.807C212.433 28.6 212.13 28.9048 212.13 29.2809V30.7483C212.13 31.1244 212.433 31.4292 212.807 31.4292H214.578C214.952 31.4292 215.255 31.1244 215.255 30.7483V29.2809C215.255 28.9048 214.952 28.6 214.578 28.6Z" fill="#9EC8FF"/>
</g>
<defs>
<clipPath id="clip0">
<rect width="458" height="225" fill="white"/>
</clipPath>
</defs>
</svg>
