<svg width="458" height="258" viewBox="0 0 458 258" fill="none" xmlns="http://www.w3.org/2000/svg">
<path d="M61.2535 250.852C61.2535 250.852 -34.1582 79.3055 37.2618 39.2778C64.6621 23.9208 90.4447 28.8721 116.61 33.8234C144.856 39.1676 173.549 44.5117 205.205 24.3066C283.877 -25.9055 343.517 7.70914 386.142 70.216C418.133 117.121 435.076 147.463 451.121 183.987C476.113 240.87 423.13 253.846 423.13 253.846L61.2535 250.852Z" fill="#F5F6FA"/>
<path d="M324.889 251.891L281.391 251.967C280.769 251.97 280.252 251.34 280.214 250.568C280.179 249.796 280.638 249.124 281.256 249.069L324.581 245.182C328.098 244.869 331.301 246.226 331.394 248.232C331.488 250.237 328.419 251.884 324.889 251.891Z" fill="#75A1DE"/>
<path d="M268.367 245.717C269.866 245.345 272.617 237.152 272.617 237.152C272.617 237.152 241.204 226.577 227.881 219.686L209.32 241.121C233.162 247.047 267.255 245.997 268.367 245.717Z" fill="#F09959"/>
<path d="M263.593 234.049C271.322 236.044 283.622 231.054 285.921 231.554C288.22 232.05 297.828 237.043 300.127 239.537C302.426 242.032 310.574 249.767 309.111 250.264C307.647 250.763 297.411 243.279 296.158 243.031C294.905 242.78 294.277 244.527 284.04 246.522C273.803 248.517 261.427 243.362 261.427 243.362L263.593 234.049Z" fill="#F09959"/>
<path d="M275.963 241.66C275.963 241.66 287.874 238.666 289.334 239.166C290.797 239.665 299.677 241.66 305.842 248.648C299.991 246.901 291.632 246.401 289.334 246.401C287.035 246.401 275.963 241.66 275.963 241.66Z" fill="#E38540"/>
<path d="M278.752 236.653C283.835 243.142 296.747 245.137 298.701 247.383C300.658 249.63 294 248.675 290.486 248.379C281.547 247.631 275.3 251.249 268.063 249.006C260.825 246.759 259.19 241.395 259.19 241.395L278.752 236.653Z" fill="#F09959"/>
<path d="M183.52 121.712C160.581 132.966 150.085 141.197 142.963 171.884C135.841 202.571 135.466 231.762 139.214 253.466C164.676 254.203 237.651 256.946 237.651 256.946C237.651 256.946 236.261 212.384 228.805 177.121C221.682 143.444 211.561 130.344 202.939 124.359C194.318 118.37 183.52 121.712 183.52 121.712Z" fill="#A2DFF2"/>
<path d="M189.067 226.146C180.844 217.914 183.069 162.154 169.574 137.08L144.459 183.858L136.867 222.78C136.803 234.023 137.645 244.397 139.211 253.466C139.301 253.98 139.773 254.328 140.285 254.283C161.018 252.47 162.173 243.474 228.4 233.495C229.964 233.261 194.662 231.749 189.067 226.146Z" fill="#96CFE0"/>
<path d="M181.217 121.567C178.31 128.337 184.216 137.203 193.546 144.187C202.876 151.175 208.541 147.347 208.041 141.858C207.541 136.369 207.042 130.549 204.875 127.055C202.709 123.562 185.382 120.567 185.382 120.567C185.382 120.567 181.717 120.402 181.217 121.567Z" fill="white"/>
<path d="M192.347 87.7404L183.451 121.662C182.576 123.933 182.816 126.479 184.099 128.547C187.722 134.387 195.515 145.613 201.094 144.128C208.592 142.133 203.593 128.161 203.593 128.161L213.59 92.9777L192.347 87.7404Z" fill="#F09959"/>
<path d="M206.111 89.7645L197.228 86.1776L194.561 93.1033C195.784 122.587 199.547 134.619 205.323 137.975C205.634 133.427 203.726 128.093 203.726 128.093L210.974 101.893L206.111 89.7645Z" fill="#E38540"/>
<path d="M230.689 103.165C228.957 114.873 224.335 124.907 215.957 123.673C207.579 122.436 193.195 112.637 194.927 100.929C196.66 89.2169 215.466 75.1967 223.844 76.4303C232.222 77.6672 232.422 91.4532 230.689 103.165Z" fill="#F09959"/>
<path d="M166.98 147.102C167.647 144.442 156.978 142.854 155.28 145.007C138.495 166.318 112.386 223.891 118.248 234.297C124.996 246.27 197.69 230.544 199.19 230.169C200.689 229.797 196.565 218.567 196.565 218.567C196.565 218.567 155.829 219.318 148.956 214.701C170.323 174.66 161.918 167.252 166.98 147.102Z" fill="#F09959"/>
<path d="M162.865 135.056C145.233 142.947 126.129 194.186 126.129 194.186C126.129 194.186 130.627 195.306 145.247 200.171C151.323 202.194 157.213 204.072 157.213 204.072C157.213 204.072 171.208 185.941 175.609 171.731C181.28 153.428 173.735 130.191 162.865 135.056Z" fill="#A2DFF2"/>
<path d="M127.918 189.411C144.409 191.533 154.264 197.267 159.271 201.181C160.024 200.137 160.934 198.848 161.941 197.37C158.471 194.124 150.925 188.339 139.95 186.806C135.494 186.186 132.101 185.782 129.525 185.527C128.917 186.968 128.378 188.274 127.918 189.411Z" fill="white"/>
<path d="M131.646 180.392C131.364 181.033 131.09 181.657 130.825 182.267C145.311 181.688 159.21 188.731 162.72 193.034C163.132 193.537 163.495 193.982 163.819 194.378C164.183 193.823 164.552 193.251 164.926 192.666C162.549 190.33 158.328 186.577 154.057 184.717C145.311 180.906 132.772 180.43 131.646 180.392Z" fill="white"/>
<path d="M228.774 233.173H210.28L207.531 198.7H231.773L228.774 233.173Z" fill="#75A1DE"/>
<path d="M194.356 218.638C199.479 218.511 207.851 212.65 210.725 211.027C213.599 209.404 229.843 205.914 230.593 207.661C231.343 209.404 216.973 213.022 216.973 213.022L227.719 213.522C227.719 213.522 230.843 218.263 231.093 221.381C231.343 224.499 230.093 228.993 230.093 228.993L225.345 224.751C225.345 224.751 221.472 226.87 216.598 229.74C211.725 232.607 202.978 230.864 199.229 230.112C195.48 229.365 186.733 226.622 186.733 226.622L194.356 218.638Z" fill="#F09959"/>
<path d="M127.247 217.138C127.247 217.138 135.536 212.356 143.867 213.52C148.641 214.189 149.158 214.964 148.865 214.768C149.897 212.835 150.857 210.978 151.755 209.193C147.415 209.393 136.288 210.564 127.247 217.138Z" fill="#E38540"/>
<path d="M388.945 158.29V243.245C388.945 246.07 386.277 248.358 382.988 248.358H365.12C362.073 248.358 359.602 250.481 359.602 253.099H385.314C390.85 253.099 395.337 249.247 395.337 244.492V158.29H388.945Z" fill="#6791C9"/>
<path d="M375.906 231.109L373.069 230.568C371.195 230.213 370.004 228.608 370.418 226.999L392.652 140.765C393.07 139.16 394.94 138.133 396.811 138.491L399.648 139.029C401.519 139.387 402.713 140.993 402.299 142.599L380.061 228.832C379.647 230.441 377.777 231.464 375.906 231.109Z" fill="#95BEF5"/>
<path d="M376.582 231.287L376.25 231.222C374.804 230.946 373.883 229.706 374.2 228.465L396.779 140.902C397.1 139.658 398.546 138.869 399.993 139.145L400.324 139.207C401.77 139.482 402.692 140.723 402.371 141.963L379.795 229.53C379.474 230.77 378.028 231.559 376.582 231.287Z" fill="#75A1DE"/>
<path d="M435.901 258H53.9641C52.1973 258 50.7646 256.57 50.7646 254.806C50.7646 253.042 52.1973 251.612 53.9641 251.612H435.901C437.668 251.612 439.104 253.042 439.104 254.806C439.104 256.57 437.668 258 435.901 258Z" fill="#2E5B9A"/>
<path d="M196.121 73.0054C178.815 83.7212 189.768 95.3122 185.168 115.214C187.995 116.182 191.083 110.621 193.054 106.249C195.026 101.873 196.778 95.5328 197.435 95.7498C198.093 95.9704 199.188 105.811 199.188 105.811L201.816 107.124C201.816 107.124 205.541 100.563 205.322 99.0301C205.103 97.5002 202.036 90.0646 205.76 86.5639C208.153 84.3173 218.027 89.1894 218.027 89.1894L208.389 75.4104L196.121 73.0054Z" fill="#F09959"/>
<path d="M185.83 115.324C185.608 115.324 185.387 115.29 185.168 115.214C186.134 111.035 186.414 107.224 186.414 103.709C186.414 98.8544 185.88 94.568 185.88 90.6676C185.88 83.9417 187.468 78.3633 196.121 73.0054L208.389 75.4104L218.027 89.1894C218.027 89.1894 211.507 85.9712 207.78 85.9712C206.92 85.9712 206.208 86.1435 205.76 86.5639C204.37 87.8698 203.926 89.7235 203.927 91.6151C203.928 94.792 205.184 98.0722 205.322 99.0301C205.328 99.0749 205.331 99.1266 205.331 99.1782C205.326 100.939 201.816 107.124 201.816 107.124L199.188 105.811C199.188 105.811 198.093 95.9704 197.435 95.7498C197.424 95.7464 197.413 95.7464 197.401 95.7464C196.918 95.7464 195.91 98.8612 194.673 102.207C194.165 103.582 193.619 104.994 193.054 106.249C191.236 110.283 188.467 115.324 185.83 115.324Z" fill="#8F7A7A"/>
<path d="M234.088 84.661C233.212 95.1598 216.913 91.8727 209.334 82.4765C202.105 73.5076 196.158 79.689 188.961 82.6936C176.913 87.7242 190.495 58.6363 214.811 63.2293C233.055 66.6749 234.672 77.6733 234.088 84.661Z" fill="#2E5B9A"/>
<path d="M197.971 95.7912C198.718 99.7055 197.253 103.272 194.698 103.761C192.142 104.247 189.465 101.466 188.718 97.552C187.97 93.6343 189.436 90.0681 191.991 89.5823C194.546 89.093 197.223 91.8736 197.971 95.7912Z" fill="#F09959"/>
<path d="M382.206 118.925H297.616C296.65 118.925 295.866 118.143 295.866 117.178V68.2812C295.866 67.3165 296.65 66.5309 297.616 66.5309H382.206C383.173 66.5309 383.956 67.3165 383.956 68.2812V117.178C383.956 118.143 383.173 118.925 382.206 118.925Z" fill="#9EC8FF"/>
<path d="M379.716 117.375H300.075C299.233 117.375 298.55 116.693 298.55 115.852V76.5377C298.55 75.6969 299.233 75.0147 300.075 75.0147H379.716C380.558 75.0147 381.242 75.6969 381.242 76.5377V115.852C381.242 116.693 380.558 117.375 379.716 117.375Z" fill="white"/>
<path d="M302.019 72.6059H300.159C299.765 72.6059 299.444 72.2889 299.444 71.8961V70.3663C299.444 69.9735 299.765 69.6565 300.159 69.6565H302.019C302.409 69.6565 302.73 69.9735 302.73 70.3663V71.8961C302.73 72.2889 302.409 72.6059 302.019 72.6059Z" fill="white"/>
<path d="M308.054 72.6059H306.193C305.803 72.6059 305.482 72.2889 305.482 71.8961V70.3663C305.482 69.9735 305.803 69.6565 306.193 69.6565H308.054C308.447 69.6565 308.768 69.9735 308.768 70.3663V71.8961C308.768 72.2889 308.447 72.6059 308.054 72.6059Z" fill="white"/>
<path d="M314.092 72.6059H312.232C311.838 72.6059 311.521 72.2889 311.521 71.8961V70.3663C311.521 69.9735 311.838 69.6565 312.232 69.6565H314.092C314.485 69.6565 314.803 69.9735 314.803 70.3663V71.8961C314.803 72.2889 314.485 72.6059 314.092 72.6059Z" fill="white"/>
<path d="M301.733 114.563H378.264V77.7462H301.733V114.563ZM378.54 114.838H301.457V77.4705H378.54V114.838Z" fill="#9EC8FF"/>
<path d="M378.264 107.164H301.457V107.44H378.264V107.164Z" fill="#9EC8FF"/>
<path d="M378.264 99.7963H301.457V100.072H378.264V99.7963Z" fill="#9EC8FF"/>
<path d="M378.264 92.4288H301.457V92.7049H378.264V92.4288Z" fill="#9EC8FF"/>
<path d="M378.264 85.0613H301.457V85.3374H378.264V85.0613Z" fill="#9EC8FF"/>
<path d="M367.478 77.6938H367.205V114.786H367.478V77.6938Z" fill="#9EC8FF"/>
<path d="M356.523 77.6938H356.247V114.786H356.523V77.6938Z" fill="#9EC8FF"/>
<path d="M345.565 77.6938H345.289V114.786H345.565V77.6938Z" fill="#9EC8FF"/>
<path d="M334.607 77.6938H334.331V114.786H334.607V77.6938Z" fill="#9EC8FF"/>
<path d="M323.649 77.6938H323.373V114.786H323.649V77.6938Z" fill="#9EC8FF"/>
<path d="M312.691 77.6938H312.415V114.786H312.691V77.6938Z" fill="#9EC8FF"/>
<path d="M375.38 82.3866H372.798C371.811 82.3866 371.007 81.5804 371.007 80.5984C371.007 79.6129 371.811 78.8101 372.798 78.8101H375.38C376.363 78.8101 377.171 79.6129 377.171 80.5984C377.171 81.5804 376.363 82.3866 375.38 82.3866Z" fill="#F39892"/>
<path d="M376.319 97.3415H371.859C371.39 97.3415 371.007 96.959 371.007 96.4904V94.6194C371.007 94.1508 371.39 93.7684 371.859 93.7684H376.319C376.788 93.7684 377.171 94.1508 377.171 94.6194V96.4904C377.171 96.959 376.788 97.3415 376.319 97.3415Z" fill="#F39892"/>
<path d="M320.812 91.4597H314.752C314.079 91.4597 313.533 90.9118 313.533 90.2434V87.3938C313.533 86.7254 314.079 86.1776 314.752 86.1776H320.812C321.482 86.1776 322.031 86.7254 322.031 87.3938V90.2434C322.031 90.9118 321.482 91.4597 320.812 91.4597Z" fill="#9EC8FF"/>
<path d="M320.104 90.641H315.752C315.268 90.641 314.875 90.2482 314.875 89.7658V87.7191C314.875 87.2402 315.268 86.8474 315.752 86.8474H320.104C320.587 86.8474 320.98 87.2402 320.98 87.7191V89.7658C320.98 90.2482 320.587 90.641 320.104 90.641Z" fill="white"/>
<path d="M364.868 113.562H358.807C358.138 113.562 357.589 113.014 357.589 112.346V109.496C357.589 108.828 358.138 108.28 358.807 108.28H364.868C365.537 108.28 366.086 108.828 366.086 109.496V112.346C366.086 113.014 365.537 113.562 364.868 113.562Z" fill="#9EC8FF"/>
<path d="M363.932 112.967H359.58C359.101 112.967 358.707 112.574 358.707 112.095V110.048C358.707 109.566 359.101 109.173 359.58 109.173H363.932C364.416 109.173 364.809 109.566 364.809 110.048V112.095C364.809 112.574 364.416 112.967 363.932 112.967Z" fill="white"/>
<path d="M343.465 87.7887H338.716C338.395 87.7887 338.133 87.5234 338.133 87.2064C338.133 86.886 338.395 86.6241 338.716 86.6241H343.465C343.786 86.6241 344.049 86.886 344.049 87.2064C344.049 87.5234 343.786 87.7887 343.465 87.7887Z" fill="#9EC8FF"/>
<path d="M343.465 89.5713H338.716C338.395 89.5713 338.133 89.3129 338.133 88.9925C338.133 88.672 338.395 88.4102 338.716 88.4102H343.465C343.786 88.4102 344.049 88.672 344.049 88.9925C344.049 89.3129 343.786 89.5713 343.465 89.5713Z" fill="#9EC8FF"/>
<path d="M333.178 109.668H328.429C328.108 109.668 327.846 109.406 327.846 109.086C327.846 108.765 328.108 108.503 328.429 108.503H333.178C333.499 108.503 333.761 108.765 333.761 109.086C333.761 109.406 333.499 109.668 333.178 109.668Z" fill="#9EC8FF"/>
<path d="M333.178 111.677H328.429C328.108 111.677 327.846 111.415 327.846 111.095C327.846 110.775 328.108 110.513 328.429 110.513H333.178C333.499 110.513 333.761 110.775 333.761 111.095C333.761 111.415 333.499 111.677 333.178 111.677Z" fill="#9EC8FF"/>
<path d="M308.355 95.826H303.606C303.285 95.826 303.022 95.5641 303.022 95.2437C303.022 94.9232 303.285 94.6614 303.606 94.6614H308.355C308.676 94.6614 308.938 94.9232 308.938 95.2437C308.938 95.5641 308.676 95.826 308.355 95.826Z" fill="#9EC8FF"/>
<path d="M308.355 97.8353H303.606C303.285 97.8353 303.022 97.5735 303.022 97.253C303.022 96.9326 303.285 96.6707 303.606 96.6707H308.355C308.676 96.6707 308.938 96.9326 308.938 97.253C308.938 97.5735 308.676 97.8353 308.355 97.8353Z" fill="#9EC8FF"/>
<path d="M354.42 87.7887H349.674C349.353 87.7887 349.091 87.5234 349.091 87.2064C349.091 86.886 349.353 86.6241 349.674 86.6241H354.42C354.741 86.6241 355.003 86.886 355.003 87.2064C355.003 87.5234 354.741 87.7887 354.42 87.7887Z" fill="#9EC8FF"/>
<path d="M354.42 89.5713H349.674C349.353 89.5713 349.091 89.3129 349.091 88.9925C349.091 88.672 349.353 88.4102 349.674 88.4102H354.42C354.741 88.4102 355.003 88.672 355.003 88.9925C355.003 89.3129 354.741 89.5713 354.42 89.5713Z" fill="#9EC8FF"/>
<path d="M321.675 106.497H314.641C314.034 106.497 313.533 106.001 313.533 105.395V102.238C313.533 101.632 314.034 101.136 314.641 101.136H321.675C322.283 101.136 322.783 101.632 322.783 102.238V105.395C322.783 106.001 322.283 106.497 321.675 106.497Z" fill="#9CD499"/>
<path d="M317.637 105.657H317.617C317.465 105.65 317.323 105.581 317.223 105.468L315.908 103.976C315.705 103.748 315.729 103.4 315.957 103.197C316.184 102.997 316.533 103.018 316.737 103.249L317.669 104.303L320.06 101.963C320.278 101.75 320.63 101.753 320.844 101.974C321.054 102.191 321.051 102.539 320.833 102.752L318.024 105.499C317.92 105.598 317.782 105.657 317.637 105.657Z" fill="white"/>
<path d="M354.549 83.9482H347.515C346.908 83.9482 346.407 83.452 346.407 82.8456V79.6894C346.407 79.083 346.908 78.5868 347.515 78.5868H354.549C355.156 78.5868 355.653 79.083 355.653 79.6894V82.8456C355.653 83.452 355.156 83.9482 354.549 83.9482Z" fill="#9CD499"/>
<path d="M350.512 83.1045H350.491C350.339 83.1011 350.198 83.0322 350.098 82.9185L348.779 81.4265C348.579 81.1991 348.603 80.8476 348.831 80.6478C349.059 80.4479 349.408 80.4686 349.611 80.6995L350.54 81.7538L352.935 79.4143C353.152 79.2006 353.504 79.2041 353.718 79.4246C353.929 79.6417 353.925 79.9897 353.708 80.2033L350.899 82.9495C350.795 83.0494 350.657 83.1045 350.512 83.1045Z" fill="white"/>
<path d="M353.197 103.63C353.197 105.009 352.076 106.125 350.695 106.125C349.318 106.125 348.196 105.009 348.196 103.63C348.196 102.252 349.318 101.136 350.695 101.136C352.076 101.136 353.197 102.252 353.197 103.63Z" fill="#9EC8FF"/>
<path d="M320.767 111.221C320.767 112.6 319.649 113.716 318.268 113.716C316.888 113.716 315.77 112.6 315.77 111.221C315.77 109.843 316.888 108.727 318.268 108.727C319.649 108.727 320.767 109.843 320.767 111.221Z" fill="#9EC8FF"/>
<path d="M335.224 141.52H284.209C283.729 141.52 283.343 141.131 283.343 140.656V112.271C283.343 111.792 283.729 111.406 284.209 111.406H335.224C335.704 111.406 336.09 111.792 336.09 112.271V140.656C336.09 141.131 335.704 141.52 335.224 141.52Z" fill="#9EC8FF"/>
<path d="M334.312 140.207H285.496C285.047 140.207 284.685 139.845 284.685 139.397V113.552C284.685 113.107 285.047 112.745 285.496 112.745H334.312C334.757 112.745 335.12 113.107 335.12 113.552V139.397C335.12 139.845 334.757 140.207 334.312 140.207Z" fill="white"/>
<path d="M332.765 138.623H286.934C286.434 138.623 286.026 138.216 286.026 137.717V115.438C286.026 114.935 286.434 114.531 286.934 114.531H332.765C333.269 114.531 333.673 114.935 333.673 115.438V137.717C333.673 138.216 333.269 138.623 332.765 138.623Z" fill="#9EC8FF"/>
<path d="M318.203 126.463C318.203 131.08 314.455 134.822 309.83 134.822C305.205 134.822 301.457 131.08 301.457 126.463C301.457 121.845 305.205 118.103 309.83 118.103C314.455 118.103 318.203 121.845 318.203 126.463Z" fill="white"/>
<path d="M316.995 126.418C316.995 130.394 313.768 133.616 309.785 133.616C305.802 133.616 302.575 130.394 302.575 126.418C302.575 122.441 305.802 119.22 309.785 119.22C313.768 119.22 316.995 122.441 316.995 126.418Z" fill="#9EC8FF"/>
<path d="M313.436 126.054L310.803 127.574L308.166 129.093V126.054V123.015L310.803 124.535L313.436 126.054Z" fill="white"/>
<path d="M280.038 39.3853H247.048C246.224 39.3853 245.549 38.7134 245.549 37.8899C245.549 37.0664 246.224 36.3911 247.048 36.3911H280.038C280.863 36.3911 281.536 37.0664 281.536 37.8899C281.536 38.7134 280.863 39.3853 280.038 39.3853Z" fill="#9EC8FF"/>
<path d="M366.361 165.749H333.372C332.548 165.749 331.871 165.074 331.871 164.25C331.871 163.427 332.548 162.755 333.372 162.755H366.361C367.186 162.755 367.862 163.427 367.862 164.25C367.862 165.074 367.186 165.749 366.361 165.749Z" fill="#9EC8FF"/>
<path d="M366.361 171.331H333.372C332.548 171.331 331.871 170.655 331.871 169.832C331.871 169.008 332.548 168.337 333.372 168.337H366.361C367.186 168.337 367.862 169.008 367.862 169.832C367.862 170.655 367.186 171.331 366.361 171.331Z" fill="#9EC8FF"/>
<path d="M366.361 177.359H333.372C332.548 177.359 331.871 176.683 331.871 175.86C331.871 175.036 332.548 174.365 333.372 174.365H366.361C367.186 174.365 367.862 175.036 367.862 175.86C367.862 176.683 367.186 177.359 366.361 177.359Z" fill="#9EC8FF"/>
<path d="M301.278 44.9667H247.048C246.224 44.9667 245.549 44.2914 245.549 43.4679C245.549 42.6444 246.224 41.9725 247.048 41.9725H301.278C302.103 41.9725 302.78 42.6444 302.78 43.4679C302.78 44.2914 302.103 44.9667 301.278 44.9667Z" fill="#9EC8FF"/>
<path d="M67.1029 127.927C58.4814 135.786 62.2299 143.646 68.6022 158.241C74.9749 172.837 76.0997 226.723 76.0997 226.723L70.8515 225.975C70.8515 225.975 71.6012 170.59 64.4792 155.623C57.3569 140.651 54.358 133.168 47.9857 138.033C41.613 142.898 67.1029 127.927 67.1029 127.927Z" fill="#74B570"/>
<path d="M71.9328 117.829C70.8857 113.174 64.6676 108.133 56.3525 103.86C57.5888 110.727 61.5527 121.96 57.4504 124.262C51.9178 127.37 56.911 111.689 54.7763 103.071C46.9685 99.2638 37.5766 96.1524 28.9267 94.6053C28.9391 94.6363 28.9488 94.6673 28.9616 94.6983C33.8346 107.047 40.2069 111.913 37.5832 113.784C35.609 115.193 29.179 100.928 20.6882 93.6164C14.3149 93.2753 8.92348 94.1367 5.7337 96.6589C0.803725 100.556 -2.50547 104.012 2.45315 115.879C5.2857 117.898 8.95454 119.348 13.2177 119.772C24.4634 120.895 29.7112 121.271 21.8393 125.013C17.9844 126.842 11.5234 124.909 6.28454 123.728C7.984 126.856 10.0724 130.395 12.6113 134.423C14.2214 136.979 15.9957 139.198 17.8798 141.118C21.5045 141.81 24.6642 141.821 26.3375 141.104C31.5853 138.857 45.0803 131.749 48.4537 134.74C51.756 137.672 23.4614 139.526 25.4222 146.975C39.1366 154.862 54.8301 151.11 57.604 143.864C61.3294 134.137 75.0853 131.849 71.9328 117.829Z" fill="#9CD499"/>
<path d="M43.6084 171.118C58.6026 159.889 73.9717 170.367 81.8436 182.344C89.7156 194.317 84.0929 221.262 84.0929 221.262C84.0929 221.262 81.094 221.262 81.094 220.139C81.094 219.019 89.3407 188.332 69.8483 174.485C57.6542 165.822 48.8562 169.995 47.7321 174.109C46.6073 178.226 52.6051 185.71 52.6051 185.71L43.6084 171.118Z" fill="#74B570"/>
<path d="M77.9762 148.02C62.9819 148.02 58.1089 171.223 62.2323 184.695C66.3557 198.167 71.9787 223.238 71.9787 223.238L75.7272 219.496C75.7272 219.496 61.4826 184.32 64.8564 168.601C68.2301 152.885 76.4765 150.267 77.9762 150.267C79.4758 150.267 77.9762 148.02 77.9762 148.02Z" fill="#9CD499"/>
<path d="M65.446 184.82C64.3916 183.425 63.0887 182.274 61.499 181.509C61.7071 182.622 61.9667 183.697 62.278 184.717C64.1566 190.853 66.3465 199.398 68.1744 206.886C68.3404 205.928 68.5965 204.45 68.9917 202.172C69.0848 201.631 69.158 201.049 69.2091 200.429C67.7409 195.443 66.3531 190.013 65.446 184.82Z" fill="#74B570"/>
<path d="M61.4334 184.75C32.9445 172.773 47.9539 156.341 22.8388 167.191C21.0697 167.956 18.9136 169.886 16.7551 172.542C18.9919 173.176 21.7006 173.631 24.7129 173.18C32.2101 172.056 29.586 178.045 17.2158 179.544C14.8841 179.826 12.9924 180.212 11.4192 180.764C5.52596 192.062 2.87011 206.933 15.3414 212.101C17.7988 213.118 20.8363 213.7 24.2173 213.917C28.066 210.864 23.2782 193.195 29.2111 195.635C34.9073 197.974 27.4264 210.782 28.4515 214.007C34.0742 213.907 40.2988 212.99 46.2476 211.519C48.6018 210.199 50.3989 208.435 50.9529 206.113C52.827 198.253 40.4568 193.388 40.082 186.652C39.7372 180.46 44.6158 200.276 57.5405 203.194C69.228 197.743 74.7502 190.346 61.4334 184.75Z" fill="#9CD499"/>
<path d="M81.6732 163.761C78.6746 157.401 86.5462 155.905 86.1714 160.77C85.8393 165.081 85.8024 175.559 90.2312 178.412C97.8688 177.585 108.26 174.515 116.116 169.829C116.214 169.198 116.119 168.547 115.785 167.879C112.411 161.143 90.6699 155.53 97.4171 153.283C102.791 151.495 112.207 162.052 119.795 167.369C124.352 163.916 127.406 159.802 127.406 155.209C127.406 148.99 119.839 141.954 110.053 138.591C105.649 139.032 101.558 141.437 95.1681 145.052C85.7286 150.392 87.9116 141.758 96.8365 136.634C89.132 137.03 81.4502 140.317 75.7844 148.17C75.7844 148.17 76.3201 151.526 72.7627 156.718C63.0567 170.88 74.2579 179.146 87.6479 178.608C86.8906 174.877 83.7454 168.158 81.6732 163.761Z" fill="#9CD499"/>
<path d="M44.589 170.44C37.2583 176.098 29.1151 182.71 19.1188 187.199C9.12183 191.689 11.1212 206.326 11.1212 206.326C11.1212 206.326 9.62194 193.687 17.9522 189.36C26.2829 185.035 31.7809 179.881 38.1122 178.882C44.4434 177.886 47.9421 176.887 47.9421 176.887C47.9421 176.887 45.9427 172.893 47.1089 171.398C48.2755 169.902 44.589 170.44 44.589 170.44Z" fill="#74B570"/>
<path d="M8.27441 104.038C35.0983 111.191 54.7585 128.323 58.4239 132.482C62.0892 136.641 62.0892 137.805 62.0892 137.805L59.257 143.129L57.9241 142.46C57.9241 142.46 60.0898 137.971 54.4254 132.151C44.6562 122.11 32.7658 114.186 24.6019 110.692C16.4383 107.198 8.27441 104.038 8.27441 104.038Z" fill="#74B570"/>
<path d="M82.4823 252.123H72.2341C64.9468 252.123 59.0391 246.224 59.0391 238.95V215.444H95.6773V238.95C95.6773 246.224 89.7699 252.123 82.4823 252.123Z" fill="#F39892"/>
</svg>
