<svg width="458" height="275" viewBox="0 0 458 275" fill="none" xmlns="http://www.w3.org/2000/svg">
<g clip-path="url(#clip0)">
<path d="M167.931 267.211C51.2655 260.442 -42.2932 137.365 19.7845 65.9348C67.9337 10.5402 132.129 91.1709 192.002 50.5472C284.117 -11.9521 433.358 -23.3268 453.107 55.4734C472.856 134.274 407.432 257.382 358.664 264.752C309.897 272.121 167.931 267.211 167.931 267.211Z" fill="#F5F6FA"/>
<path d="M183.053 100.423C184.286 129.968 183.977 145.969 173.177 158.28C162.376 170.592 132.129 167.512 132.129 167.512C132.129 167.512 129.143 211.002 86.8618 212.857C44.5806 214.711 38.4906 158.692 71.6368 144.328C103.169 130.64 113.2 126.667 124.1 92.8159C134.063 61.8865 165.148 67.7814 172.554 80.7098C179.961 93.6383 183.053 100.423 183.053 100.423Z" fill="#303C60"/>
<path d="M169.165 251.211C169.165 251.211 189.124 255.109 190.151 254.903C191.177 254.698 212.992 245.055 215.256 246.49C217.52 247.925 230.687 253.464 233.566 254.698C236.444 255.931 231.92 256.339 229.656 256.339C227.392 256.339 214.431 251.005 213.004 252.029C211.577 253.053 224.32 255.109 224.32 255.927C224.32 256.746 190.162 264.546 188.105 264.546C186.047 264.546 170.203 263.111 170.203 263.111L169.165 251.211Z" fill="#E38540"/>
<path d="M152.599 142.517C163.352 144.62 169.68 155.959 171.737 165.903C173.795 175.846 152.599 142.517 152.599 142.517Z" fill="#6791C9"/>
<path d="M134.599 134.874C134.599 134.874 113.918 148.712 102.809 155.497C91.6992 162.281 106.821 235.206 110.524 262.289C114.227 289.371 178.418 264.752 178.418 264.752C178.418 264.752 174.101 241.963 179.659 205.352C183.624 179.12 169.061 162.676 160.727 151.29C139.698 122.563 134.599 134.874 134.599 134.874Z" fill="#75A1DE"/>
<path d="M114.227 155.801C137.993 184.734 146.025 190.142 140.153 209.662C135.522 225.049 133.98 230.588 133.052 235.819C132.125 241.05 177.189 232.435 177.189 232.435L176.88 249.364C176.88 249.364 141.386 266.29 124.1 269.674C106.813 273.058 96.0127 269.061 96.0127 269.061L114.227 155.801Z" fill="#6791C9"/>
<path d="M411.817 271.675H130.638C129.663 271.675 128.728 271.288 128.039 270.601C127.35 269.914 126.962 268.982 126.962 268.01C126.962 267.037 127.35 266.105 128.039 265.418C128.728 264.731 129.663 264.344 130.638 264.344H411.817C412.792 264.344 413.727 264.731 414.416 265.418C415.105 266.105 415.493 267.037 415.493 268.01C415.493 268.982 415.105 269.914 414.416 270.601C413.727 271.288 412.792 271.675 411.817 271.675Z" fill="#2E5B9A"/>
<path d="M142.211 105.74L131.506 137.338C131.506 137.338 143.234 169.038 153.111 161.957C156.485 159.541 151.878 140.414 151.878 140.414L159.078 114.766L142.211 105.74Z" fill="#F09959"/>
<path d="M108.054 154.587C93.281 156.224 92.0043 176.131 85.2165 209.369C78.4287 242.607 80.4864 264.53 83.6583 268.753C91.3739 278.906 178.097 243.517 188.901 243.821C196.355 244.035 190.134 231.513 190.134 231.513L107.447 244.13C107.447 244.13 119.175 205.661 119.175 185.963C119.175 166.266 113.609 153.955 108.054 154.587Z" fill="#F09959"/>
<path d="M184.905 232.126C193.548 229.972 206.2 225.049 208.67 227.204C211.14 229.359 221.322 244.746 224.72 249.056C228.118 253.365 223.174 249.977 219.471 246.593C217.372 244.647 215.1 242.897 212.683 241.362C212.683 241.362 208.052 245.668 203.73 248.131C199.408 250.594 197.866 245.668 190.46 244.438C183.053 243.208 164.542 249.669 164.542 249.669L184.905 232.126Z" fill="#F09959"/>
<path d="M109.699 152.108C100.647 152.504 93.6495 160.11 91.1834 171.805C88.7172 183.5 81.5131 220.637 81.5131 220.637C81.5131 220.637 80.0699 221.665 95.0927 224.33C110.116 226.994 122.45 223.934 122.45 223.934C122.45 223.934 125.535 202.798 124.714 188.233C123.893 173.667 120.599 159.917 115.246 155.2C109.894 150.483 109.699 152.108 109.699 152.108Z" fill="#75A1DE"/>
<path d="M151.882 140.414L159.082 114.766L142.211 105.74L139.634 113.351C139.071 138.832 145.617 147.352 150.03 150.468C151.406 151.44 152.591 150.689 153.598 149.1C152.861 144.482 151.882 140.414 151.882 140.414Z" fill="#E38540"/>
<path d="M186.138 108.725C186.138 122.452 184.497 139.283 172.558 138.887C154.043 138.271 142.374 123.919 142.374 110.192C142.374 96.4647 152.056 85.3351 163.998 85.3351C175.94 85.3351 186.138 94.99 186.138 108.725Z" fill="#F09959"/>
<path d="M324.325 264.333H254.916L283.463 201.691C283.873 200.798 284.531 200.04 285.36 199.508C286.188 198.976 287.152 198.692 288.138 198.69H351.139C351.474 198.691 351.804 198.775 352.098 198.935C352.392 199.096 352.642 199.327 352.823 199.608C353.004 199.889 353.112 200.211 353.137 200.545C353.161 200.878 353.101 201.212 352.963 201.517L324.325 264.333Z" fill="#9BD6E8"/>
<path d="M324.186 264.333H196.122C196.123 262.199 196.973 260.152 198.485 258.642C199.998 257.132 202.05 256.283 204.19 256.28H324.186V264.333Z" fill="#9BD6E8"/>
<path d="M351.147 198.69H295.639C294.654 198.692 293.69 198.976 292.862 199.508C292.033 200.04 291.375 200.798 290.965 201.691L262.418 264.333H324.325L352.971 201.517C353.11 201.212 353.17 200.878 353.145 200.545C353.121 200.211 353.013 199.889 352.831 199.608C352.65 199.327 352.401 199.096 352.107 198.935C351.813 198.775 351.483 198.691 351.147 198.69Z" fill="#7BCEE8"/>
<path d="M165.771 80.5556C178.886 79.6305 186.653 91.5824 188.917 102.048C190.551 109.595 189.742 111.074 189.742 111.074C189.742 111.074 188.299 113.126 178.01 113.743C167.721 114.359 166.488 114.138 166.488 114.138L165.874 102.237L162.785 113.727C162.785 113.727 161.14 115.984 154.76 112.904C148.381 109.825 145.51 99.5845 145.51 99.5845C145.51 99.5845 144.071 92.8159 149.007 88.3008C153.943 83.7858 165.771 80.5556 165.771 80.5556Z" fill="#303C60"/>
<path d="M156.009 111.429C154.752 119.732 148.107 125.615 141.165 124.567C134.222 123.519 129.619 115.944 130.88 107.642C132.141 99.3389 138.77 93.4558 145.724 94.4917C152.679 95.5275 157.27 103.126 156.009 111.429Z" fill="#D54A41"/>
<path d="M150.997 111.208C149.832 118.894 144.376 124.449 138.809 123.61C133.243 122.772 129.69 115.857 130.84 108.191C131.99 100.525 137.461 94.9505 143.028 95.7886C148.595 96.6268 152.163 103.518 150.997 111.208Z" fill="#F39892"/>
<path d="M142.493 109.488C141.851 113.715 139.543 116.87 137.339 116.534C135.134 116.198 133.861 112.509 134.5 108.286C135.138 104.064 137.45 100.909 139.654 101.241C141.859 101.573 143.131 105.266 142.493 109.488Z" fill="#F2E5DE"/>
<path d="M142.16 94.7134C148.178 72.399 168.954 75.6529 174.204 78.7605C178.628 81.3738 179.247 85.0863 179.247 85.0863C179.247 85.0863 173.537 80.4684 163.816 82.1606C154.589 83.7658 149.102 89.1862 148.333 95.1879C147.936 98.2322 142.16 94.7134 142.16 94.7134Z" fill="#D54A41"/>
<path d="M49.8261 166.741H49.7785C49.7165 166.736 49.6561 166.718 49.6009 166.689C49.5458 166.66 49.4969 166.621 49.457 166.573C49.4172 166.525 49.3873 166.47 49.369 166.411C49.3507 166.351 49.3443 166.289 49.3503 166.227C49.8935 160.581 52.7205 154.781 57.3157 149.895C62.5097 144.36 69.9041 140.01 78.6982 137.298C98.2885 131.261 115.377 123.567 126.122 90.6176C126.141 90.5581 126.171 90.5029 126.212 90.4552C126.252 90.4074 126.301 90.3681 126.357 90.3395C126.413 90.3108 126.473 90.2934 126.536 90.2882C126.598 90.283 126.661 90.2902 126.72 90.3092C126.841 90.349 126.94 90.4345 126.997 90.547C127.054 90.6596 127.065 90.7901 127.026 90.9102C122.09 106.053 115.369 117.079 106.484 124.619C98.6493 131.265 89.8315 134.855 78.9757 138.2C70.3442 140.864 63.0925 145.13 58.0096 150.539C53.557 155.283 50.8213 160.878 50.2979 166.31C50.288 166.428 50.2339 166.538 50.1465 166.618C50.059 166.697 49.9447 166.742 49.8261 166.741Z" fill="#303C60"/>
<path d="M58.6796 143.968C58.5804 143.968 58.4838 143.937 58.4032 143.879C58.3227 143.821 58.2622 143.74 58.2303 143.646C58.1984 143.552 58.1967 143.451 58.2254 143.357C58.254 143.262 58.3117 143.178 58.3902 143.118C64.5693 138.751 71.5572 135.652 78.9479 134.001C102.186 128.897 117.803 114.96 124.068 93.7053C124.107 93.5888 124.19 93.4921 124.299 93.4354C124.409 93.3787 124.536 93.3665 124.654 93.4013C124.772 93.4361 124.872 93.5153 124.933 93.6221C124.994 93.729 125.01 93.8552 124.98 93.9742C121.102 107.104 113.803 117.467 103.292 124.773C96.5241 129.478 88.4041 132.894 79.1541 134.926C71.8993 136.544 65.0394 139.584 58.973 143.869C58.8881 143.932 58.7854 143.967 58.6796 143.968Z" fill="#303C60"/>
<path d="M356.615 137.156H293.938C293.347 137.156 293.046 136.677 293.26 136.092L305.976 101.26C306.092 100.965 306.29 100.708 306.547 100.521C306.804 100.333 307.109 100.222 307.427 100.201H370.103C370.231 100.193 370.359 100.22 370.474 100.278C370.588 100.336 370.685 100.424 370.754 100.532C370.823 100.64 370.862 100.765 370.867 100.893C370.872 101.021 370.842 101.148 370.781 101.26L358.066 136.092C357.95 136.388 357.752 136.645 357.495 136.833C357.238 137.022 356.933 137.133 356.615 137.156Z" fill="#9EC8FF"/>
<path d="M355.858 135.527H295.881C295.761 135.534 295.642 135.509 295.535 135.454C295.428 135.399 295.338 135.317 295.274 135.216C295.209 135.114 295.173 134.998 295.169 134.878C295.165 134.759 295.194 134.64 295.251 134.535L306.828 102.819C306.938 102.544 307.123 102.305 307.362 102.129C307.601 101.954 307.884 101.849 308.18 101.826H368.161C368.281 101.819 368.4 101.845 368.507 101.899C368.614 101.954 368.704 102.036 368.768 102.137C368.833 102.239 368.869 102.355 368.873 102.475C368.877 102.595 368.849 102.713 368.791 102.819L357.234 134.535C357.122 134.813 356.934 135.054 356.69 135.23C356.446 135.406 356.158 135.509 355.858 135.527Z" fill="white"/>
<path d="M354.779 133.459H298.478C297.863 133.459 297.546 132.961 297.768 132.348L307.748 105.009C307.87 104.698 308.078 104.429 308.347 104.232C308.617 104.034 308.937 103.917 309.27 103.894H365.559C366.174 103.894 366.491 104.392 366.269 105.009L356.289 132.348C356.167 132.656 355.961 132.923 355.694 133.119C355.427 133.316 355.11 133.434 354.779 133.459Z" fill="#9EC8FF"/>
<path d="M337.526 125.268C342.755 120.918 344.532 114.448 341.495 110.818C338.458 107.188 331.757 107.773 326.528 112.123C321.299 116.474 319.522 122.943 322.559 126.573C325.596 130.203 332.297 129.619 337.526 125.268Z" fill="white"/>
<path d="M340.878 118.677C339.098 123.555 333.69 127.509 328.797 127.509C323.905 127.509 321.383 123.555 323.163 118.677C324.943 113.798 330.351 109.844 335.244 109.844C340.137 109.844 342.658 113.798 340.878 118.677Z" fill="#9EC8FF"/>
<path d="M336.56 118.206L332.639 120.068L328.722 121.934L330.082 118.206L331.446 114.477L334.003 116.34L336.56 118.206Z" fill="white"/>
<path d="M261.736 97.9673H256.795C256.33 97.9848 255.868 97.8888 255.449 97.6876C255.029 97.4864 254.665 97.1861 254.389 96.8129C254.116 96.3881 253.95 95.9036 253.906 95.4009C253.861 94.8983 253.94 94.3924 254.135 93.9267L255.931 89.0004C256.629 87.0987 258.683 85.6082 260.618 85.6082H265.554C266.019 85.5907 266.481 85.6868 266.901 85.888C267.32 86.0892 267.684 86.3894 267.96 86.7627C268.234 87.1874 268.4 87.6719 268.444 88.1746C268.488 88.6773 268.409 89.1832 268.214 89.6488L266.438 94.5751C265.724 96.4689 263.663 97.9673 261.736 97.9673ZM260.618 87.506C259.492 87.506 258.14 88.5062 257.719 89.6488L255.923 94.5751C255.837 94.7554 255.794 94.9534 255.798 95.1532C255.802 95.353 255.853 95.5491 255.947 95.7256C256.051 95.8452 256.183 95.9387 256.33 95.9985C256.477 96.0582 256.637 96.0826 256.795 96.0696H261.736C262.878 96.0696 264.206 95.0891 264.63 93.9267L266.438 89.0004C266.525 88.8202 266.567 88.6222 266.563 88.4224C266.559 88.2225 266.508 88.0265 266.414 87.8499C266.31 87.7298 266.179 87.636 266.031 87.5762C265.884 87.5164 265.724 87.4923 265.566 87.506H260.618Z" fill="#9CD499"/>
<path d="M254.096 118.898H249.159C248.693 118.914 248.23 118.818 247.811 118.616C247.391 118.414 247.026 118.113 246.749 117.74C246.476 117.315 246.311 116.83 246.266 116.328C246.222 115.825 246.301 115.319 246.495 114.854L248.295 109.931C248.989 108.026 251.047 106.535 252.977 106.535H257.914C258.379 106.519 258.842 106.616 259.261 106.817C259.681 107.018 260.046 107.317 260.324 107.69C260.597 108.115 260.762 108.601 260.806 109.104C260.849 109.607 260.77 110.114 260.574 110.58L258.778 115.502C258.084 117.423 256.026 118.898 254.096 118.898ZM252.977 108.433C251.851 108.433 250.499 109.437 250.083 110.58L248.283 115.502C248.198 115.683 248.156 115.881 248.161 116.08C248.166 116.28 248.217 116.476 248.311 116.652C248.414 116.773 248.545 116.868 248.693 116.928C248.84 116.989 249 117.014 249.159 117H254.096C255.241 117 256.566 116.016 256.99 114.854L258.786 109.931C258.873 109.751 258.915 109.553 258.911 109.353C258.907 109.153 258.856 108.957 258.762 108.781C258.659 108.659 258.528 108.564 258.38 108.503C258.233 108.443 258.073 108.419 257.914 108.433H252.977Z" fill="#9CD499"/>
<path d="M246.455 139.824H241.519C241.054 139.841 240.592 139.744 240.172 139.543C239.753 139.342 239.389 139.043 239.112 138.67C238.838 138.245 238.672 137.759 238.628 137.256C238.584 136.753 238.663 136.246 238.858 135.78L240.666 130.865C241.36 128.96 243.418 127.469 245.349 127.469H250.289C250.754 127.453 251.217 127.55 251.636 127.752C252.055 127.954 252.419 128.254 252.696 128.628C252.969 129.052 253.135 129.537 253.179 130.04C253.223 130.542 253.144 131.048 252.949 131.514L251.153 136.436C250.444 138.334 248.39 139.824 246.455 139.824ZM245.337 129.359C244.195 129.359 242.867 130.344 242.442 131.506L240.666 136.428C240.575 136.608 240.527 136.806 240.527 137.007C240.527 137.209 240.575 137.407 240.666 137.587C240.77 137.708 240.901 137.803 241.048 137.863C241.196 137.924 241.356 137.948 241.515 137.935H246.455C247.601 137.935 248.925 136.954 249.349 135.788L251.149 130.865C251.236 130.685 251.279 130.487 251.275 130.287C251.271 130.088 251.22 129.892 251.126 129.715C251.021 129.595 250.89 129.501 250.743 129.44C250.595 129.38 250.436 129.355 250.277 129.367L245.337 129.359Z" fill="#9EC8FF"/>
<path d="M302.364 93.9425H275.204C275.093 93.9488 274.981 93.9252 274.881 93.8742C274.782 93.8233 274.697 93.7467 274.637 93.6525C274.577 93.5583 274.543 93.4497 274.539 93.3381C274.535 93.2265 274.561 93.1158 274.614 93.0173C274.716 92.7606 274.889 92.5379 275.113 92.3749C275.337 92.212 275.602 92.1153 275.878 92.0962H303.038C303.149 92.0898 303.26 92.1132 303.359 92.1639C303.459 92.2147 303.543 92.2909 303.602 92.3849C303.662 92.4788 303.696 92.5869 303.7 92.6981C303.704 92.8093 303.678 92.9195 303.624 93.0173C303.524 93.2748 303.352 93.4984 303.129 93.6622C302.905 93.826 302.64 93.9232 302.364 93.9425Z" fill="#9EC8FF"/>
<path d="M301.016 97.6549H273.856C273.745 97.6621 273.633 97.6392 273.533 97.5888C273.433 97.5383 273.349 97.4621 273.289 97.3681C273.228 97.274 273.194 97.1656 273.19 97.054C273.186 96.9424 273.212 96.8318 273.266 96.7337C273.368 96.4762 273.54 96.2527 273.764 96.089C273.988 95.9253 274.254 95.8281 274.53 95.8086H301.69C301.802 95.8017 301.913 95.825 302.013 95.876C302.113 95.9269 302.197 96.0036 302.257 96.0982C302.317 96.1927 302.351 96.3015 302.354 96.4133C302.358 96.5251 302.331 96.6358 302.277 96.7337C302.175 96.9902 302.003 97.2127 301.779 97.3757C301.556 97.5387 301.292 97.6355 301.016 97.6549Z" fill="#9EC8FF"/>
<path d="M295.286 113.331H268.127C268.015 113.338 267.904 113.316 267.804 113.265C267.704 113.215 267.619 113.139 267.559 113.044C267.499 112.95 267.465 112.842 267.461 112.73C267.457 112.619 267.483 112.508 267.536 112.41C267.64 112.152 267.816 111.928 268.043 111.766C268.27 111.603 268.538 111.509 268.817 111.493H295.976C296.088 111.486 296.2 111.509 296.3 111.56C296.399 111.611 296.484 111.688 296.544 111.782C296.604 111.877 296.637 111.986 296.64 112.098C296.644 112.209 296.617 112.32 296.563 112.418C296.459 112.675 296.283 112.898 296.057 113.059C295.831 113.221 295.564 113.315 295.286 113.331Z" fill="#9EC8FF"/>
<path d="M293.938 117.028H266.779C266.667 117.035 266.556 117.012 266.456 116.962C266.356 116.911 266.271 116.835 266.211 116.741C266.151 116.647 266.117 116.538 266.113 116.427C266.109 116.315 266.135 116.205 266.188 116.107C266.29 115.849 266.463 115.626 266.686 115.462C266.91 115.298 267.176 115.201 267.453 115.181H294.612C294.724 115.175 294.836 115.198 294.936 115.249C295.035 115.3 295.12 115.377 295.18 115.471C295.24 115.566 295.273 115.674 295.276 115.786C295.28 115.898 295.253 116.009 295.199 116.107C295.097 116.363 294.925 116.586 294.702 116.749C294.479 116.912 294.214 117.008 293.938 117.028Z" fill="#9EC8FF"/>
<path d="M287.424 134.874H260.261C260.149 134.881 260.038 134.857 259.939 134.807C259.84 134.756 259.756 134.68 259.696 134.586C259.636 134.492 259.602 134.384 259.599 134.272C259.595 134.161 259.621 134.051 259.674 133.953C259.775 133.696 259.947 133.473 260.17 133.309C260.393 133.145 260.658 133.048 260.935 133.028H288.098C288.21 133.021 288.322 133.044 288.421 133.095C288.521 133.146 288.606 133.223 288.666 133.318C288.725 133.412 288.759 133.521 288.762 133.633C288.766 133.745 288.739 133.855 288.685 133.953C288.583 134.209 288.41 134.432 288.187 134.595C287.964 134.758 287.7 134.854 287.424 134.874Z" fill="#9EC8FF"/>
<path d="M286.076 138.567H258.905C258.794 138.574 258.683 138.55 258.583 138.5C258.484 138.449 258.4 138.373 258.34 138.279C258.281 138.185 258.247 138.077 258.243 137.965C258.239 137.854 258.265 137.744 258.318 137.646C258.42 137.389 258.593 137.165 258.817 137.001C259.041 136.838 259.306 136.74 259.583 136.721H286.742C286.854 136.714 286.966 136.737 287.066 136.788C287.166 136.839 287.25 136.916 287.31 137.011C287.37 137.105 287.403 137.214 287.407 137.326C287.41 137.438 287.383 137.548 287.329 137.646C287.228 137.901 287.056 138.123 286.835 138.286C286.613 138.448 286.351 138.546 286.076 138.567Z" fill="#9EC8FF"/>
<path d="M260.586 95.1998C260.502 95.1996 260.418 95.1876 260.336 95.1642C260.194 95.1268 260.062 95.0564 259.952 94.9589C259.842 94.8614 259.756 94.7394 259.702 94.6028L257.838 89.9889C257.744 89.7556 257.746 89.4943 257.845 89.2626C257.943 89.0309 258.13 88.8477 258.364 88.7533C258.598 88.659 258.86 88.6611 259.092 88.7594C259.324 88.8576 259.508 89.0439 259.603 89.2772L260.998 92.7327L272.017 84.264C272.217 84.1104 272.47 84.0424 272.721 84.075C272.972 84.1076 273.199 84.2382 273.353 84.4379C273.507 84.6377 273.575 84.8903 273.543 85.1401C273.51 85.39 273.379 85.6167 273.179 85.7703L261.165 95.0021C261 95.1305 260.796 95.2001 260.586 95.1998Z" fill="#F37168"/>
<path d="M252.958 116.126C252.874 116.125 252.79 116.115 252.708 116.095C252.567 116.055 252.437 115.984 252.327 115.887C252.218 115.79 252.133 115.669 252.078 115.533L250.182 110.915C250.088 110.682 250.091 110.42 250.19 110.188C250.29 109.957 250.477 109.774 250.712 109.68C250.946 109.586 251.208 109.589 251.441 109.688C251.673 109.787 251.857 109.974 251.951 110.208L253.346 113.663L264.361 105.194C264.459 105.115 264.573 105.055 264.695 105.02C264.817 104.984 264.944 104.974 265.071 104.988C265.197 105.003 265.319 105.043 265.429 105.105C265.54 105.167 265.637 105.251 265.714 105.351C265.792 105.452 265.849 105.566 265.881 105.689C265.913 105.811 265.921 105.939 265.903 106.064C265.885 106.19 265.842 106.31 265.777 106.419C265.711 106.528 265.625 106.622 265.522 106.697L253.513 115.929C253.353 116.051 253.159 116.121 252.958 116.126Z" fill="#F37168"/>
<path d="M432.53 69.6274H328.21L330.911 62.2419H435.226L432.53 69.6274Z" fill="#9EC8FF"/>
<path d="M428.486 80.7099H324.17L326.863 73.3245H431.182L428.486 80.7099Z" fill="#9EC8FF"/>
<path d="M312.858 169.279H236.253C235.25 169.279 234.731 168.465 235.096 167.465C235.296 166.96 235.636 166.522 236.075 166.201C236.514 165.88 237.035 165.689 237.578 165.65H314.183C315.186 165.65 315.705 166.468 315.34 167.465C315.14 167.97 314.801 168.408 314.362 168.729C313.923 169.051 313.402 169.241 312.858 169.279Z" fill="#9EC8FF"/>
<path d="M309.912 177.344H233.308C232.308 177.344 231.789 176.53 232.15 175.53C232.351 175.025 232.691 174.586 233.131 174.265C233.57 173.944 234.092 173.753 234.636 173.715H311.241C312.24 173.715 312.759 174.533 312.398 175.53C312.198 176.035 311.858 176.474 311.419 176.795C310.979 177.117 310.456 177.307 309.912 177.344Z" fill="#9EC8FF"/>
<path d="M381.625 245.545C381.625 244.264 397.108 201.596 386.641 174.13C379.313 154.9 378.156 131.826 378.156 131.826C378.156 131.826 363.882 152.211 373.525 183.366C379.472 202.541 381.883 207.855 382.398 213.497C382.914 219.138 380.083 247.344 380.083 247.344L381.625 245.545Z" fill="#9CD499"/>
<path d="M380.083 247.814C380.018 247.815 379.955 247.802 379.896 247.775C379.804 247.735 379.726 247.667 379.675 247.58C379.623 247.493 379.601 247.393 379.611 247.292C379.639 247.012 382.43 219.067 381.922 213.536C381.589 209.855 380.447 206.376 377.958 198.754C376.661 194.847 375.075 189.988 373.093 183.504C368.077 167.294 369.612 154.054 371.784 145.79C374.163 136.82 377.636 131.763 377.787 131.557C377.844 131.477 377.924 131.416 378.017 131.383C378.111 131.35 378.212 131.348 378.306 131.375C378.401 131.403 378.486 131.459 378.547 131.536C378.609 131.614 378.645 131.708 378.651 131.806C378.651 132.036 379.888 155.034 387.104 173.972C391.022 184.252 391.807 197.785 389.44 214.228C387.552 227.354 384.19 238.575 382.751 243.367C382.422 244.458 382.14 245.399 382.121 245.573C382.121 245.679 382.081 245.782 382.01 245.861L380.463 247.656C380.416 247.71 380.357 247.752 380.291 247.779C380.225 247.806 380.154 247.818 380.083 247.814ZM377.779 133.329C375.519 137.333 373.802 141.62 372.672 146.075C370.543 154.208 369.041 167.259 373.981 183.239C375.987 189.715 377.577 194.571 378.858 198.473C381.375 206.167 382.525 209.677 382.874 213.465C383.322 218.399 381.288 239.954 380.705 245.885L381.177 245.335C381.232 245.055 381.395 244.493 381.819 243.082C390.76 213.279 392.231 190.135 386.181 174.288C379.988 158.007 378.18 138.773 377.779 133.329Z" fill="#77DC52"/>
<path d="M384.987 249.906C382.672 202.462 393.987 176.57 417.13 156.054C440.273 135.539 441.316 130.154 441.316 130.154C441.316 130.154 437.716 170.157 424.346 184.003C410.977 197.848 391.438 208.12 388.603 215.288C385.768 222.456 386.803 246.569 386.803 246.569L385.003 250.918L384.987 249.906Z" fill="#9CD499"/>
<path d="M382.14 254.006C381.883 253.239 387.025 209.646 405.799 207.08C424.572 204.514 428.942 208.875 441.8 206.827C447.337 205.944 452.766 204.486 458 202.478C458 202.478 453.131 214.837 436.399 219.914C424.572 223.504 409.141 217.609 400.141 219.147C391.141 220.685 386.514 239.915 386.514 239.915L384.987 249.906L382.14 254.006Z" fill="#9CD499"/>
<path d="M384.714 247.558C384.595 247.557 384.481 247.513 384.393 247.433C384.305 247.354 384.25 247.244 384.238 247.127C384.21 246.822 381.546 216.197 394.582 192.748C401.322 180.638 408.669 173.616 415.778 166.832C422.404 160.506 428.66 154.532 433.402 145.087C433.459 144.974 433.558 144.889 433.678 144.849C433.798 144.809 433.929 144.819 434.042 144.875C434.155 144.932 434.241 145.031 434.281 145.151C434.321 145.271 434.311 145.401 434.254 145.514C429.437 155.121 423.121 161.151 416.436 167.532C409.379 174.253 402.08 181.239 395.423 193.23C382.533 216.415 385.166 246.755 385.193 247.059C385.204 247.185 385.166 247.309 385.086 247.406C385.005 247.503 384.89 247.564 384.765 247.577L384.714 247.558Z" fill="#77DC52"/>
<path d="M383.429 241.406C383.383 241.406 383.338 241.399 383.294 241.386C383.173 241.35 383.071 241.269 383.01 241.158C382.949 241.048 382.934 240.918 382.969 240.797C387.893 223.879 393.543 214.007 400.747 209.733C407.19 205.91 413.831 207.084 420.901 208.326C422.625 208.63 424.41 208.947 426.174 209.176C441.494 211.18 448.964 207.468 449.039 207.428C449.152 207.371 449.283 207.36 449.403 207.398C449.524 207.437 449.624 207.522 449.682 207.634C449.739 207.746 449.75 207.877 449.711 207.997C449.673 208.117 449.588 208.217 449.475 208.274C449.166 208.433 441.704 212.165 426.051 210.117C424.263 209.884 422.483 209.567 420.734 209.263C413.863 208.049 407.373 206.891 401.235 210.548C394.249 214.695 388.734 224.386 383.885 241.062C383.855 241.16 383.795 241.247 383.713 241.308C383.631 241.37 383.532 241.404 383.429 241.406Z" fill="#77DC52"/>
<path d="M407.983 175.632C407.884 175.632 407.788 175.601 407.707 175.543C407.626 175.486 407.566 175.404 407.534 175.311C407.502 175.217 407.5 175.116 407.529 175.021C407.558 174.926 407.615 174.843 407.694 174.782C414.261 170.139 421.732 166.92 429.623 165.333C429.742 165.32 429.862 165.352 429.959 165.423C430.055 165.494 430.121 165.598 430.144 165.715C430.166 165.833 430.143 165.954 430.08 166.056C430.017 166.157 429.917 166.231 429.802 166.262C422.055 167.821 414.723 170.982 408.277 175.542C408.192 175.603 408.089 175.635 407.983 175.632Z" fill="#77DC52"/>
<path d="M393.456 196.275C393.371 196.274 393.288 196.251 393.214 196.208C393.16 196.176 393.113 196.135 393.076 196.085C393.038 196.035 393.011 195.979 392.995 195.918C392.98 195.858 392.976 195.795 392.985 195.734C392.994 195.672 393.016 195.613 393.048 195.559C399.744 184.299 407.587 181.461 424.687 176.115C424.748 176.094 424.812 176.084 424.876 176.088C424.94 176.092 425.003 176.109 425.061 176.137C425.118 176.166 425.169 176.206 425.211 176.254C425.253 176.303 425.284 176.36 425.303 176.421C425.322 176.483 425.328 176.547 425.322 176.611C425.315 176.674 425.296 176.736 425.264 176.792C425.233 176.848 425.191 176.897 425.14 176.937C425.089 176.976 425.031 177.005 424.969 177.021C408.11 182.291 400.387 185.082 393.865 196.042C393.823 196.113 393.763 196.172 393.692 196.213C393.62 196.254 393.539 196.275 393.456 196.275Z" fill="#77DC52"/>
<path d="M389.297 265.685H377.799C375.836 265.679 373.936 264.992 372.425 263.741C370.915 262.49 369.889 260.753 369.524 258.829L365.821 239.52H401.307L397.604 258.829C397.238 260.758 396.207 262.499 394.69 263.751C393.174 265.003 391.266 265.687 389.297 265.685Z" fill="#F39892"/>
<path d="M400.398 244.442H366.971C366.718 244.442 366.476 244.342 366.298 244.164C366.119 243.986 366.019 243.745 366.019 243.493C366.019 243.241 366.119 243 366.298 242.822C366.476 242.644 366.718 242.544 366.971 242.544H400.398C400.651 242.544 400.893 242.644 401.071 242.822C401.25 243 401.35 243.241 401.35 243.493C401.35 243.745 401.25 243.986 401.071 244.164C400.893 244.342 400.651 244.442 400.398 244.442Z" fill="#D54A41"/>
</g>
<defs>
<clipPath id="clip0">
<rect width="458" height="275" fill="white"/>
</clipPath>
</defs>
</svg>
