<svg width="458" height="259" viewBox="0 0 458 259" fill="none" xmlns="http://www.w3.org/2000/svg">
<g clip-path="url(#clip0)">
<path d="M59.8178 254.296C59.8178 254.296 -47.8658 189.258 25.7255 119.52C99.3169 49.7812 197.805 -21.5022 263.822 6.07618C329.839 33.6546 323.902 68.5202 396.414 118.999C468.925 169.477 452.148 209.549 439.163 229.84C426.179 250.132 424.012 255.353 424.012 255.353L59.8178 254.296Z" fill="#F5F6FA"/>
<path d="M142.067 69.6629C158.015 56.0085 169.718 64.1508 178.446 73.2562C185.396 80.5146 186.368 82.1208 192.111 89.6415C192.963 90.7591 193.605 91.9987 193.643 93.3822C193.803 101.693 198.228 136.861 193.31 148.97C187.575 163.106 116.905 169.574 116.905 169.574L142.067 69.6629Z" fill="#303C60"/>
<path d="M187.332 157.026C187.166 156.994 187.016 156.909 186.907 156.784C186.797 156.66 186.736 156.503 186.731 156.34C186.727 156.177 186.78 156.017 186.883 155.888C186.985 155.758 187.13 155.665 187.295 155.625C189.391 155.524 191.098 154.615 192.526 152.855C200.451 142.98 195.993 110.015 192.111 92.0958C192.065 91.9977 192.042 91.8909 192.044 91.7832C192.046 91.6754 192.074 91.5696 192.124 91.4735C192.175 91.3773 192.247 91.2934 192.336 91.2278C192.425 91.1622 192.528 91.1167 192.638 91.0946C192.748 91.0725 192.861 91.0744 192.97 91.1002C193.079 91.126 193.18 91.1749 193.267 91.2435C193.353 91.312 193.422 91.3983 193.469 91.4961C193.516 91.5939 193.54 91.7006 193.538 91.8083C194.387 95.7214 197.219 109.617 198.105 124.087C199.016 138.949 197.525 148.916 193.677 153.71C192.01 155.787 189.892 156.901 187.381 157.023L187.332 157.026Z" fill="#303C60"/>
<path d="M148.049 65.588C117.41 81.8799 136.092 136.99 97.2323 156.638C86.4636 162.078 53.3802 189.696 75.0559 226.121C89.2361 249.945 131.616 244.806 145.568 223.725C159.521 202.643 148.049 65.588 148.049 65.588Z" fill="#303C60"/>
<path d="M66.5108 190.882H66.4137C66.2177 190.859 66.0393 190.762 65.9174 190.612C65.7956 190.463 65.7403 190.273 65.7635 190.084C65.7896 189.89 66.4585 185.251 69.5 179.103C73.5548 170.958 79.9097 164.074 87.839 159.236C105.823 148.23 117.761 137.86 131.874 86.7309C131.878 86.623 131.907 86.5174 131.96 86.4219C132.012 86.3264 132.086 86.2435 132.176 86.1792C132.266 86.1149 132.37 86.071 132.48 86.0507C132.591 86.0304 132.704 86.0342 132.813 86.0619C132.921 86.0895 133.022 86.1403 133.107 86.2105C133.192 86.2807 133.26 86.3684 133.305 86.4672C133.35 86.566 133.372 86.6733 133.368 86.7812C133.364 86.889 133.335 86.9947 133.283 87.0902C126.464 111.798 119.701 128.499 111.985 139.653C104.837 150.009 97.4793 154.989 88.605 160.418C69.9223 171.852 67.2021 190.088 67.1759 190.268C67.1525 190.427 67.0743 190.574 66.9537 190.685C66.8331 190.797 66.6772 190.866 66.5108 190.882Z" fill="#303C60"/>
<path d="M67.1648 176.61C67.0339 176.61 66.9053 176.576 66.7925 176.513C66.6797 176.449 66.5869 176.357 66.5238 176.247C66.4607 176.136 66.4297 176.012 66.434 175.886C66.4383 175.76 66.4778 175.638 66.5482 175.532C70.8347 168.92 76.5737 163.291 83.3627 159.038C108.622 143.332 112.799 134.302 133.66 82.5842C133.691 82.4937 133.741 82.4102 133.806 82.3387C133.872 82.2673 133.952 82.2094 134.041 82.1687C134.131 82.1279 134.228 82.1052 134.327 82.1018C134.426 82.0984 134.524 82.1144 134.617 82.1489C134.709 82.1833 134.793 82.2355 134.864 82.3023C134.934 82.3691 134.99 82.4489 135.027 82.5371C135.065 82.6253 135.083 82.7198 135.081 82.815C135.08 82.9103 135.058 83.0041 135.017 83.0909C124.588 108.962 118.355 124.101 111.536 134.834C104.216 146.368 95.9511 152.872 84.1549 160.21C77.5413 164.35 71.9502 169.833 67.7738 176.272C67.7089 176.372 67.6194 176.455 67.5132 176.514C67.407 176.573 67.2873 176.606 67.1648 176.61Z" fill="#303C60"/>
<path d="M146.992 99.9792C136.44 121.054 138.062 140.174 138.062 140.174C138.062 140.174 139.28 147.59 144.149 149.157C149.017 150.724 155.919 146.034 155.511 139.793C155.104 133.551 157.137 118.327 159.569 112.865C162.002 107.403 146.992 99.9792 146.992 99.9792Z" fill="#F09959"/>
<path d="M91.2427 246.406C91.9078 252.155 90.4094 251.677 95.7265 252.636C101.044 253.596 110.508 250.092 110.508 250.092L99.8778 231.084L91.2427 246.406Z" fill="#6791C9"/>
<path d="M139.336 128.859C136.347 138.201 113.928 131.015 106.081 133.171C98.2341 135.327 91.5083 166.947 90.3873 195.334C89.2663 223.721 90.761 246.359 93.7502 249.952C96.7395 253.546 146.062 254.983 150.546 253.546C155.03 252.108 113.18 234.142 113.18 234.142C113.18 234.142 110.565 201.084 113.928 184.195C117.29 167.307 147.557 145.028 147.557 145.028L139.336 128.859Z" fill="#F09959"/>
<path d="M149.798 131.733C157.645 143.232 178.196 141.794 185.296 151.137C192.395 160.48 207.341 211.863 207.341 211.863L223.035 159.761C223.035 159.761 235.765 157.706 231.629 166.229C224.279 181.392 221.54 230.311 213.566 237.257C204.7 244.986 195.874 238.694 190.897 225.169C186.08 212.083 174.082 183.847 165.488 173.067C156.894 162.287 147.553 145.039 147.553 145.039L149.798 131.733Z" fill="#F09959"/>
<path d="M115.792 133.17C131.485 150.777 162.125 150.059 168.851 147.903L175.577 145.747C175.577 145.747 180.808 143.95 185.292 148.981C189.775 154.011 200.611 185.632 202.48 192.819C204.348 200.005 207.337 211.863 207.337 211.863C207.337 211.863 199.319 221.119 199.319 230.462C199.319 239.805 202.723 239.887 202.723 239.887C202.723 239.887 192.761 237.731 190.519 231.982C188.277 226.233 168.1 174.13 168.1 174.13L112.425 175.208L113.173 234.138C113.173 234.138 108.315 229.826 101.589 234.138C94.8634 238.45 92.6215 248.511 93.7425 249.948C94.8634 251.386 91.5005 251.386 91.5005 250.308C91.5005 249.23 85.1484 222.999 89.6323 179.879C94.1161 136.76 102.71 132.089 107.568 131.73C110.394 131.49 113.235 131.988 115.792 133.17Z" fill="#75A1DE"/>
<path d="M200.458 239.154C200.511 239.172 200.566 239.183 200.622 239.187L200.458 239.154Z" fill="#6791C9"/>
<path d="M202.614 213.182C199.375 214.142 193.893 225.162 193.893 225.162C193.893 225.162 181.435 199.046 177.699 162.865L173.252 187.411C179.388 203.261 189.024 228.13 190.534 232C192.585 237.261 200.854 239.456 201.99 239.697C201.68 239.596 200.996 239.197 200.428 237.62C200.1 237.333 198.228 236.492 197.88 236.183C194.891 233.549 196.135 227.318 198.127 220.372C200.118 213.426 205.854 212.223 202.614 213.182Z" fill="#6791C9"/>
<path d="M115.108 175.165L108.931 148.011C102.206 157.116 101.458 188.255 104.197 209.589C106.439 227.077 109.802 231.616 112.119 233.437C112.493 233.645 112.847 233.886 113.176 234.156L112.429 175.226L115.108 175.165Z" fill="#6791C9"/>
<path d="M97.2212 147.77C108.681 177.483 102.953 183.473 118.034 218.342C126.456 237.821 142.695 252.478 142.695 252.478C142.695 252.478 155.773 255.712 172.214 254.634C188.655 253.556 200.697 252.478 200.697 252.478C200.697 252.478 183.427 242.417 182.68 235.59C181.932 228.762 178.685 201.676 182.923 182.51C186.23 167.54 172.587 152.574 172.587 152.574L149.794 151.496L97.2212 147.77Z" fill="#75A1DE"/>
<path opacity="0.5" d="M117.403 193.297C115.411 186.348 125.873 195.453 143.065 197.131C160.257 198.809 179.44 196.172 169.968 199.046C160.496 201.921 134.587 197.609 139.329 206.714C144.9 217.429 151.48 227.8 161.001 234.023C167.229 238.098 182.179 241.928 167.726 239.772C153.273 237.616 137.834 221.321 131.108 210.778C124.382 200.236 117.847 194.846 117.403 193.297Z" fill="#6791C9"/>
<path d="M155.471 137.048C155.624 129.861 157.44 117.644 159.581 112.858C161.326 108.941 154.114 104.025 149.884 101.553L146.305 101.406C145.759 102.549 145.249 103.684 144.773 104.812C140.984 128.665 152.287 138.521 157.683 140.497C160.01 141.352 162.619 141.449 164.849 141.255C161.52 140.138 158.273 138.826 155.471 137.048Z" fill="#E38540"/>
<path d="M148.625 147.655C147.284 147.653 145.948 147.497 144.646 147.191C141.529 146.473 134.09 143.681 132.36 133.702C132.345 133.649 132.342 133.593 132.351 133.538C132.36 133.483 132.381 133.431 132.412 133.385C132.444 133.338 132.485 133.298 132.533 133.268C132.581 133.237 132.635 133.217 132.692 133.207C132.748 133.198 132.806 133.2 132.862 133.214C132.918 133.227 132.97 133.252 133.016 133.286C133.061 133.32 133.099 133.363 133.126 133.412C133.153 133.46 133.17 133.514 133.174 133.569C134.822 143.084 141.884 145.725 144.844 146.419C149.44 147.497 154.316 146.501 156.188 144.098C157.682 142.175 156.789 138.072 156.782 138.032C156.769 137.933 156.796 137.834 156.855 137.753C156.915 137.672 157.004 137.615 157.105 137.594C157.206 137.573 157.312 137.589 157.401 137.638C157.491 137.688 157.558 137.768 157.589 137.863C157.63 138.046 158.579 142.358 156.842 144.575C155.317 146.537 152.16 147.655 148.625 147.655Z" fill="#F5CE5C"/>
<path d="M183.793 109.354C181.256 122.225 175.401 132.61 165.484 130.655C155.567 128.7 145.161 115.1 147.9 102.268C150.639 89.4365 160.896 80.6186 170.805 82.577C180.714 84.5353 187.171 92.1998 183.793 109.354Z" fill="#F09959"/>
<path d="M219.059 172.93C219.059 172.93 200.75 220.25 199.872 225.162C198.994 230.074 200.746 233.204 201.243 233.204C201.74 233.204 217.31 207.566 217.31 207.566L219.059 172.93Z" fill="#F09959"/>
<path d="M219.806 170.853C221.301 166.06 218.973 159.991 218.973 159.991L225.617 160.788L219.806 170.853Z" fill="#F09959"/>
<path d="M227.104 162.679H208.567C208.305 162.679 208.046 162.62 207.812 162.506C207.578 162.393 207.375 162.229 207.218 162.027C207.062 161.825 206.957 161.591 206.911 161.342C206.866 161.094 206.881 160.839 206.956 160.598L218.659 122.869C218.762 122.535 218.975 122.243 219.265 122.035C219.555 121.827 219.908 121.715 220.27 121.715H238.81C239.072 121.715 239.33 121.774 239.564 121.887C239.797 122 240 122.164 240.157 122.366C240.313 122.567 240.418 122.801 240.464 123.049C240.51 123.296 240.495 123.551 240.421 123.792L228.718 161.522C228.615 161.856 228.402 162.15 228.111 162.358C227.82 162.567 227.467 162.679 227.104 162.679Z" fill="#4381DB"/>
<path d="M229.424 162.679H210.891C210.629 162.679 210.371 162.62 210.137 162.506C209.902 162.393 209.699 162.229 209.543 162.027C209.386 161.825 209.281 161.591 209.236 161.342C209.19 161.094 209.205 160.839 209.281 160.598L220.983 122.869C221.087 122.535 221.299 122.243 221.589 122.035C221.88 121.827 222.232 121.715 222.594 121.715H241.135C241.396 121.715 241.654 121.774 241.888 121.887C242.121 122 242.325 122.164 242.481 122.366C242.637 122.567 242.743 122.801 242.788 123.049C242.834 123.296 242.819 123.551 242.745 123.792L231.042 161.522C230.939 161.857 230.726 162.151 230.434 162.36C230.142 162.569 229.788 162.68 229.424 162.679Z" fill="#2E5B9A"/>
<path d="M216.01 135.326C214.033 142.175 212.703 147.799 213.02 147.903C213.338 148.007 215.233 142.513 217.209 135.668C219.186 128.823 220.516 123.195 220.18 123.091C219.843 122.987 217.986 128.481 216.01 135.326Z" fill="#9CBEED"/>
<path d="M228.61 173.89C229.155 167.666 234.76 161.834 236.894 159.973C237.215 159.694 237.47 159.353 237.643 158.972C237.817 158.591 237.904 158.179 237.899 157.763C237.869 154.658 237.727 147.342 237.058 146.48C236.21 145.402 234.088 131.388 233.097 131.916C232.107 132.445 233.378 144.712 233.378 144.712C233.378 144.712 230.971 143.634 229.701 143.077C228.43 142.52 223.188 148.108 223.188 148.108C223.188 148.108 220.733 154.073 227.448 151.518C235.418 148.481 229.439 156.947 224.122 162.38C219.743 166.854 223.472 167.846 223.472 167.846L227.01 167.709L228.61 173.89Z" fill="#F09959"/>
<path d="M226.6 178.784C225.948 178.781 225.301 178.684 224.679 178.496C222.956 177.979 219.945 176.311 219.149 170.95C219.133 170.846 219.161 170.741 219.226 170.657C219.291 170.572 219.388 170.516 219.496 170.501C219.604 170.486 219.714 170.513 219.802 170.575C219.889 170.638 219.948 170.731 219.963 170.835C220.647 175.42 222.953 177.095 224.776 177.691C226.271 178.18 227.493 177.954 227.806 177.788C227.816 177.719 227.844 177.653 227.889 177.597C227.934 177.542 227.993 177.498 228.061 177.472C228.163 177.433 228.277 177.435 228.377 177.477C228.478 177.518 228.558 177.597 228.599 177.695C228.638 177.796 228.647 177.906 228.624 178.012C228.601 178.117 228.547 178.214 228.468 178.291C228.176 178.586 227.474 178.784 226.6 178.784Z" fill="#F5CE5C"/>
<path d="M225.904 177.242C225.345 177.241 224.787 177.203 224.234 177.127C221.032 176.678 218.883 175.115 218.341 172.837C218.325 172.737 218.349 172.635 218.408 172.551C218.467 172.467 218.557 172.408 218.659 172.386C218.762 172.364 218.869 172.38 218.96 172.43C219.051 172.481 219.118 172.564 219.148 172.661C219.664 174.834 221.719 175.758 223.352 176.153C225.643 176.703 227.791 176.362 228.049 176.078C228.075 176.033 228.111 175.993 228.153 175.962C228.195 175.93 228.244 175.906 228.296 175.893C228.347 175.879 228.401 175.875 228.455 175.882C228.508 175.888 228.559 175.905 228.606 175.93C228.653 175.957 228.695 175.992 228.729 176.034C228.762 176.076 228.787 176.124 228.801 176.175C228.815 176.226 228.819 176.279 228.811 176.331C228.804 176.384 228.786 176.434 228.759 176.48C228.453 177.005 227.249 177.242 225.904 177.242Z" fill="#F5CE5C"/>
<path d="M172.419 116.063C172.215 116.063 172.012 116.048 171.81 116.02C168.668 115.556 166.766 111.654 167.487 107.137C167.762 105.17 168.604 103.317 169.919 101.787C171.235 100.35 172.815 99.6812 174.377 99.9112C177.52 100.371 179.418 104.273 178.7 108.79C178.028 113.002 175.337 116.063 172.419 116.063ZM173.779 101.266C172.841 101.266 171.874 101.769 171.014 102.703C169.882 104.032 169.159 105.639 168.926 107.342C168.35 110.961 169.774 114.295 172.031 114.626C174.287 114.956 176.683 112.186 177.262 108.571C177.841 104.956 176.414 101.622 174.157 101.287C174.032 101.268 173.906 101.257 173.779 101.255V101.266Z" fill="white"/>
<path d="M182.785 116.063C182.685 116.065 182.585 116.057 182.486 116.041C180.427 115.739 179.31 112.387 179.945 108.409C180.58 104.431 182.691 101.546 184.746 101.855C185.808 102.013 186.641 102.933 187.097 104.485C187.522 106.123 187.587 107.828 187.287 109.491C186.686 113.282 184.746 116.063 182.785 116.063ZM184.44 102.894C183.229 102.894 181.578 105.136 181.032 108.567C180.464 112.132 181.432 114.816 182.654 114.996C183.876 115.175 185.643 112.894 186.2 109.329C186.474 107.816 186.419 106.265 186.039 104.773C185.71 103.673 185.18 102.976 184.578 102.901L184.44 102.894Z" fill="white"/>
<path d="M168.978 104.148C168.91 104.147 168.842 104.137 168.776 104.119L144.362 97.4103C144.178 97.3574 144.024 97.2371 143.932 97.0755C143.84 96.9139 143.818 96.7239 143.87 96.5468C143.923 96.3696 144.046 96.2195 144.213 96.1289C144.38 96.0383 144.577 96.0145 144.762 96.0628L169.176 102.768C169.328 102.829 169.455 102.937 169.537 103.075C169.618 103.212 169.65 103.372 169.628 103.529C169.605 103.686 169.529 103.832 169.412 103.943C169.294 104.054 169.142 104.125 168.978 104.144V104.148Z" fill="white"/>
<path d="M186.417 89.548C148.629 110.953 146.555 96.5765 146.555 96.5765L148.797 76.1307L171.216 77.3273L186.417 89.548Z" fill="#303C60"/>
<path d="M149.462 101.33C150.34 104.949 149.141 108.312 146.783 108.844C144.425 109.376 141.795 106.871 140.917 103.253C140.039 99.6344 141.238 96.2711 143.596 95.7393C145.953 95.2074 148.599 97.7084 149.462 101.33Z" fill="#F09959"/>
<path d="M146.888 106.081C146.888 106.365 146.8 106.643 146.636 106.879C146.472 107.116 146.238 107.3 145.965 107.409C145.692 107.517 145.391 107.546 145.101 107.49C144.812 107.435 144.545 107.298 144.336 107.097C144.127 106.896 143.985 106.64 143.927 106.361C143.869 106.082 143.899 105.793 144.012 105.531C144.125 105.268 144.317 105.044 144.563 104.886C144.808 104.728 145.097 104.643 145.393 104.643C145.789 104.643 146.17 104.795 146.45 105.064C146.73 105.334 146.888 105.699 146.888 106.081Z" fill="#F5CE5C"/>
<path d="M438.405 259H60.405C59.5055 258.972 58.6528 258.608 58.027 257.986C57.4012 257.364 57.0513 256.533 57.0513 255.667C57.0513 254.802 57.4012 253.97 58.027 253.348C58.6528 252.726 59.5055 252.363 60.405 252.334H438.405C439.305 252.363 440.158 252.726 440.783 253.348C441.409 253.97 441.759 254.802 441.759 255.667C441.759 256.533 441.409 257.364 440.783 257.986C440.158 258.608 439.305 258.972 438.405 259Z" fill="#2E5B9A"/>
<path d="M150.007 251.695C150.007 251.695 135.756 251.867 135.577 253.082C135.397 254.296 136.119 254.818 141.182 255.684C146.245 256.549 203.051 256.898 203.582 256.553C204.113 256.208 220.718 252.388 220.718 252.388L180.849 251.695H150.007Z" fill="#DBE5EB"/>
<path d="M157.765 242.575C157.765 242.575 167.98 238.263 170.97 240.178C173.959 242.093 182.598 250.879 182.598 250.879L157.765 242.575Z" fill="#F09959"/>
<path d="M182.034 251.663C181.839 251.896 181.552 251.993 181.387 251.878L160.369 236.83C159.248 236.017 158.699 234.778 159.248 234.124C159.798 233.47 161.169 233.703 162.237 234.587L182.116 251.009C182.265 251.134 182.228 251.429 182.034 251.663Z" fill="#2E5B9A"/>
<path d="M126.871 240.75C126.871 240.75 143.813 247.218 145.808 247.218C147.803 247.218 158.927 240.031 162.667 240.987C166.407 241.943 184.675 250.811 184.175 251.53C183.674 252.248 178.447 253.926 162.996 253.445C147.545 252.963 122.387 250.811 122.387 250.811L126.871 240.75Z" fill="#F09959"/>
<path d="M269.831 238.561H338.886C339.499 238.561 340.105 238.677 340.671 238.903C341.237 239.128 341.751 239.458 342.184 239.875C342.617 240.291 342.96 240.786 343.195 241.33C343.429 241.874 343.55 242.457 343.55 243.046V248.13C343.548 249.318 343.055 250.457 342.181 251.297C341.307 252.136 340.122 252.607 338.886 252.607H269.831C269.336 252.607 268.86 252.418 268.51 252.081C268.16 251.744 267.963 251.287 267.963 250.811V240.351C267.965 239.876 268.163 239.42 268.513 239.085C268.863 238.75 269.337 238.561 269.831 238.561Z" fill="#F37168"/>
<path d="M333.543 240.94H267.982C267.497 241.696 267.238 242.567 267.234 243.455V247.767C267.238 248.656 267.497 249.526 267.982 250.283H333.543C334.103 250.282 334.658 250.175 335.175 249.967C335.692 249.76 336.161 249.456 336.556 249.073C336.95 248.69 337.261 248.236 337.472 247.737C337.683 247.238 337.789 246.703 337.784 246.165V245.011C337.781 243.931 337.333 242.896 336.538 242.133C335.743 241.37 334.666 240.941 333.543 240.94Z" fill="#F2E5DE"/>
<path d="M284.06 230.063H336.574C337.408 230.063 338.208 230.382 338.798 230.949C339.388 231.517 339.72 232.286 339.72 233.089V235.536C339.72 236.338 339.388 237.108 338.798 237.675C338.208 238.243 337.408 238.561 336.574 238.561H284.06C283.727 238.561 283.408 238.434 283.172 238.208C282.937 237.981 282.805 237.674 282.805 237.354V231.271C282.805 230.95 282.937 230.643 283.172 230.417C283.408 230.19 283.727 230.063 284.06 230.063Z" fill="#7BCEE8"/>
<path d="M332.179 231.5H282.812C282.462 231.934 282.269 232.465 282.263 233.013V235.611C282.269 236.16 282.462 236.691 282.812 237.124H332.179C333.932 237.124 335.367 236.017 335.367 234.663V233.962C335.374 232.611 333.939 231.5 332.179 231.5Z" fill="#F2E5DE"/>
<path d="M345.556 58.2111H289.549C287.763 58.2111 286.833 56.8061 287.483 55.0886L295.954 32.6988C296.6 30.9812 298.595 29.5763 300.381 29.5763H356.389C358.171 29.5763 359.101 30.9812 358.451 32.6988L349.984 55.0742C349.334 56.7954 347.339 58.2111 345.556 58.2111Z" fill="#9EC8FF"/>
<path d="M343.654 55.8609H293.211C291.664 55.8609 290.86 54.6428 291.425 53.1552L298.434 34.6246C298.999 33.137 300.725 31.9225 302.272 31.9225H352.73C354.277 31.9225 355.08 33.137 354.52 34.6246L347.499 53.1552C346.927 54.6428 345.201 55.8609 343.654 55.8609Z" fill="white"/>
<path d="M311.774 56.8995C307.129 68.6963 299.981 72.3506 299.981 72.3506C299.981 72.3506 305.067 65.5881 304.331 62.2895C304.114 61.3258 303.695 60.4147 303.1 59.6116C302.505 58.8085 301.747 58.1303 300.871 57.6182L311.774 56.8995Z" fill="#9EC8FF"/>
<path d="M347.709 38.5126H315.201C315.084 38.5189 314.968 38.4952 314.864 38.444C314.76 38.3927 314.672 38.3157 314.609 38.2209C314.546 38.1261 314.511 38.017 314.506 37.9046C314.502 37.7923 314.529 37.6809 314.584 37.5819L314.603 37.5388C314.709 37.2789 314.89 37.0533 315.124 36.888C315.358 36.7227 315.636 36.6244 315.926 36.6045H348.434C348.551 36.5978 348.668 36.6213 348.772 36.6728C348.877 36.7242 348.965 36.8016 349.028 36.8969C349.091 36.9923 349.126 37.1021 349.13 37.215C349.134 37.3278 349.106 37.4396 349.05 37.5388V37.5819C348.941 37.8432 348.757 38.0694 348.52 38.2341C348.282 38.3989 348.001 38.4954 347.709 38.5126Z" fill="#9EC8FF"/>
<path d="M346.199 42.5014H313.691C313.574 42.5077 313.458 42.4841 313.354 42.4328C313.25 42.3815 313.162 42.3046 313.099 42.2098C313.036 42.115 313.001 42.0058 312.997 41.8935C312.992 41.7811 313.019 41.6697 313.074 41.5707V41.5276C313.181 41.2678 313.361 41.0421 313.596 40.8768C313.83 40.7115 314.107 40.6132 314.397 40.5934H346.905C347.022 40.5866 347.139 40.6102 347.244 40.6616C347.348 40.713 347.437 40.7904 347.5 40.8858C347.563 40.9811 347.598 41.0909 347.602 41.2038C347.606 41.3167 347.578 41.4285 347.522 41.5276L347.503 41.5707C347.399 41.828 347.221 42.0518 346.99 42.2164C346.759 42.381 346.485 42.4798 346.199 42.5014Z" fill="#9EC8FF"/>
<path d="M344.51 47.0143H312.002C311.885 47.0205 311.768 46.9967 311.663 46.9453C311.559 46.8938 311.471 46.8166 311.408 46.7215C311.345 46.6264 311.309 46.5169 311.304 46.4042C311.3 46.2915 311.326 46.1796 311.381 46.08L311.4 46.0369C311.507 45.7775 311.688 45.5524 311.922 45.3877C312.156 45.223 312.434 45.1254 312.723 45.1063H345.231C345.348 45.0987 345.465 45.1216 345.57 45.1726C345.674 45.2235 345.763 45.3006 345.826 45.3958C345.889 45.491 345.924 45.6008 345.928 45.7136C345.932 45.8264 345.904 45.938 345.847 46.0369V46.08C345.74 46.342 345.557 46.569 345.32 46.7345C345.083 46.9 344.802 46.997 344.51 47.0143Z" fill="#9EC8FF"/>
<path d="M310.134 41.7216C308.848 45.1244 305.463 47.8805 302.575 47.8805C299.686 47.8805 298.386 45.1244 299.675 41.7216C300.964 38.3188 304.335 35.5735 307.223 35.5735C310.111 35.5735 311.412 38.3223 310.134 41.7216Z" fill="#9EC8FF"/>
<path d="M313.721 116.397H310.944C310.358 116.397 310.055 115.937 310.272 115.377L311.101 113.178C311.218 112.893 311.416 112.646 311.673 112.466C311.929 112.285 312.234 112.178 312.551 112.157H315.324C315.91 112.157 316.213 112.613 316 113.178L315.167 115.377C315.05 115.661 314.853 115.907 314.597 116.088C314.341 116.268 314.037 116.376 313.721 116.397Z" fill="#9EC8FF"/>
<path d="M322.625 116.397H319.848C319.262 116.397 318.959 115.937 319.172 115.377L320.005 113.178C320.121 112.893 320.318 112.646 320.574 112.465C320.83 112.285 321.135 112.178 321.451 112.157H324.228C324.814 112.157 325.117 112.613 324.904 113.178L324.071 115.377C323.954 115.66 323.757 115.907 323.501 116.087C323.245 116.268 322.941 116.375 322.625 116.397Z" fill="#9EC8FF"/>
<path d="M331.533 116.397H328.757C328.17 116.397 327.867 115.937 328.08 115.377L328.914 113.178C329.03 112.893 329.228 112.646 329.485 112.466C329.742 112.285 330.046 112.178 330.363 112.157H333.136C333.723 112.157 334.025 112.613 333.812 113.178L332.979 115.377C332.863 115.661 332.665 115.907 332.409 116.088C332.153 116.268 331.85 116.376 331.533 116.397Z" fill="#9EC8FF"/>
<path d="M278.433 99.4836H222.426C220.639 99.4836 219.709 98.0787 220.359 96.3611L228.83 73.9857C229.48 72.2681 231.472 70.8632 233.258 70.8632H289.265C291.051 70.8632 291.981 72.2681 291.331 73.9857L282.857 96.3611C282.21 98.0966 280.219 99.4836 278.433 99.4836Z" fill="#9EC8FF"/>
<path d="M276.535 97.1408H226.091C224.545 97.1408 223.737 95.9262 224.302 94.4386L231.315 75.9081C231.876 74.4205 233.602 73.2059 235.149 73.2059H285.592C287.139 73.2059 287.946 74.4205 287.382 75.9081L280.369 94.4386C279.808 95.9406 278.082 97.1408 276.535 97.1408Z" fill="white"/>
<path d="M225.262 98.1826C220.98 109.979 225.374 113.634 225.374 113.634C225.374 113.634 225.407 106.868 228.64 103.573C230.62 101.575 233.002 99.9856 235.642 98.9013L225.262 98.1826Z" fill="#9EC8FF"/>
<path d="M262.844 81.3591H235.403C235.294 81.3651 235.186 81.3427 235.089 81.2944C234.992 81.2461 234.911 81.1736 234.854 81.0846C234.796 80.9955 234.765 80.8933 234.763 80.7885C234.761 80.6838 234.788 80.5805 234.842 80.4895L234.913 80.299C235.011 80.0599 235.178 79.8524 235.393 79.7004C235.609 79.5485 235.865 79.4583 236.131 79.4402H263.569C263.677 79.4341 263.784 79.4557 263.88 79.503C263.976 79.5502 264.058 79.6213 264.116 79.7089C264.173 79.7965 264.206 79.8974 264.21 80.0012C264.213 80.105 264.188 80.2078 264.137 80.299L264.062 80.4895C263.965 80.7304 263.799 80.9399 263.584 81.0938C263.368 81.2477 263.112 81.3397 262.844 81.3591Z" fill="#9EC8FF"/>
<path d="M261.334 85.3477H233.908C233.8 85.3538 233.693 85.3322 233.596 85.2849C233.5 85.2377 233.419 85.1666 233.361 85.079C233.303 84.9914 233.271 84.8904 233.267 84.7867C233.263 84.6829 233.288 84.5801 233.34 84.4889L233.411 84.2984C233.51 84.0598 233.676 83.8527 233.892 83.7009C234.107 83.549 234.363 83.4585 234.629 83.4396H262.063C262.17 83.4335 262.278 83.4551 262.374 83.5024C262.47 83.5496 262.552 83.6207 262.609 83.7083C262.667 83.7959 262.7 83.8968 262.704 84.0006C262.707 84.1043 262.682 84.2072 262.631 84.2984L262.56 84.4889C262.461 84.7288 262.293 84.9368 262.076 85.0888C261.859 85.2408 261.602 85.3305 261.334 85.3477Z" fill="#9EC8FF"/>
<path d="M259.627 89.857H232.193C232.085 89.8632 231.978 89.8415 231.882 89.7943C231.785 89.747 231.704 89.6759 231.646 89.5883C231.588 89.5007 231.556 89.3998 231.552 89.2961C231.548 89.1923 231.574 89.0895 231.625 88.9982L231.696 88.8078C231.795 88.5692 231.962 88.3621 232.177 88.2102C232.392 88.0584 232.648 87.9678 232.914 87.949H260.352C260.459 87.944 260.566 87.9664 260.661 88.0139C260.757 88.0615 260.837 88.1325 260.895 88.2197C260.953 88.3069 260.985 88.4073 260.99 88.5106C260.994 88.6139 260.97 88.7164 260.92 88.8078L260.845 88.9982C260.747 89.2376 260.581 89.4453 260.365 89.5974C260.15 89.7494 259.894 89.8394 259.627 89.857Z" fill="#9EC8FF"/>
<path d="M329.448 124.809H275.384C274.416 124.809 273.911 124.424 274.263 123.95L274.405 123.76C274.756 123.289 275.836 122.901 276.804 122.901H330.871C331.839 122.901 332.344 123.289 331.992 123.76L331.85 123.95C331.495 124.424 330.416 124.809 329.448 124.809Z" fill="#9EC8FF"/>
<path d="M326.473 131.399H272.417C271.449 131.399 270.948 131.015 271.296 130.544L271.438 130.35C271.789 129.879 272.869 129.495 273.837 129.495H327.897C328.865 129.495 329.369 129.879 329.018 130.35L328.876 130.544C328.521 131.015 327.441 131.399 326.473 131.399Z" fill="#9EC8FF"/>
<path d="M272.394 91.4166H268.407C266.621 91.4166 265.691 90.0152 266.341 88.2976L269.297 80.4894C269.947 78.7719 271.939 77.3669 273.725 77.3669H277.693C279.479 77.3669 280.409 78.7719 279.759 80.4894L276.803 88.2976C276.153 90.0152 274.162 91.4166 272.394 91.4166Z" fill="#9EC8FF"/>
<path d="M410.815 242.27C418.019 204.256 416.442 190.659 397.147 159.624C377.851 128.589 376.009 70.8702 368.749 87.791C361.489 104.712 362.445 147.263 385.238 167.903C408.031 188.543 411.103 197.781 412.455 206.182C413.808 214.583 409.201 240.401 409.201 240.401L410.815 242.27Z" fill="#9CD499"/>
<path d="M414.424 217.774C414.424 217.627 414.447 217.483 414.454 217.336C414.032 214.221 411.742 198.18 408.573 191.852C405.057 184.828 389.636 172.596 385.306 157.246C380.975 141.895 374.096 129.998 369.612 120.299C363.671 107.497 366.918 90.4753 371.832 84.9452C371.717 84.8736 371.59 84.8202 371.458 84.7871L369.825 85.7357C369.379 86.3856 369.003 87.0779 368.704 87.8019C361.463 104.737 362.445 147.263 385.238 167.903C408.031 188.543 411.103 197.781 412.455 206.182C412.829 208.45 412.75 211.982 412.455 215.935L414.424 217.774Z" fill="#77DC52"/>
<path d="M400.965 235.564C406.327 190.893 404.541 175.431 394.18 139.692C383.818 103.953 451.349 22.5189 449.204 36.6046C447.059 50.6903 439.915 85.7427 421.333 107.752C402.751 129.76 401.324 147.612 404.892 166.509C408.461 185.406 404.178 229.391 404.178 229.391L402.034 237.296L400.965 235.564Z" fill="#9CD499"/>
<path d="M403.435 217.002C403.376 216.999 403.319 216.986 403.265 216.962C403.212 216.938 403.164 216.905 403.124 216.863C403.084 216.821 403.053 216.772 403.032 216.719C403.012 216.666 403.003 216.609 403.006 216.553C403.006 216.416 403.544 202.643 403.275 191.342C403.006 180.041 399.818 160.641 397.879 153.972C396.115 147.91 393.892 127.572 404.676 106.573C410.045 96.1094 414.331 89.4978 420.261 80.3421C426.124 71.2978 433.421 60.0365 445.001 40.2016C445.059 40.102 445.156 40.0288 445.271 39.9981C445.386 39.9675 445.508 39.9819 445.612 40.0381C445.715 40.0943 445.791 40.1878 445.823 40.298C445.855 40.4081 445.84 40.526 445.782 40.6256C434.198 60.4749 426.89 71.747 421.023 80.7985C415.105 89.9326 410.83 96.5298 405.479 106.954C394.823 127.712 397.005 147.766 398.753 153.742C400.708 160.44 403.914 179.941 404.183 191.313C404.452 202.686 403.917 216.441 403.914 216.578C403.912 216.636 403.899 216.694 403.874 216.747C403.849 216.8 403.813 216.848 403.768 216.887C403.723 216.927 403.671 216.957 403.614 216.977C403.557 216.997 403.496 217.005 403.435 217.002Z" fill="#77DC52"/>
<path d="M402.755 251.612C405.968 221.716 406.492 236.459 393.152 195.841C377.866 149.351 432.412 108.079 441.353 124.917C450.295 141.755 460.642 194.673 456.711 192.959C452.78 191.245 426.714 142.096 425.966 144.159C425.219 146.221 390.593 163.401 392.024 180.929C393.455 198.457 406.675 226.287 406.675 226.287L406.301 251.954L402.755 251.612Z" fill="#9CD499"/>
<path d="M406.327 251.605H406.283L402.71 251.246C402.652 251.24 402.594 251.224 402.542 251.196C402.49 251.169 402.445 251.132 402.408 251.088C402.369 251.044 402.341 250.994 402.323 250.94C402.306 250.885 402.3 250.828 402.307 250.772C402.681 247.318 403.021 244.411 403.297 242.072C404.792 229.381 404.792 229.381 400.682 218.507C398.832 213.595 396.299 206.865 392.711 195.956C390.032 187.843 389.326 179.246 390.649 170.828C391.893 163.09 394.593 155.635 398.615 148.827C405.689 136.667 416.823 126.225 426.979 122.236C434.038 119.455 439.415 120.361 441.728 124.719C445.52 131.866 450.056 146.502 453.856 163.864C456.05 173.886 459.274 191.339 457.443 193.182C457.328 193.303 457.174 193.385 457.005 193.415C456.837 193.445 456.663 193.421 456.509 193.347C454.365 192.409 447.265 180.361 437.453 163.44C432.543 154.96 427.473 146.193 426.105 144.698C425.556 145.287 424.162 146.211 421.277 148.09C411.562 154.425 391.385 167.601 392.45 180.893C393.859 198.141 406.929 225.827 407.064 226.107C407.09 226.165 407.104 226.227 407.105 226.291L406.731 251.181C406.73 251.241 406.716 251.3 406.691 251.354C406.665 251.409 406.628 251.457 406.582 251.497C406.51 251.557 406.422 251.595 406.327 251.605ZM403.245 250.445L405.887 250.7L406.234 226.377C405.412 224.62 392.966 197.868 391.587 180.961C390.466 167.167 410.957 153.8 420.807 147.378C423.146 145.851 425.354 144.41 425.559 144.012C425.589 143.916 425.647 143.83 425.727 143.766C425.807 143.702 425.904 143.663 426.008 143.652C426.875 143.577 428.586 146.29 438.267 163.009C445.214 175.007 454.708 191.396 456.849 192.524C457.014 192.266 457.499 190.857 456.554 183.602C455.87 178.356 454.615 171.453 453.023 164.166C449.231 146.811 444.717 132.208 440.947 125.097C438.869 121.187 433.907 120.425 427.334 123.02C409.526 130.055 382.249 161.202 393.582 195.712C397.162 206.603 399.691 213.319 401.541 218.227C405.711 229.291 405.711 229.291 404.19 242.184C403.921 244.537 403.6 247.193 403.245 250.452V250.445Z" fill="#77DC52"/>
<path d="M413.984 252.852H397.771C396.65 252.852 395.66 252.241 395.551 251.483L390.096 212.09C389.846 210.293 391.094 208.744 392.88 208.744H418.867C420.653 208.744 421.905 210.275 421.651 212.09L416.203 251.483C416.095 252.248 415.097 252.852 413.984 252.852Z" fill="#7BCEE8"/>
<path d="M412.063 251.494H409.739C408.618 251.494 407.691 250.861 407.71 250.074L408.528 216.046C408.544 215.23 408.886 214.451 409.483 213.871C410.08 213.291 410.886 212.954 411.734 212.931H415.258C415.663 212.933 416.063 213.018 416.43 213.182C416.798 213.345 417.125 213.582 417.389 213.878C417.653 214.173 417.849 214.519 417.962 214.893C418.075 215.267 418.103 215.66 418.045 216.046L414.282 250.092C414.196 250.861 413.199 251.494 412.063 251.494Z" fill="#A2DFF2"/>
<path d="M394.778 196.362L395.062 195.88C394.028 192.37 393.197 188.807 392.573 185.208C392.901 188.99 393.64 192.728 394.778 196.362Z" fill="#77DC52"/>
<path d="M394.778 167.569C393.752 170.069 393.058 172.684 392.711 175.352C397.498 160.242 424.151 146.606 425.885 144.299L426.191 143.72C416.196 141.029 400.185 154.557 394.778 167.569Z" fill="#77DC52"/>
<path d="M456.733 192.021C456.633 192.022 456.536 191.989 456.458 191.93C456.379 191.871 456.323 191.788 456.3 191.694L451.442 172.747C447.661 157.899 442.953 139.419 437.669 131.194C436.799 129.836 432.995 128.003 427.603 128.37C420.321 128.866 406.282 133.702 394.09 160.541C394.065 160.592 394.031 160.639 393.987 160.678C393.944 160.717 393.893 160.747 393.838 160.767C393.782 160.787 393.723 160.797 393.664 160.795C393.604 160.793 393.546 160.78 393.492 160.756C393.438 160.733 393.39 160.699 393.349 160.657C393.309 160.616 393.277 160.567 393.256 160.513C393.235 160.46 393.226 160.403 393.228 160.346C393.23 160.289 393.243 160.233 393.268 160.181C405.651 132.93 420.055 128.003 427.543 127.482C433.365 127.091 437.419 129.135 438.432 130.716C443.79 139.056 448.319 156.832 452.313 172.517L457.17 191.464C457.199 191.575 457.18 191.693 457.118 191.79C457.057 191.888 456.957 191.958 456.842 191.985C456.807 192.001 456.771 192.013 456.733 192.021Z" fill="#77DC52"/>
<path d="M442.531 167.303H442.478C442.363 167.286 442.26 167.225 442.19 167.135C442.12 167.046 442.09 166.933 442.105 166.822C442.105 166.667 443.936 151.094 439.68 134.716C439.651 134.605 439.668 134.487 439.729 134.389C439.79 134.29 439.889 134.219 440.005 134.191C440.12 134.163 440.243 134.18 440.345 134.239C440.447 134.297 440.521 134.393 440.55 134.504C444.847 151.033 443.013 166.768 442.994 166.922C442.981 167.03 442.926 167.13 442.84 167.2C442.754 167.271 442.644 167.308 442.531 167.303Z" fill="#77DC52"/>
<path d="M437.523 157.677H437.471C437.356 157.66 437.253 157.6 437.183 157.511C437.113 157.421 437.082 157.309 437.097 157.199C437.097 157.055 438.835 142.797 437.639 131.011C437.633 130.955 437.639 130.898 437.655 130.844C437.672 130.789 437.7 130.739 437.737 130.695C437.774 130.651 437.82 130.615 437.872 130.589C437.924 130.562 437.981 130.545 438.039 130.54C438.158 130.529 438.276 130.564 438.369 130.636C438.461 130.709 438.52 130.814 438.532 130.928C439.739 142.808 438.005 157.159 437.987 157.299C437.973 157.407 437.917 157.505 437.832 157.575C437.746 157.645 437.636 157.681 437.523 157.677Z" fill="#77DC52"/>
<path d="M420.478 81.1828C420.375 81.1835 420.276 81.1503 420.195 81.0889C420.115 81.0275 420.059 80.9416 420.037 80.8453C420.015 80.7491 420.028 80.6485 420.073 80.5601C420.119 80.4718 420.194 80.4012 420.287 80.3599C420.414 80.3024 433.234 74.2729 440.648 61.0317C440.674 60.9796 440.712 60.9333 440.757 60.8954C440.803 60.8576 440.856 60.829 440.914 60.8113C440.971 60.7937 441.032 60.7874 441.092 60.7928C441.152 60.7982 441.21 60.8152 441.263 60.8427C441.316 60.8703 441.363 60.9079 441.401 60.9532C441.438 60.9986 441.466 61.0508 441.482 61.1066C441.498 61.1625 441.502 61.221 441.495 61.2785C441.487 61.336 441.467 61.3914 441.436 61.4413C433.881 74.9377 420.803 81.0786 420.672 81.1397C420.612 81.1682 420.545 81.183 420.478 81.1828Z" fill="#77DC52"/>
<path d="M411.02 96.7923C410.911 96.79 410.806 96.7494 410.726 96.678C410.645 96.6066 410.595 96.5093 410.584 96.4046C410.573 96.2999 410.602 96.1949 410.666 96.1094C410.73 96.024 410.824 95.964 410.931 95.9407C411.035 95.9191 421.535 93.756 434.008 84.0577C434.053 84.0221 434.106 83.9955 434.163 83.9795C434.219 83.9634 434.279 83.9583 434.337 83.9643C434.396 83.9703 434.453 83.9873 434.505 84.0145C434.556 84.0416 434.602 84.0783 434.639 84.1224C434.676 84.1665 434.704 84.2172 434.72 84.2716C434.737 84.326 434.742 84.383 434.736 84.4394C434.73 84.4958 434.712 84.5505 434.684 84.6003C434.656 84.6501 434.618 84.694 434.572 84.7297C421.916 94.568 411.218 96.7635 411.11 96.7851C411.081 96.7909 411.051 96.7934 411.02 96.7923Z" fill="#77DC52"/>
<path d="M403.174 111.891C402.991 111.891 402.879 111.891 402.849 111.891C402.79 111.887 402.732 111.872 402.68 111.846C402.627 111.82 402.58 111.785 402.541 111.742C402.464 111.655 402.425 111.542 402.434 111.428C402.443 111.313 402.499 111.207 402.589 111.132C402.679 111.057 402.797 111.02 402.916 111.029C402.987 111.029 410.225 111.413 421.823 103.048C421.918 102.979 422.037 102.95 422.155 102.966C422.273 102.982 422.379 103.043 422.451 103.134C422.522 103.226 422.553 103.341 422.536 103.454C422.519 103.567 422.456 103.669 422.361 103.738C411.723 111.413 404.751 111.891 403.174 111.891Z" fill="#77DC52"/>
</g>
<defs>
<clipPath id="clip0">
<rect width="458" height="259" fill="white"/>
</clipPath>
</defs>
</svg>
