<svg width="548" height="365" viewBox="0 0 548 365" fill="none" xmlns="http://www.w3.org/2000/svg">
<path d="M500.771 363.583C500.771 363.583 512.184 240.203 395.258 240.203C268.938 240.203 342.674 168.254 259.168 147.459C185.465 129.105 138.385 208.572 169.058 258.504C191.137 294.444 101.016 314.363 111.792 364.325L500.771 363.583Z" fill="#F5F6FA"/>
<path d="M501.271 180.259C501.271 197.901 488.34 209.046 471.185 215.787C467.272 217.326 463.137 218.634 458.886 219.739C449.813 222.096 440.208 223.521 431.081 224.256C425.66 224.693 420.404 224.886 415.531 224.886C405.038 224.886 395.958 223.02 388.172 219.739C360.256 207.968 348.991 177.96 348.991 150.304C348.991 114.936 381.355 104.584 415.531 100.786C484.713 93.0985 501.271 144.891 501.271 180.259Z" fill="#F5F6FA"/>
<path d="M298.119 125.884C294.62 125.691 290.94 125.23 287.082 124.482C277.517 122.63 268.27 122.096 259.543 122.109C223.488 122.16 196.251 131.513 191.699 95.6377C187.056 59.0456 231.78 14.5828 264.475 2.75487C302.875 -11.1363 337.064 30.208 345.132 66.2928C352.515 99.3171 335.844 128.001 298.119 125.884Z" fill="#F5F6FA"/>
<path d="M150.621 261.27C150.621 286.916 127.632 300.785 99.6032 303.808C99.4169 303.83 99.2283 303.85 99.0397 303.87C97.305 304.047 95.5525 304.183 93.7822 304.28H93.78C91.7236 304.39 89.6494 304.445 87.5597 304.445C87.4355 304.445 87.3135 304.445 87.1914 304.443C83.4601 304.429 79.8708 304.205 76.4257 303.788C36.4374 298.972 15.7622 268.391 15.7622 241.535C15.7622 212.29 54.5859 191.511 87.5597 198.538C119.986 205.448 150.621 232.025 150.621 261.27Z" fill="#F5F6FA"/>
<path d="M179.943 123.847C179.943 158.445 148.589 176.977 110.632 180.735C105.778 181.216 100.818 181.455 95.8002 181.455C94.8552 181.455 93.9191 181.444 92.9873 181.424C92.943 181.424 92.8986 181.422 92.8542 181.422C91.5321 181.391 90.2233 181.343 88.9299 181.273C83.5659 180.987 78.4371 180.366 73.5478 179.444C69.2774 178.639 65.189 177.607 61.2824 176.367C60.1755 176.015 59.0818 175.649 58.0037 175.262C19.7013 161.626 0 127.796 0 97.5152C0 58.4935 51.8011 30.7682 95.8002 40.1438C139.065 49.3636 179.943 84.8248 179.943 123.847Z" fill="#F5F6FA"/>
<path d="M277.143 185.267C276.551 184.207 269.76 173.002 251.55 181.357C251.55 181.357 260.883 177.988 264.363 181.056C264.363 181.056 255.949 179.325 251.847 183.291C247.745 187.258 249.205 197.154 250.6 199.95C251.994 202.749 259.294 210.362 262.782 209.574C264.101 209.276 265.415 208.523 266.535 207.699C266.362 209.385 266.273 211.196 266.302 213.15C266.579 231.236 281.196 241.727 286.443 237.133C289.806 234.184 294.251 240.184 294.251 240.184L316.493 191.137C316.493 191.137 288.164 169.731 277.143 185.267Z" fill="#2C3A64"/>
<path d="M329.204 287.154C324.541 290.354 318.695 292.993 311.357 294.668C283.847 300.959 273.305 277.952 269.348 262.159C273.099 260.034 276.628 259.567 278.667 259.325C280.655 259.093 282.747 258.939 284.477 258.853C287.567 256.513 292.17 246.931 293.186 232.054L294.482 232.397L316.162 238.269C316.162 238.269 315.168 245.09 314.682 251.535C314.305 256.579 314.245 261.4 315.212 262.579C316.903 262.941 317.919 263.178 317.919 263.178C317.919 263.178 317.919 263.187 317.93 263.2C318.221 263.672 324.51 273.906 329.204 287.154Z" fill="#FFB27D"/>
<path d="M316.193 238.2C316.193 238.2 315.197 245.014 314.713 251.466C302.43 250.247 296.731 238.677 294.513 232.328L316.193 238.2Z" fill="#ED985F"/>
<path d="M322.887 240.655C322.887 240.655 294.532 247.552 290.463 230.012C286.395 212.473 279.995 201.552 297.926 196.406C315.859 191.261 320.941 197.152 323.737 202.68C326.534 208.207 330.159 238.409 322.887 240.655Z" fill="#FFB27D"/>
<path d="M320.627 193.035C315.01 188.753 311.953 190.662 310.456 192.671C292.946 187.723 285.81 202.501 285.81 202.501C286.81 215.519 279.303 224.804 279.303 224.804C279.303 224.804 285.222 226.802 296.478 221.055C299.916 219.301 302.585 215.995 304.639 212.252C301.651 221.373 296.4 228.646 296.4 228.646C309.176 218.884 310.376 197.926 310.467 195.718C312.561 196.868 316.76 199.45 318.562 202.501C321.013 206.648 323.773 215.701 326.41 214.774C326.41 214.774 329.052 199.459 320.627 193.035Z" fill="#2C3A64"/>
<path d="M329.205 265.392C325.245 263.307 320.152 261.761 314.61 260.622C314.61 260.622 311.753 267.901 303.046 267.745C294.776 267.594 286.592 258.541 285.796 257.639C276.317 257.338 269.351 257.634 269.351 257.634C269.351 257.634 249.39 288.543 251.861 295.701C253.49 300.419 254.772 305.079 255.77 309.612C260.413 330.697 258.945 349.062 257.762 357.661C257.305 360.986 256.893 362.852 256.893 362.852L319.763 364.297C319.763 364.297 324.972 345.947 328.834 330.291C328.952 329.821 329.065 329.351 329.178 328.888C331.796 334.227 339.225 342.255 342.586 342.885C342.788 342.922 343.731 342.944 345.088 342.955C350.122 342.997 359.86 343.062 359.86 343.062C361.733 328.311 337.382 268.902 329.205 265.392Z" fill="#75A1DE"/>
<path d="M257.789 357.645C258.972 349.047 260.44 330.682 255.797 309.597C255.817 309.353 255.826 309.224 255.826 309.224C255.826 309.224 273.025 325.483 275.998 342.485C278.025 354.091 265.642 357.116 257.789 357.645Z" fill="#6791C9"/>
<path d="M306.346 342.486C305.991 341.364 300.283 335.608 297.193 334.901C294.103 334.197 283.898 336.519 283.898 336.519C277.567 335.685 263.128 333.444 246.217 328.584C243.238 327.728 240.183 326.792 237.08 325.765L262.837 302.786L285.62 257.624C285.62 257.624 266.3 256.116 261.411 259C243.815 269.377 211.218 329.942 211.837 342.486C211.837 342.486 220.094 342.936 235.176 343.125C246.763 343.274 262.385 343.265 281.383 342.784C281.383 342.784 283.47 342.771 285.664 342.486H306.346Z" fill="#FFB27D"/>
<path d="M262.837 302.786L240.119 326.037C242.357 326.876 244.693 328.072 246.217 328.584C246.217 328.584 244.141 337.426 235.176 343.125C220.094 342.936 211.837 342.486 211.837 342.486C211.218 329.942 243.815 269.377 261.411 259C266.3 256.116 285.62 257.624 285.62 257.624L262.837 302.786Z" fill="#75A1DE"/>
<path d="M359.771 343.079C358.413 343.068 342.699 342.939 342.497 342.901C339.136 342.271 331.706 334.243 329.089 328.905C328.976 329.368 329.923 323.851 330.801 321.615C332.7 316.792 335.231 312.7 335.231 312.7C344.262 311.354 359.795 334.593 359.771 343.079Z" fill="#6791C9"/>
<path d="M359.085 329.018C357.082 314.01 352.807 288.012 344.397 258.089L344.346 258.085C343.851 256.197 339.949 241.452 338.316 239.836C336.573 238.111 327.38 234.495 325.796 234.107C325.796 234.107 325.536 235.15 326.488 235.975C326.765 236.214 327.298 236.585 327.941 237.004L325.763 238.164C325.763 238.164 326.581 238.87 327.799 238.693C328.38 238.609 329.17 238.394 329.84 238.192C330.29 238.466 330.736 238.728 331.14 238.963C331.825 239.604 332.637 240.414 332.708 240.703C332.79 241.046 333.088 242.556 333.272 243.511C332.935 243.215 332.644 242.914 332.455 242.624C331.584 241.292 329.76 241.428 329.76 241.428C329.76 241.428 332.256 244.532 332.493 246.543C332.853 249.605 334.578 251.21 334.578 251.21H334.581C335.215 251.949 336.109 252.612 336.863 254.164C337.418 255.299 337.633 257.472 337.786 258.724H337.788C338.161 263.246 339.443 279.916 339.093 292.189C338.623 308.708 337.041 323.515 338.918 332.702C339.401 335.081 340.118 337.083 341.145 338.642C345.238 344.852 359.619 343.039 359.619 343.039C359.619 343.039 360.236 337.667 359.085 329.018Z" fill="#FFB27D"/>
<path d="M359.737 343.083C359.737 343.083 345.355 344.897 341.262 338.686C340.235 337.128 339.519 335.126 339.035 332.746C342.119 333.512 350.56 334.803 359.202 329.063C360.354 337.712 359.737 343.083 359.737 343.083Z" fill="#75A1DE"/>
<path d="M98.1092 99.0509C96.0235 98.8516 94.0547 98.7284 92.1977 98.6696C90.5783 98.6185 89.1496 97.6017 88.5848 96.099C87.6489 93.6095 86.8359 90.3683 86.4308 86.4729L85.7029 86.6983L73.4385 90.4701C73.4385 90.4701 74.1421 94.3416 74.5468 98.0135C74.596 98.4639 74.6415 98.9155 74.6814 99.3594C74.7333 99.9371 74.3604 100.467 73.7983 100.631C67.919 102.351 65.4943 104.554 65.4943 104.554C65.4943 104.554 67.1421 125.739 75.14 149.966C75.9106 152.3 64.1577 166.271 64.1577 166.271C67.0205 175.345 106.052 162.375 106.052 162.375C106.052 162.375 103.384 154.347 106.867 134.735C110.928 111.862 98.1092 99.0509 98.1092 99.0509Z" fill="#FFB27D"/>
<path d="M98.2007 99.0608C98.2007 99.0608 110.487 100.541 117.448 135.171C117.448 135.171 119.34 145.211 115.557 146.402C111.773 147.593 92.1947 125.064 98.2007 99.0608Z" fill="#FFB27D"/>
<path d="M78.9469 78.6753C78.9469 78.6753 86.8334 81.4562 82.5109 90.1876C82.5109 90.1876 88.9573 90.0903 90.3151 88.0767C90.3151 88.0767 90.1794 88.8992 89.9493 89.3203C89.9493 89.3203 95.9955 87.7244 97.8944 85.1318C99.7933 82.5391 88.8557 52.7393 73.3018 61.1445C73.3018 61.1445 58.9073 64.3484 65.1935 80.0614C71.4794 95.7746 66.1673 97.3817 66.1673 97.3817C66.1673 97.3817 67.8675 97.6554 68.5807 97.4396C68.5807 97.4396 69.5015 96.7308 69.5312 96.0986C69.5312 96.0986 69.6022 97.0566 69.4228 97.4225C69.4228 97.4225 75.3227 96.2257 77.5245 93.2181C79.726 90.2106 80.7906 81.7517 78.9469 78.6753Z" fill="#233862"/>
<path d="M73.5591 90.4623C73.5591 90.4623 74.4172 95.8833 74.82 99.5572C81.2389 94.4404 82.029 89.8661 83.1706 86.1992L73.5591 90.4623Z" fill="#ED985F"/>
<path d="M83.0244 86.557C83.0244 86.557 86.0811 80.4274 86.4353 75.4234C86.6885 71.851 88.7901 56.9967 75.7929 60.2562C75.7929 60.2562 66.6976 63.0805 63.3532 65.8675C60.6934 68.084 57.0016 72.6533 62.8435 83.5085L64.456 87.2134L83.0244 86.557Z" fill="#233862"/>
<path d="M71.6457 95.8056C71.6457 95.8056 87.6758 91.2424 84.6507 81.4077C81.6253 71.573 81.6568 64.3605 71.2941 66.8582C60.9312 69.3557 60.1064 73.7046 60.3094 77.2303C60.5124 80.756 67.398 96.739 71.6457 95.8056Z" fill="#FFB27D"/>
<path d="M65.1398 69.4178C65.1398 69.4178 62.6739 72.9793 62.6519 75.7233C62.6297 78.4673 63.8638 83.7291 62.2919 84.013C62.2919 84.013 56.5804 77.1681 58.9084 71.6152C61.3768 65.7268 65.1398 69.4178 65.1398 69.4178Z" fill="#233862"/>
<path d="M111.963 134.786C111.963 134.786 112.007 122.158 109.647 120.643C107.288 119.129 106.519 135.098 111.963 134.786Z" fill="#F8A871"/>
<path d="M71.5528 101.378C71.5528 101.378 81.9685 115.718 91.5128 114.952C91.5128 114.952 95.2235 104.439 91.9536 98.6505C91.9536 98.6505 94.3974 98.7293 95.2379 98.7822C95.9478 98.8268 98.1464 99.0503 98.1464 99.0503L107.192 114.36C109.292 117.915 110.135 122.061 109.587 126.142L106.09 152.177C106.09 152.177 96.6317 158.304 75.1772 149.965L69.1353 129.374L71.5528 101.378Z" fill="#2B478B"/>
<path d="M107.299 119.057C107.306 119.088 107.266 119.226 107.186 119.459C107.168 119.514 107.146 119.573 107.124 119.637C107.077 119.766 107.022 119.916 106.957 120.082C106.953 120.1 106.944 120.12 106.937 120.137C105.07 124.991 96.2981 144.706 87.4624 150.108C87.0187 150.499 86.5218 150.835 85.9738 151.076C85.9117 151.103 85.8496 151.127 85.7897 151.151C85.7232 151.177 85.6544 151.204 85.5878 151.226C85.559 151.239 85.5302 151.248 85.5013 151.256C85.0576 151.399 84.5829 151.478 84.0749 151.478C83.9551 151.478 83.8309 151.474 83.7067 151.465C79.1279 151.127 59.5531 123.077 59.1848 114.548C58.9475 109.104 65.7068 104.534 65.7068 104.534C72.6015 108.121 79.281 119.393 83.9684 129.135C84.9379 131.151 85.8208 133.104 86.6016 134.909C95.5128 126.536 102.607 116.704 102.607 116.704L107.299 119.057Z" fill="#FFB27D"/>
<path d="M107.167 165.182C106.646 163.41 106.3 162.401 106.3 162.401C106.3 162.401 79.7351 163.797 73.0445 155.029C73.0445 155.027 73.0423 155.025 73.0401 155.022C73.0401 155.022 73.0379 155.025 73.0357 155.027C72.9558 155.099 71.7734 156.203 70.0409 158.085L70.0253 158.102C67.858 160.456 64.8388 164.014 62.0303 168.292C60.6084 170.455 59.2441 172.801 58.0728 175.269C59.1509 175.655 60.2445 176.022 61.3515 176.373C65.2581 177.613 69.3465 178.645 73.6169 179.451C78.5062 180.373 83.635 180.994 88.999 181.279C90.2924 181.349 94.9243 181.461 95.8693 181.461C100.887 181.461 105.848 181.222 110.701 180.741C109.617 174.046 108.106 168.376 107.167 165.182Z" fill="#75A1DE"/>
<path d="M86.5108 134.909C82.1153 140.972 73.8428 129.197 73.5591 128.76L75.6872 126.973C75.6872 126.973 80.4489 127.558 83.8771 129.135C84.847 131.152 85.7293 133.104 86.5108 134.909Z" fill="#ED985F"/>
<path d="M67.7515 90.8782C67.7515 90.8782 69.4796 89.2397 73.3069 88.9359C73.3069 88.9359 73.2506 90.5544 71.0854 91.3311C68.9376 92.1014 67.7515 90.8782 67.7515 90.8782Z" fill="#FFE8DC"/>
<path d="M73.1866 61.4451L64.1567 69.6391C64.1567 69.6391 70.9984 80.7766 80.6494 82.0876C80.6494 82.0876 75.6896 79.8426 71.5113 75.9716C74.1194 77.7616 77.0082 79.1331 79.643 79.0159C81.7994 79.1195 84.9766 87.7047 78.9619 89.8617C78.9619 89.8617 86.9702 90.6969 89.7962 87.7506C89.7962 87.7506 89.6627 88.574 89.4322 88.995C89.4322 88.995 95.4783 87.398 97.3761 84.8048C99.2746 82.2141 88.7389 53.0402 73.1866 61.4451Z" fill="#233862"/>
<path d="M71.7466 101.387C71.7466 101.387 60.8813 105.069 58.4952 109.6C56.1091 114.131 60.2034 125.809 65.121 131.68C65.121 131.68 77.3045 131.552 83.0222 122.788C83.0222 122.788 73.9708 103.341 71.7466 101.387Z" fill="#2B478B"/>
<path d="M98.1709 99.0608C98.1709 99.0608 105.449 99.5198 110.187 109.73C110.187 109.73 110.454 116.792 104.865 116.962C99.2759 117.133 98.1709 99.0608 98.1709 99.0608Z" fill="#2B478B"/>
<path d="M108.728 131.868C103.637 130.479 98.8179 129.109 94.4741 127.837C82.1156 124.22 73.6084 121.425 73.6084 121.425L73.5813 121.46L73.6077 121.426C73.6077 121.426 70.6109 118.613 70.4323 117.273C70.2713 116.063 67.1114 115.434 64.9769 114.804C64.6881 114.719 64.4317 115.011 64.5596 115.281C64.7979 115.784 65.6562 116.595 66.5156 116.876C68.0265 117.369 64.9893 118.343 62.6197 117.061C61.1538 116.268 58.6016 113.623 57.8063 114.598C57.011 115.572 57.917 120.63 59.9423 122.767C61.2902 124.19 67.9866 124.214 70.4323 125.576H70.4328C89.9238 134.51 104.029 150.639 115.634 146.423C115.634 146.423 118.167 134.441 108.728 131.868Z" fill="#FFB27D"/>
<path d="M94.5312 127.776L90.1537 131.796C90.1537 131.796 73.0128 123.084 73.5725 121.483C73.588 121.438 73.6189 121.399 73.6654 121.363C73.6654 121.363 82.1727 124.159 94.5312 127.776Z" fill="#F8A871"/>
<path d="M102.596 116.668C102.596 116.668 104.043 112.841 103.61 111.559C103.193 110.323 106.278 108.563 107.886 107.067C107.963 106.996 108.089 107.045 108.096 107.148C108.124 107.552 108.06 108.388 107.238 109.181C106.098 110.28 107.656 110.52 108.701 109.231C109.747 107.941 107.555 105.304 108.701 105.835C109.848 106.366 113.485 109.411 113.1 111.323C112.715 113.235 108.883 116.737 107.288 119.022L102.596 116.668Z" fill="#FFB27D"/>
<path d="M69.9644 158.097C69.9644 158.097 82.9968 170.582 107.106 165.177L105.828 160.555C105.828 160.555 85.1069 166.171 73.8536 153.654L69.9644 158.097Z" fill="#6791C9"/>
<path d="M113.968 82.5984C113.968 82.5984 119.932 77.8752 123.347 81.8926C126.761 85.9103 111.646 91.5761 111.646 91.5761C111.646 91.5761 105.006 79.562 108.682 78.5366C112.358 77.5115 113.968 82.5984 113.968 82.5984Z" fill="#75A1DE"/>
<path d="M49.9667 55.5239C49.9667 55.5239 50.7582 51.1482 53.8411 51.6182C56.9242 52.088 52.452 60.3867 52.452 60.3867C52.452 60.3867 44.8128 57.6137 46.0384 55.7515C47.2641 53.8896 49.9667 55.5239 49.9667 55.5239Z" fill="#75A1DE"/>
<path d="M51.034 95.0168C51.034 95.0168 49.9274 90.1002 53.3577 89.2571C56.7882 88.4139 55.7813 99.0244 55.7813 99.0244C55.7813 99.0244 46.5702 99.4318 47.0283 96.955C47.4863 94.4781 51.034 95.0168 51.034 95.0168Z" fill="#75A1DE"/>
<path d="M107.305 119.037C107.312 119.068 107.272 119.206 107.192 119.439C107.174 119.494 107.152 119.553 107.13 119.617C107.083 119.746 107.028 119.895 106.964 120.062C106.959 120.08 106.95 120.1 106.944 120.117C104.978 125.271 95.3017 147.149 85.9801 151.056C85.918 151.083 85.8559 151.107 85.796 151.131C85.7294 151.157 85.6606 151.184 85.5941 151.205C85.5652 151.219 85.5364 151.227 85.5076 151.236C85.0639 151.379 84.5892 151.458 84.0812 151.458C80.7403 148.688 107.305 119.037 107.305 119.037Z" fill="#ED985F"/>
<path d="M96.6095 299.919C95.314 297.61 94.4178 295.602 94.6928 294.313C94.6928 294.313 94.6928 294.311 94.6951 294.306C94.7372 294.104 94.7927 293.714 94.8614 293.178C95.121 291.189 95.5824 287.229 96.3522 283.743C96.452 283.28 96.5607 282.825 96.6738 282.386V282.384C96.7448 282.101 96.8203 281.827 96.8979 281.557C97.1042 280.837 97.2307 280.134 97.2839 279.447C97.6588 274.927 95.0212 271.145 92.3414 268.961C91.9887 268.671 91.6337 268.41 91.2854 268.179C90.2672 267.505 89.3022 267.084 88.5591 266.967C87.8625 266.364 86.9374 263.936 86.1854 261.659C85.9015 260.801 85.6441 259.967 85.4312 259.258C85.4245 259.234 85.4179 259.212 85.4112 259.19C85.176 258.404 85.0008 257.78 84.9143 257.471V257.469C84.8766 257.333 84.8566 257.258 84.8566 257.258L84.6592 257.381L83.845 257.89C83.845 257.892 83.8428 257.892 83.8428 257.892L81.8418 259.146L78.7383 261.091C78.7383 261.097 78.7406 261.106 78.7428 261.113C78.8293 261.416 78.8981 261.743 78.958 262.081C78.9868 262.259 79.0134 262.441 79.0356 262.625C79.1044 263.157 79.1465 263.708 79.1687 264.254V264.261C79.1864 264.667 79.1931 265.071 79.1931 265.459C79.1909 266.32 78.4677 267.007 77.5981 266.965C77.5803 266.965 77.5604 266.963 77.5426 266.963H77.5404C75.8101 266.886 73.8912 266.864 72.8929 266.965C71.0073 267.156 68.9686 267.439 66.7081 267.639C66.6771 267.641 66.6615 267.643 66.6615 267.643C64.1149 267.867 61.2844 267.984 58.0702 267.74L58.4802 248.919C58.4802 248.919 60.4384 247.011 60.5546 245.988C60.6706 244.963 60.7443 240.586 59.9159 240.136C59.5459 239.936 59.4523 243.29 59.1757 243.468C58.3373 244.006 55.1034 244.282 55.4195 247.582C54.3072 251.421 48.8911 270.578 51.1534 271.795C51.1551 271.795 51.1569 271.797 51.1587 271.797C51.1611 271.799 51.1631 271.799 51.1662 271.801C51.1662 271.801 51.1685 271.801 51.1685 271.803C51.7985 272.242 52.4662 272.649 53.1672 273.026C53.3158 273.105 53.4645 273.184 53.6175 273.261C53.7041 273.307 53.7906 273.351 53.8793 273.393C54.13 273.52 54.3873 273.641 54.6446 273.757C54.7888 273.825 54.933 273.889 55.0817 273.953C55.2835 274.043 55.4876 274.128 55.6939 274.212C55.8226 274.264 55.9513 274.317 56.0799 274.367C56.3772 274.486 56.6767 274.598 56.9806 274.705C57.0649 274.738 57.1492 274.769 57.2357 274.798C57.2645 274.811 57.2934 274.82 57.3244 274.831C57.422 274.866 57.5196 274.899 57.6195 274.932C57.6217 274.934 57.6239 274.934 57.6261 274.934C57.8014 274.993 57.9766 275.05 58.1519 275.107C58.3271 275.164 58.5046 275.219 58.6799 275.274C59.0326 275.384 59.3875 275.487 59.7447 275.586C59.8778 275.625 60.0109 275.66 60.144 275.695C60.215 275.715 60.2904 275.735 60.3636 275.755C60.5344 275.801 60.7052 275.845 60.876 275.886C61.262 275.983 61.6503 276.075 62.0385 276.163C62.1716 276.194 62.3047 276.222 62.4355 276.251C62.4533 276.255 62.4688 276.26 62.4866 276.262C62.6574 276.299 62.8282 276.334 62.9968 276.369C63.1787 276.407 63.3584 276.444 63.5403 276.479C63.9684 276.565 64.3966 276.644 64.8225 276.716C65.1952 276.78 65.5657 276.841 65.9317 276.898C66.158 276.934 66.3842 276.969 66.6061 276.999C66.8124 277.03 67.0187 277.059 67.2228 277.085C67.4202 277.114 67.6154 277.138 67.8084 277.162C68.0946 277.199 68.3786 277.232 68.6603 277.265H68.6625C68.7867 277.28 68.9087 277.296 69.0308 277.307C69.1949 277.326 69.3569 277.344 69.5166 277.359C69.6253 277.37 69.734 277.381 69.8427 277.392C69.7517 277.629 69.6719 277.867 69.6053 278.106C69.5388 278.336 69.4811 278.569 69.4367 278.802C69.4345 278.806 69.4345 278.81 69.4345 278.815C69.3147 279.438 69.2792 280.062 69.3458 280.679C69.9714 286.423 74.5922 293.779 75.9853 298.594C76.1628 299.202 76.287 299.77 76.3447 300.288C76.4556 301.274 76.4579 302.527 76.3891 303.886C79.8342 304.303 83.4235 304.527 87.1548 304.54C87.2768 304.543 87.3988 304.543 87.5231 304.543C89.6128 304.543 91.687 304.488 93.7434 304.378H93.7456C95.5159 304.281 97.2684 304.145 99.0031 303.967C98.169 302.573 97.3283 301.201 96.6095 299.919Z" fill="#FFB27D"/>
<path d="M81.7563 252.207C81.7563 252.207 86.5383 253.893 83.9175 259.188C83.9175 259.188 87.826 259.129 88.6493 257.908C88.6493 257.908 88.567 258.406 88.4274 258.661C88.4274 258.661 92.0933 257.693 93.2446 256.121C94.3959 254.549 87.7643 236.481 78.3336 241.578C78.3336 241.578 69.6061 243.521 73.4175 253.048C77.2289 262.575 74.008 263.55 74.008 263.55C74.008 263.55 75.0387 263.714 75.4713 263.585C75.4713 263.585 76.0296 263.155 76.0476 262.77C76.0476 262.77 76.0906 263.352 75.9817 263.574C75.9817 263.574 79.559 262.847 80.8941 261.025C82.2289 259.201 82.8744 254.073 81.7563 252.207Z" fill="#233862"/>
<path d="M78.5366 259.383C78.5366 259.383 79.057 262.67 79.3013 264.898C83.8008 263.473 84.2187 259.454 84.9109 257.23L78.5366 259.383Z" fill="#ED985F"/>
<path d="M84.0879 257.038C84.0879 257.038 85.9413 253.321 86.1561 250.288C86.3093 248.121 87.5838 239.116 79.7035 241.092C79.7035 241.092 74.1889 242.804 72.161 244.495C70.5483 245.838 68.3099 248.608 71.8518 255.19L72.8297 257.435L84.0879 257.038Z" fill="#233862"/>
<path d="M77.4057 262.633C77.4057 262.633 87.125 259.865 85.2906 253.903C83.4565 247.941 83.4756 243.568 77.1923 245.08C70.9094 246.595 70.4092 249.234 70.532 251.37C70.6552 253.508 74.8301 263.199 77.4057 262.633Z" fill="#FFB27D"/>
<path d="M75.2454 245.669C75.2454 245.669 72.0328 248.833 72.0195 250.496C72.0062 252.158 72.7544 255.35 71.8012 255.521C71.8012 255.521 68.3383 251.372 69.7499 248.005C71.2466 244.436 75.2454 245.669 75.2454 245.669Z" fill="#233862"/>
<path d="M78.5134 241.578C78.5134 241.578 78.4202 241.598 78.2576 241.646C78.5564 242.302 73.2822 246.926 73.2822 246.926C73.2822 246.926 77.4301 253.678 83.2817 254.475C83.2817 254.475 80.2739 253.112 77.7403 250.763C79.322 251.849 81.0736 252.681 82.6717 252.611C83.979 252.675 85.9054 257.88 82.2586 259.188C82.2586 259.188 87.1142 259.693 88.8277 257.908C88.8277 257.908 88.7467 258.406 88.6069 258.661C88.6069 258.661 92.2728 257.693 93.4237 256.121C94.5746 254.549 87.943 236.481 78.5134 241.578Z" fill="#233862"/>
<path d="M72.3987 277.538C66.7676 277.161 58.9155 276.059 53.1619 272.959C52.019 272.261 51.2683 271.8 51.1614 271.737C51.1614 271.734 51.1592 271.734 51.1592 271.734C51.1614 271.732 51.1638 271.734 51.1683 271.737C51.2816 271.78 51.8788 272.011 52.8187 272.323C56.4853 273.537 65.3552 275.971 70.8998 273.227C74.8334 271.28 73.9625 274.369 72.3987 277.538Z" fill="#ED985F"/>
<path d="M99.1461 303.873C97.4113 304.05 95.6588 304.187 93.8885 304.283H93.8863C91.8299 304.393 89.7557 304.448 87.666 304.448C87.5418 304.448 87.4198 304.448 87.2978 304.446C85.9801 301.827 85.0328 299.377 84.4583 297.735C84.0124 296.466 83.7905 295.682 83.7905 295.682C87.0781 294.043 90.3502 293.25 93.4604 293.103C93.9795 293.079 94.4942 293.072 95.0044 293.083C94.9356 293.619 94.8801 294.01 94.838 294.212C94.8358 294.216 94.8358 294.218 94.8358 294.218C94.5607 295.507 95.4569 297.515 96.7525 299.825C97.4712 301.107 98.312 302.479 99.1461 303.873Z" fill="#ED985F"/>
<path d="M97.7266 274.206C95.0269 269.467 88.5739 266.94 88.5739 266.94C86.5602 273.289 77.9239 276.792 77.9239 276.792C75.45 272.828 77.5592 266.942 77.5608 266.938H77.5612C77.5612 266.938 74.2749 266.113 70.9471 266.822C67.6196 267.529 66.6763 267.616 66.6763 267.616C66.6763 267.616 66.1268 275.967 69.6682 278.107C69.5205 278.516 69.4023 278.913 69.3279 279.293C68.39 284.061 74.0391 298.507 74.0391 298.507C86.2304 299.168 94.7083 294.286 94.7083 294.286C94.7083 294.286 97.7177 286.212 98.3393 279.969C98.5754 277.609 98.4684 275.508 97.7266 274.206Z" fill="#2B478B"/>
<path d="M64.9863 244.127L74.985 215.677L81.2909 223.541L91.7769 203.595L81.739 233.803L75.0697 225.709L64.9863 244.127Z" fill="#75A1DE"/>
<path d="M45.5355 255.081L34.2054 239.435L40.6768 239.073L34.0142 226.308L46.258 242.621L39.5303 243.086L45.5355 255.081Z" fill="#75A1DE"/>
<path d="M101.766 259.002L113.763 243.853L115.93 249.899L126.442 239.99L114.053 256.195L111.715 249.934L101.766 259.002Z" fill="#75A1DE"/>
<path d="M98.3314 279.99C97.7099 286.233 94.7004 294.307 94.7004 294.307C90.1139 292.854 94.617 279.274 94.617 279.274C96.5905 279.221 97.2666 279.268 98.3314 279.99Z" fill="#2C3A64"/>
<path d="M110.499 290.703H110.499H110.5C104.771 275.786 95.4365 267.686 95.4365 267.686C90.3635 266.635 88.8748 269.967 87.6702 274.823C87.3567 276.087 98.2724 285.103 102.826 290.051H102.826L96.5215 299.861L93.6576 304.32C95.4278 304.223 97.1803 304.087 98.9151 303.909C99.1036 303.889 99.2922 303.87 99.4785 303.848C104.681 298.537 111.353 291.421 110.499 290.703Z" fill="#FFB27D"/>
<path d="M88.4632 266.926C88.4632 266.926 92.9139 266.351 95.2944 267.73C97.6747 269.108 102.951 275.371 102.951 275.371C102.951 275.371 99.5575 283.487 93.3454 282.782C93.3454 282.782 83.7835 273.275 86.0844 270.99C88.3856 268.707 88.4632 266.926 88.4632 266.926Z" fill="#2B478B"/>
<path d="M270.45 56.7822C270.45 56.7822 258.904 58.4385 255.439 62.3486C251.976 66.2589 249.995 75.313 253.46 80.5797C256.923 85.8466 270.45 56.7822 270.45 56.7822Z" fill="#2B478B"/>
<path d="M286.502 42.0051C286.502 42.0051 284.956 48.5275 291.055 61.1367L273.998 78.4311L272.667 62.3873C272.667 62.3873 274.887 53.4008 274.062 47.7251L286.502 42.0051Z" fill="#ED985F"/>
<path d="M279.817 32.5145C279.817 32.5145 288.895 35.6551 283.99 45.7115C283.99 45.7115 291.393 45.5563 292.939 43.2349C292.939 43.2349 292.788 44.1804 292.526 44.6653C292.526 44.6653 299.459 42.7921 301.621 39.8019C303.784 36.8116 291.02 2.66267 273.215 12.4199C273.215 12.4199 256.706 16.196 264.033 34.1991C271.361 52.2019 265.271 54.0834 265.271 54.0834C265.271 54.0834 267.223 54.3863 268.042 54.1338C268.042 54.1338 269.096 53.3135 269.125 52.5871C269.125 52.5871 269.213 53.6869 269.009 54.1084C269.009 54.1084 275.777 52.6942 278.284 49.2254C280.791 45.7568 281.956 36.0351 279.817 32.5145Z" fill="#233862"/>
<path d="M273.773 44.5072C273.773 44.5072 273.938 50.8068 273.847 55.0499C282.651 53.461 284.428 46.0136 286.278 42.0051L273.773 44.5072Z" fill="#DB8952"/>
<path d="M283.251 42.0158C283.251 42.0158 287.424 35.3393 288.382 29.6573C289.068 25.6008 293.114 8.84709 277.896 11.1648C277.896 11.1648 267.186 13.4078 263.053 16.2315C259.768 18.4772 255.04 23.3011 260.517 36.3437L261.95 40.7536L283.251 42.0158Z" fill="#233862"/>
<path d="M272.669 52.773C272.669 52.773 290.651 46.241 286.37 35.2218C282.086 24.2026 281.522 15.9381 269.86 19.6427C258.196 23.3471 257.613 28.3961 258.139 32.4181C258.664 36.4403 267.882 54.1881 272.669 52.773Z" fill="#ED985F"/>
<path d="M264.113 21.9545C264.113 21.9545 261.304 26.061 261.298 29.2125C261.291 32.3639 262.744 38.3985 260.94 38.735C260.94 38.735 254.336 30.9129 256.972 24.5198C259.765 17.741 264.113 21.9545 264.113 21.9545Z" fill="#233862"/>
<path d="M298.21 125.943C294.712 125.749 291.032 125.289 287.174 124.541C277.608 122.689 268.362 122.155 259.635 122.168C259.668 121.7 259.691 121.256 259.697 120.833C259.773 116.632 257.825 110.474 255.797 103.85H298.428C297.012 108.802 296.016 112.975 295.635 114.053C294.745 116.555 296.143 120.913 298.21 125.943Z" fill="#FFB27D"/>
<path d="M295.653 114.018C295.653 114.018 295.52 114.08 295.261 114.185C292.758 115.226 278.443 120.59 257.837 116.793C257.837 116.793 250.512 89.38 253.451 80.6506C256.366 71.9899 269.993 58.7085 270.206 58.5037C270.082 58.7463 264.829 69.1454 268.452 77.0959C268.452 77.0959 283.885 68.6291 289.233 57.1927C289.233 57.1927 301.195 66.5456 305.687 75.7026C305.904 76.1478 306.109 76.5928 306.288 77.0358C310.186 86.5912 295.653 114.018 295.653 114.018Z" fill="#2B478B"/>
<path d="M295.606 113.979C295.606 113.979 295.473 114.041 295.214 114.146C289.65 106.68 294.619 83.4852 294.619 83.4852C294.619 83.4852 300.462 76.6807 305.64 75.6637C305.857 76.1089 306.061 76.5538 306.241 76.9968C310.139 86.5523 295.606 113.979 295.606 113.979Z" fill="#2C3A64"/>
<path d="M268.238 51.6982C268.238 51.6982 268.218 53.0109 268.145 55.2083V55.2127C268.139 55.4103 268.132 55.6144 268.123 55.8252C267.748 66.935 266.204 96.9082 260.416 100.609C259.942 100.912 259.436 101.04 258.901 100.965C258.819 100.952 258.735 100.939 258.648 100.925C257.923 100.816 257.226 100.64 256.565 100.401C256.523 100.385 256.481 100.37 256.441 100.355C256.441 100.355 256.439 100.355 256.439 100.352C251.057 98.3702 247.934 92.5244 249.62 86.8323L263.192 50.5501C263.436 49.6303 263.58 47.7995 262.003 45.5034C260.889 43.8833 260.867 40.9747 260.507 39.0495C260.148 37.1221 260.461 36.5316 260.962 37.357C261.466 38.1802 262.271 40.9418 262.626 40.7574C262.981 40.573 261.716 31.678 263.507 31.7439C265.295 31.8097 268.227 41.7452 268.176 44.7768C268.125 47.8083 268.238 51.6982 268.238 51.6982Z" fill="#FFB27D"/>
<path d="M268.199 55.8243C267.824 66.9342 266.28 96.9074 260.492 100.608C260.018 100.911 259.512 101.039 258.977 100.964C258.895 100.951 258.811 100.938 258.724 100.925C257.999 100.815 257.302 100.639 256.641 100.4C256.599 100.385 256.557 100.369 256.517 100.354C256.517 100.354 256.515 100.354 256.515 100.352C250.765 94.6903 266.284 60.0325 268.199 55.8243Z" fill="#ED985F"/>
<path d="M295.985 60.1156C294.049 59.8643 285.768 72.4364 278.487 82.2366V82.2375L274.911 49.5014L274.705 49.1677L274.736 49.1708C274.736 49.1708 275.346 43.7612 276.741 42.1699C278.134 40.5784 277.619 37.5791 277.832 35.6317C278.048 33.6842 277.568 33.1066 277.029 33.9581C276.49 34.8094 275.807 37.6149 275.328 37.4472C274.847 37.2792 275.328 28.3066 273.036 28.4616C270.743 28.6163 268.247 38.7127 268.704 41.7473C269.09 44.3131 269.4 47.4987 269.489 48.4225C266.954 62.3409 261.348 96.4307 266.432 100.682C266.752 100.95 267.116 101.178 267.317 101.178C284.45 101.364 299.005 85.9322 305.535 77.7086C307.905 74.7249 309.222 72.691 309.222 72.691C310.167 63.0212 305.473 61.353 295.985 60.1156Z" fill="#FFB27D"/>
<path d="M305.355 77.754C298.824 85.9776 284.269 101.409 267.137 101.223C267.347 101.22 267.563 101.204 267.782 101.174C271.037 100.786 275.311 98.1578 279.666 94.7138C289.391 87.0223 299.507 75.2534 299.507 75.2534L305.355 77.754Z" fill="#ED985F"/>
<path d="M289.259 57.1927C289.259 57.1927 304.694 58.0871 307.829 62.9025C311.407 68.4023 311.491 73.8139 308.412 83.9686C308.412 83.9686 289.259 80.1848 289.931 66.3302L289.259 57.1927Z" fill="#2B478B"/>
<path d="M256.794 46.1021C256.007 46.7481 255.827 47.8826 256.444 48.2362C257.107 48.6169 257.464 47.7636 257.67 46.7007C257.841 45.8154 258.564 45.152 258.564 45.152C258.564 45.152 257.571 45.4661 256.794 46.1021Z" fill="#699DEE"/>
<path d="M245.321 53.3784C245.949 53.8145 246.379 52.9951 246.679 51.9541C246.927 51.0868 247.706 50.4882 247.706 50.4882C247.706 50.4882 246.69 50.7156 245.86 51.2824C245.017 51.8582 244.738 52.9729 245.321 53.3784Z" fill="#699DEE"/>
<path d="M251.716 59.2935C251.15 60.1385 251.31 61.2756 252.005 61.4371C252.752 61.6112 252.843 60.6923 252.73 59.6158C252.635 58.7191 253.131 57.8772 253.131 57.8772C253.131 57.8772 252.273 58.4624 251.716 59.2935Z" fill="#699DEE"/>
<path d="M243.484 61.4035C242.871 62.2166 242.969 63.3608 243.654 63.5597C244.391 63.7735 244.533 62.8609 244.477 61.78C244.433 60.8796 244.974 60.0658 244.974 60.0658C244.974 60.0658 244.087 60.6036 243.484 61.4035Z" fill="#699DEE"/>
<path d="M292.586 48.9306C291.705 48.3669 290.641 48.1619 290.641 48.1619C290.641 48.1619 291.468 48.7605 291.756 49.655C292.1 50.7285 292.573 51.5677 293.212 51.0942C293.806 50.6543 293.482 49.5034 292.586 48.9306Z" fill="#699DEE"/>
<path d="M304.261 53.0025C303.334 52.5167 302.256 52.4041 302.256 52.4041C302.256 52.4041 303.134 52.9291 303.498 53.7956C303.935 54.8355 304.481 55.6308 305.075 55.1042C305.63 54.6148 305.204 53.4962 304.261 53.0025Z" fill="#699DEE"/>
<path d="M297.555 60.6134C297.555 60.6134 298.172 61.4237 298.185 62.3619C298.201 63.4882 298.407 64.4271 299.157 64.1573C299.856 63.9066 299.88 62.7118 299.192 61.9068C298.514 61.1148 297.555 60.6134 297.555 60.6134Z" fill="#699DEE"/>
<path d="M308.11 63.185C307.389 62.4307 306.404 61.9818 306.404 61.9818C306.404 61.9818 307.065 62.7576 307.129 63.6938C307.207 64.8176 307.466 65.7437 308.201 65.434C308.884 65.146 308.844 63.9516 308.11 63.185Z" fill="#699DEE"/>
<path d="M273.307 12.4197C273.307 12.4197 265.962 17.5152 262.435 21.2569C262.435 21.2569 262.798 21.6848 263.444 22.3782C263.453 22.5231 263.459 22.6083 263.459 22.6083C263.459 22.6083 271.392 35.3529 282.486 36.7934C282.486 36.7934 276.774 34.2485 271.949 29.8311C274.957 31.8689 278.285 33.4247 281.308 33.2725C283.786 33.377 287.493 43.215 280.601 45.7327C280.601 45.7327 289.805 46.6378 293.028 43.2352C293.028 43.2352 292.882 44.1818 292.62 44.6669C292.62 44.6669 299.552 42.792 301.713 39.8013C303.876 36.8134 291.109 2.66275 273.307 12.4197Z" fill="#233862"/>
<path d="M417.909 187.895C416.993 188.24 413.854 193.947 410.477 199.85L412.461 175.823C412.461 175.823 413.772 173.174 413.767 171.964C413.763 170.754 415.387 161.209 414.568 160.919C413.749 160.628 409.486 165.171 409.06 167.228C408.807 168.46 409.37 174.254 409.37 174.254C408.459 176.381 397.382 202.374 395.892 214.084C395.459 217.469 395.829 219.664 397.48 219.738C397.897 219.756 398.314 219.752 398.738 219.73C400.428 219.631 402.132 219.214 403.658 218.7C403.671 218.693 403.687 218.689 403.702 218.685C405.335 218.173 406.892 217.464 408.368 216.621C408.401 216.601 408.436 216.584 408.47 216.564C408.893 216.331 409.131 216.184 409.131 216.184L409.133 216.167C413.938 213.219 417.825 208.874 420.558 205.169C423.481 201.207 425.088 197.977 425.088 197.977C427.752 188.606 420.944 186.751 417.909 187.895Z" fill="#FFB27D"/>
<path d="M426.933 167.016C426.933 167.016 434.322 168.315 431.811 176.669C431.811 176.669 437.496 175.636 438.395 173.657C438.395 173.657 438.397 174.404 438.257 174.81C438.257 174.81 443.364 172.51 444.653 169.939C445.942 167.368 431.802 142.63 419.312 152.347C419.312 152.347 407.067 157.294 414.982 170.262C422.897 183.229 418.443 185.43 418.443 185.43C418.443 185.43 419.987 185.424 420.584 185.127C420.584 185.127 421.291 184.365 421.225 183.802C421.225 183.802 421.431 184.64 421.327 184.989C421.327 184.989 426.362 183.064 427.858 180.081C429.353 177.099 429.024 169.464 426.933 167.016Z" fill="#233862"/>
<path d="M442.436 182.851C442.873 186.496 442.838 192.207 438.578 193.301C435.907 193.986 433.993 195.083 432.465 195.821C430.355 196.842 428.975 197.184 427.331 194.846C424.498 190.811 425.583 185.167 425.583 185.167L426.144 184.981C424.84 182.428 423.596 179.765 423.103 178.019L432.686 173.131L433.585 172.673C433.585 172.673 434.468 173.735 435.983 175.173C437.962 177.056 441.025 179.581 444.592 181.202L442.436 182.851Z" fill="#FFB27D"/>
<path d="M434.184 194.519L432.465 195.772C430.355 196.793 428.975 197.135 427.331 194.798C424.498 190.763 425.583 185.119 425.583 185.119L426.144 184.932C424.84 182.379 423.596 179.716 423.103 177.97L432.686 173.083C433.228 173.664 434.277 174.747 435.728 176.062C436.646 180.425 437.514 188.148 434.184 194.519Z" fill="#ED985F"/>
<path d="M431.426 173.307C431.426 173.307 433.209 167.439 432.77 162.963C432.46 159.768 432.087 146.327 421.086 151.118C421.086 151.118 413.47 154.951 410.93 157.907C408.912 160.257 406.334 164.839 413.127 173.577L415.11 176.616L431.426 173.307Z" fill="#233862"/>
<path d="M426.969 180.693C424.81 182.257 422.909 183.159 422.909 183.159C419.293 184.606 410.808 171.491 410.098 168.402C409.39 165.316 409.468 161.349 418.255 157.618C424.442 154.991 426.796 157.379 429.096 161.904C430.061 163.803 431.017 166.081 432.246 168.52C434.837 173.67 430.553 178.096 426.969 180.693Z" fill="#FFB27D"/>
<path d="M427.537 180.17C428.264 173.906 419.508 163.494 419.508 163.494C419.508 163.494 424.67 162.605 429.018 161.863C429.983 163.761 430.94 166.04 432.169 168.478C434.76 173.628 431.121 177.573 427.537 180.17Z" fill="#ED985F"/>
<path d="M413.235 160.744C413.235 160.744 411.589 164.255 411.981 166.684C412.374 169.113 414.255 173.584 412.907 174.066C412.907 174.066 406.83 168.854 408.057 163.602C409.355 158.034 413.235 160.744 413.235 160.744Z" fill="#233862"/>
<path d="M412.042 160.426C412.042 160.426 412.376 160.711 412.962 161.166C412.987 161.276 413.002 161.341 413.002 161.341C413.002 161.341 420.722 170.182 429.451 169.923C429.451 169.923 424.731 168.667 420.456 165.858C423.029 167.058 425.789 167.846 428.1 167.355C430.024 167.13 434.121 174.253 429.125 177.043C429.125 177.043 436.33 176.605 438.387 173.585C438.387 173.585 438.393 174.333 438.254 174.739C438.254 174.739 443.358 172.438 444.647 169.867C445.936 167.298 425.077 145.301 412.042 160.426Z" fill="#233862"/>
<path d="M420.587 205.266C417.854 208.971 413.968 213.315 409.163 216.263L409.161 216.281C409.161 216.281 408.923 216.428 408.5 216.661C408.466 216.681 408.431 216.698 408.397 216.718C406.922 217.561 405.365 218.27 403.732 218.781C403.717 218.786 403.701 218.79 403.688 218.797C402.162 219.31 400.458 219.728 398.768 219.826C400.194 219.567 401.567 219.027 402.876 218.298C405.321 216.94 407.541 214.911 409.451 212.756C413.744 207.904 416.466 202.399 416.619 202.364L420.587 205.266Z" fill="#ED985F"/>
<path d="M460.828 186.782C460.831 186.782 460.828 186.777 460.828 186.777C460.429 186.014 460.027 185.289 459.622 184.604C457.862 181.635 456.068 179.465 454.306 178.486C454.304 178.484 454.3 178.484 454.297 178.482C454.295 178.482 454.293 178.482 454.293 178.479C453.321 177.945 451.571 177.896 449.348 178.181H449.342C447.228 178.45 444.683 179.018 441.961 179.755C441.959 179.755 441.957 179.757 441.954 179.757H441.966C441.966 179.757 440.255 185.816 437.582 189.914C436.819 191.089 435.974 192.103 435.064 192.764C434.392 193.258 433.682 193.556 432.95 193.585C431.087 193.653 429.485 193.187 428.272 192.333C426.421 191.038 425.474 188.839 425.882 186.262L425.885 186.251L426.191 184.984C426.191 184.982 426.193 184.98 426.193 184.977V184.975V184.973L426.2 184.951V184.949C426.2 184.949 426.197 184.949 426.193 184.951C425.944 185.015 417.415 187.225 415.807 189.528C414.176 191.864 411.765 197.24 411.765 197.24C411.765 197.24 415.489 207.276 421.512 208.692C421.512 208.703 421.514 208.712 421.514 208.723C421.796 211.664 424.183 215.778 427.231 219.793C428.405 221.336 429.676 222.869 430.958 224.311C440.084 223.575 449.69 222.151 458.763 219.793C463.013 218.689 467.148 217.381 471.062 215.842C468.457 205.527 464.777 194.32 460.828 186.782Z" fill="#2B478B"/>
<path d="M450.637 178.643C449.37 179.146 444.43 189.014 439.792 197.307L430.443 167.454C430.443 167.454 430.399 162.069 429.56 160.795C428.724 159.521 425.634 156.782 424.476 157.1C423.316 157.419 424.862 159.958 425.119 161.46C425.377 162.961 425.505 163.685 425.377 163.753C425.248 163.821 424.427 161.177 424.05 161.305C423.671 161.432 424.314 164.68 424.571 165.318C424.815 165.92 426.705 167.026 426.965 168.199C427.145 175.941 428.489 222.003 435.124 219.876C435.166 219.863 435.215 219.839 435.268 219.806C435.679 219.606 436.085 219.404 436.482 219.196C436.486 219.194 436.491 219.191 436.497 219.189C436.502 219.185 436.508 219.18 436.515 219.178C450.748 211.719 456.352 198.745 458.175 193.194C458.714 191.543 458.92 190.548 458.92 190.548C461.895 179.417 454.098 177.264 450.637 178.643Z" fill="#FFB27D"/>
<path d="M430.027 110.669C428.195 109.133 425.908 108.365 423.175 108.365C421.427 108.365 419.763 108.763 418.183 109.558C416.604 110.355 415.377 111.477 414.505 112.928C413.966 113.82 413.7 114.713 413.7 115.608C413.7 116.304 413.918 116.883 414.357 117.344C414.792 117.805 415.351 118.034 416.027 118.034C416.817 118.034 417.507 117.631 418.099 116.821L419.79 114.559C420.608 113.751 421.695 113.346 423.048 113.346C424.204 113.346 425.169 113.66 425.946 114.288C426.72 114.915 427.11 115.801 427.11 116.945C427.11 118.259 426.7 119.276 425.881 120.001C425.291 120.531 424.275 121.021 422.835 121.466C421.766 121.802 421.052 122.143 420.701 122.492C420.349 122.841 420.173 123.365 420.173 124.061V128.248C420.173 129.085 420.397 129.782 420.848 130.34C421.3 130.899 421.935 131.177 422.753 131.177C424.078 131.177 424.91 130.536 425.247 129.252C425.36 128.807 425.415 127.661 425.415 125.82C427.729 125.374 429.555 124.391 430.895 122.868C432.235 121.348 432.905 119.429 432.905 117.115C432.905 114.464 431.946 112.313 430.027 110.669ZM424.952 134.881C424.388 134.309 423.683 134.024 422.835 134.024C421.99 134.024 421.271 134.309 420.679 134.881C420.087 135.453 419.79 136.159 419.79 136.996C419.79 137.806 420.094 138.502 420.701 139.088C421.307 139.673 422.017 139.967 422.835 139.967C423.683 139.967 424.388 139.68 424.952 139.11C425.515 138.538 425.799 137.832 425.799 136.996C425.799 136.159 425.515 135.453 424.952 134.881Z" fill="#75A1DE"/>
<path d="M451.57 121.897C450.765 120.343 449.434 119.184 447.577 118.418C446.39 117.928 445.148 117.732 443.848 117.83C442.55 117.928 441.397 118.349 440.388 119.088C439.771 119.544 439.332 120.076 439.076 120.682C438.877 121.156 438.861 121.608 439.025 122.044C439.192 122.478 439.502 122.789 439.964 122.979C440.498 123.201 441.084 123.119 441.716 122.736L443.511 121.674C444.296 121.356 445.148 121.385 446.069 121.763C446.854 122.086 447.418 122.569 447.764 123.212C448.112 123.856 448.121 124.566 447.795 125.342C447.42 126.233 446.852 126.809 446.089 127.072C445.534 127.268 444.707 127.315 443.602 127.214C442.779 127.143 442.2 127.174 441.861 127.312C441.521 127.45 441.253 127.758 441.055 128.229L439.857 131.072C439.618 131.639 439.571 132.176 439.718 132.681C439.864 133.186 440.215 133.554 440.771 133.781C441.67 134.152 442.417 133.95 443.016 133.173C443.218 132.901 443.584 132.14 444.112 130.891C445.807 131.236 447.329 131.078 448.671 130.422C450.015 129.765 451.018 128.65 451.679 127.079C452.438 125.278 452.4 123.553 451.57 121.897ZM441.206 136.912C440.984 136.365 440.589 135.973 440.015 135.737C439.442 135.501 438.87 135.494 438.307 135.715C437.741 135.937 437.339 136.334 437.1 136.901C436.869 137.451 436.874 138.01 437.118 138.577C437.362 139.145 437.761 139.541 438.318 139.77C438.89 140.008 439.451 140.01 439.997 139.781C440.543 139.55 440.935 139.152 441.175 138.582C441.415 138.014 441.424 137.457 441.206 136.912Z" fill="#75A1DE"/>
<path d="M403.957 126.851C402.753 125.309 401.22 124.485 399.356 124.38C397.593 124.303 395.916 124.87 394.323 126.088C393.307 126.864 392.519 127.835 391.96 129.001C391.404 130.165 391.2 131.365 391.35 132.598C391.444 133.357 391.694 133.994 392.098 134.515C392.415 134.92 392.806 135.16 393.269 135.234C393.731 135.307 394.161 135.193 394.556 134.893C395.013 134.541 395.233 133.998 395.21 133.264L395.168 131.196C395.277 130.361 395.725 129.644 396.512 129.041C397.185 128.527 397.888 128.282 398.627 128.302C399.361 128.322 399.989 128.665 400.508 129.33C401.105 130.094 401.331 130.869 401.184 131.654C401.08 132.226 400.712 132.963 400.077 133.86C399.605 134.532 399.345 135.049 399.299 135.407C399.252 135.768 399.388 136.15 399.703 136.556L401.604 138.993C401.985 139.48 402.433 139.785 402.95 139.91C403.465 140.034 403.962 139.914 404.436 139.549C405.208 138.959 405.402 138.216 405.013 137.319C404.878 137.01 404.392 136.32 403.554 135.247C404.696 133.96 405.313 132.576 405.404 131.093C405.49 129.613 405.009 128.2 403.957 126.851ZM408.851 141.582C408.472 141.094 407.988 140.809 407.398 140.727C406.812 140.647 406.271 140.791 405.779 141.167C405.286 141.544 404.998 142.031 404.913 142.628C404.827 143.224 404.976 143.765 405.357 144.252C405.725 144.722 406.218 144.994 406.837 145.065C407.456 145.136 408.001 144.991 408.478 144.626C408.971 144.25 409.25 143.772 409.319 143.186C409.388 142.603 409.23 142.069 408.851 141.582Z" fill="#75A1DE"/>
<path d="M458.313 193.196C456.49 198.748 450.886 211.722 436.653 219.181C444.373 214.9 451.312 193.528 451.312 193.528L458.313 193.196Z" fill="#ED985F"/>
<path d="M448.891 178.262C448.891 178.262 456.888 175.632 459.81 182.13C462.731 188.627 459.512 199.522 459.512 199.522C459.512 199.522 445.466 198.758 443.29 188.629L448.891 178.262Z" fill="#2B478B"/>
<path d="M458.698 219.74C449.625 222.098 440.02 223.523 430.893 224.258C425.472 224.695 420.216 224.888 415.343 224.888C404.85 224.888 395.77 223.022 387.983 219.74H397.698C397.848 219.742 397.995 219.742 398.146 219.74H458.698Z" fill="#75A1DE"/>
<path d="M467.791 335.309C467.791 335.309 456.093 321.804 467.07 313.227C467.07 313.227 475.087 308.424 481.625 308.815C481.625 308.815 472.361 324.183 475.358 325.714C478.355 327.241 484.433 307.849 484.433 307.849C484.433 307.849 502.677 306.099 508.547 308.892C508.547 308.892 492.949 321.521 496.235 322.274C499.518 323.024 516.364 310.628 516.364 310.628C516.364 310.628 533.346 313.489 532.441 323.738C531.536 333.989 525.684 337.153 523.112 336.88C520.541 336.608 505.499 330.927 505.17 333.01C504.842 335.096 513.897 341.91 520.237 342.23C520.237 342.23 508.267 355.294 500.31 351.522C492.355 347.753 491.674 341.776 486.716 339.535C481.755 337.293 477.521 337.298 479.57 339.585C481.618 341.87 490.593 344.092 493.429 349.057C496.266 354.023 498.81 357.37 490.578 356.146C482.348 354.918 468.967 348.958 468.379 342.134L467.791 335.309Z" fill="#82B378"/>
<path d="M524.241 324.08C524.241 324.08 478.121 322.321 467.934 335.374C467.934 335.374 465.683 342.049 458.75 348.128L457.67 351.041C457.67 351.041 465.663 342.704 468.522 342.199C468.522 342.199 464.05 326.029 524.241 324.08Z" fill="#82B378"/>
<path d="M460.451 348.074C460.051 348.506 459.459 349.088 458.614 349.865C458.596 349.878 458.583 349.891 458.567 349.907C458.294 350.161 458.024 350.433 457.764 350.721C456.12 352.528 454.714 354.973 453.558 357.473C453.33 357.967 453.108 358.466 452.902 358.96H450.204C450.433 358.446 450.67 357.952 450.918 357.473C454.057 351.406 458.525 348.135 458.525 348.135C458.525 348.135 458.527 348.133 458.53 348.133C458.698 348.03 462.687 345.646 460.451 348.074Z" fill="#82B378"/>
<path d="M435.495 318.045C435.495 318.045 454.102 307.734 445.417 293.74C445.417 293.74 438.472 285.148 431.029 282.94C431.029 282.94 434.998 303.807 431.029 304.297C427.058 304.789 428.3 280.729 428.3 280.729C428.3 280.729 408.701 271.4 401.01 272.137C401.01 272.137 413.167 292.513 409.196 292.023C405.227 291.532 391.582 270.91 391.582 270.91C391.582 270.91 371.486 267.227 368.26 279.01C365.035 290.794 370.246 296.688 373.223 297.424C376.2 298.161 395.302 297.915 394.807 300.37C394.311 302.824 381.411 306.753 374.214 304.543C374.214 304.543 382.154 323.937 392.574 322.956C402.993 321.975 406.219 315.591 412.67 315.099C419.121 314.61 423.835 316.326 420.609 318.045C417.384 319.764 406.467 318.609 401.256 322.991C396.048 327.375 391.83 330.075 401.505 332.04C411.181 334.004 428.547 332.775 432.021 325.41L435.495 318.045Z" fill="#A8D29F"/>
<path d="M377.474 282.68C377.474 282.68 429.575 299.374 435.529 318.031C435.529 318.031 435.28 326.379 440.491 335.953V339.636C440.491 339.636 435.032 327.115 432.055 325.396C432.055 325.396 443.717 309.193 377.474 282.68Z" fill="#82B378"/>
<path d="M445.14 357.467C445.077 357.959 445.002 358.453 444.913 358.953H442.205C442.236 358.494 442.267 357.996 442.291 357.467C442.537 352.486 442.486 344.654 440.339 339.273C440.33 339.249 440.321 339.225 440.31 339.203C440.128 338.749 439.931 338.314 439.716 337.899C439.711 337.888 439.705 337.879 439.7 337.868C439.09 336.683 438.675 335.807 438.411 335.171C438.411 335.171 438.411 335.168 438.409 335.166C436.918 331.548 440.368 335.809 440.521 336C440.523 336.005 440.525 336.007 440.525 336.007C440.525 336.007 446.699 345.279 445.14 357.467Z" fill="#82B378"/>
<path d="M458.033 296.96C458.033 296.96 433.505 283.369 444.951 264.923C444.951 264.923 454.109 253.596 463.918 250.683C463.918 250.683 458.687 278.191 463.918 278.838C469.151 279.486 467.517 247.77 467.517 247.77C467.517 247.77 493.352 235.472 503.49 236.443C503.49 236.443 487.466 263.303 492.697 262.658C497.93 262.01 515.917 234.825 515.917 234.825C515.917 234.825 542.406 229.971 546.659 245.504C550.909 261.037 544.044 268.806 540.117 269.777C536.193 270.747 511.012 270.424 511.667 273.66C512.321 276.896 529.327 282.074 538.81 279.161C538.81 279.161 528.344 304.726 514.61 303.433C500.874 302.138 496.621 293.724 488.118 293.076C479.618 292.429 473.404 294.694 477.654 296.96C481.905 299.225 496.295 297.702 503.163 303.479C510.032 309.257 515.591 312.818 502.835 315.406C490.082 317.996 467.188 316.378 462.612 306.669L458.033 296.96Z" fill="#A8D29F"/>
<path d="M534.377 250.389C534.377 250.389 465.701 272.394 457.853 296.989C457.853 296.989 458.179 307.993 451.311 320.613V325.467C451.311 325.467 458.507 308.963 462.431 306.698C462.431 306.698 447.06 285.339 534.377 250.389Z" fill="#82B378"/>
<path d="M451.363 320.591C451.363 320.591 440.772 336.506 446.81 355.879L449.535 355.154C449.535 355.154 446.89 333.817 452.432 323.085C457.971 312.352 451.363 320.591 451.363 320.591Z" fill="#82B378"/>
<path d="M497.526 365H110.381C109.039 365 107.752 364.572 106.803 363.811C105.854 363.049 105.321 362.016 105.321 360.939C105.321 359.862 105.854 358.829 106.803 358.067C107.752 357.306 109.039 356.878 110.381 356.878H497.526C498.868 356.878 500.155 357.306 501.104 358.067C502.053 358.829 502.586 359.862 502.586 360.939C502.586 362.016 502.053 363.049 501.104 363.811C500.155 364.572 498.868 365 497.526 365Z" fill="#2E5B9A"/>
</svg>
